<?xml version="1.0" standalone="no"?>
<!DOCTYPE svg PUBLIC "-//W3C//DTD SVG 1.1//EN" "http://www.w3.org/Graphics/SVG/1.1/DTD/svg11.dtd" >
<svg>
<metadata>
Created by FontForge 20090914 at Wed Jun  5 19:00:23 2013
 By www-data
Copyright (c) 1988, 1990, 1995 Adobe Systems Incorporated.  All Rights Reserved.Frutiger is a registered trademark of Linotype AG and/or its subsidiaries.
</metadata>
<defs>
<font id="FrutigerCE-Black" horiz-adv-x="611" >
  <font-face 
    font-family="Frutiger CE 55 Roman"
    font-weight="700"
    font-stretch="normal"
    units-per-em="1000"
    panose-1="2 0 10 3 5 0 0 2 0 4"
    ascent="800"
    descent="-200"
    x-height="520.999"
    cap-height="698"
    bbox="-164 -253.002 1000 946"
    underline-thickness="50"
    underline-position="-75"
    unicode-range="U+0020-U+FB02"
  />
<missing-glyph horiz-adv-x="306" 
 />
    <glyph glyph-name=".notdef" horiz-adv-x="306" 
 />
    <glyph glyph-name="space" unicode=" " horiz-adv-x="306" 
 />
    <glyph glyph-name="space" unicode="&#xa0;" horiz-adv-x="306" 
 />
    <glyph glyph-name="exclam" unicode="!" horiz-adv-x="444" 
d="M315 698h-186l26 -461h134zM138 0h168v162h-168v-162z" />
    <glyph glyph-name="quotedbl" unicode="&#x22;" 
d="M337 427h132v271h-132v-271zM142 427h132v271h-132v-271z" />
    <glyph glyph-name="numbersign" unicode="#" horiz-adv-x="612" 
d="M58 187h84l-26 -187h106l26 187h87l-26 -187h105l26 187h84v108h-69l15 110h84v108h-69l25 185h-105l-25 -185h-87l26 185h-106l-26 -185h-99v-108h84l-15 -110h-99v-108zM350 295h-87l15 110h87z" />
    <glyph glyph-name="dollar" unicode="$" horiz-adv-x="612" 
d="M266 120c-30.667 0 -62.001 2.83008 -94.001 8.49707s-63.667 14.834 -95 27.501l-13 -142c10 -4 23.167 -7.66699 39.5 -11s33.833 -6 52.5 -8s37.667 -3.66699 57 -5s37 -2 53 -2v-86h60v86c30.667 0.666992 60.834 5.33398 90.501 14.001s56.334 22 80.001 40
s42.667 40.333 57 67s21.5 58.334 21.5 95.001c0 40 -6.33301 73.167 -19 99.5s-29.834 48 -51.501 65s-46.667 30.167 -75 39.5s-58.5 17.666 -90.5 24.999v151c28.667 0 59 -3.83301 91 -11.5s59.333 -17.167 82 -28.5l12 135c-23.333 11.333 -52.166 19.333 -86.499 24
s-67.166 7 -98.499 7v85h-60v-85c-33.333 -1.33301 -64.5 -6.33301 -93.5 -15s-54.5 -21.5 -76.5 -38.5s-39.333 -38.333 -52 -64s-19 -56.5 -19 -92.5c0 -32 6.66699 -60.167 20 -84.5s30.666 -45.166 51.999 -62.499s45.666 -31.333 72.999 -42s55 -18 83 -22v-169z
M278.999 444.997c-21.333 2.66699 -39.833 9.66895 -55.5 21.002s-23.5 28 -23.5 50c0 19.333 7.5 35.166 22.5 47.499s33.833 19.166 56.5 20.499v-139zM325.999 279.999c10 -2 20.1699 -4.66602 30.5029 -7.99902s19.666 -7.83301 27.999 -13.5
s15.166 -12.834 20.499 -21.501s8 -19 8 -31c0 -28.667 -7.83301 -49.5 -23.5 -62.5s-36.834 -20.833 -63.501 -23.5v160z" />
    <glyph glyph-name="percent" unicode="%" horiz-adv-x="1000" 
d="M602 195c0 -30 3 -57.667 9 -83s15.833 -47.166 29.5 -65.499s31.667 -32.666 54 -42.999s49.833 -15.5 82.5 -15.5s60.167 5.16699 82.5 15.5s40.333 24.666 54 42.999s23.5 40.166 29.5 65.499s9 53 9 83c0 28.667 -3 55.667 -9 81s-15.833 47.333 -29.5 66
s-31.667 33.334 -54 44.001s-49.833 16 -82.5 16s-60.167 -5.33301 -82.5 -16s-40.333 -25.334 -54 -44.001s-23.5 -40.667 -29.5 -66s-9 -52.333 -9 -81zM728 195c0 12.667 0.333008 25.834 1 39.501s2.5 26.167 5.5 37.5s7.83301 20.833 14.5 28.5s16 11.5 28 11.5
s21.333 -3.83301 28 -11.5s11.5 -17.167 14.5 -28.5s4.83301 -23.833 5.5 -37.5s1 -26.834 1 -39.501s-0.333008 -25.834 -1 -39.501s-2.5 -26.334 -5.5 -38.001s-7.83301 -21.167 -14.5 -28.5s-16 -11 -28 -11s-21.333 3.66699 -28 11s-11.5 16.833 -14.5 28.5
s-4.83301 24.334 -5.5 38.001s-1 26.834 -1 39.501zM48 503c0 -30 3 -57.667 9 -83s15.833 -47.166 29.5 -65.499s31.667 -32.666 54 -42.999s49.833 -15.5 82.5 -15.5s60.167 5.16699 82.5 15.5s40.333 24.666 54 42.999s23.5 40.166 29.5 65.499s9 53 9 83
c0 28.667 -3 55.667 -9 81s-15.833 47.333 -29.5 66s-31.667 33.334 -54 44.001s-49.833 16 -82.5 16s-60.167 -5.33301 -82.5 -16s-40.333 -25.334 -54 -44.001s-23.5 -40.667 -29.5 -66s-9 -52.333 -9 -81zM174 503c0 12.667 0.333008 25.834 1 39.501
s2.5 26.167 5.5 37.5s7.83301 20.833 14.5 28.5s16 11.5 28 11.5s21.333 -3.83301 28 -11.5s11.5 -17.167 14.5 -28.5s4.83301 -23.833 5.5 -37.5s1 -26.834 1 -39.501s-0.333008 -25.834 -1 -39.501s-2.5 -26.334 -5.5 -38.001s-7.83301 -21.167 -14.5 -28.5
s-16 -11 -28 -11s-21.333 3.66699 -28 11s-11.5 16.833 -14.5 28.5s-4.83301 24.334 -5.5 38.001s-1 26.834 -1 39.501zM253 -22h110l381 742h-109z" />
    <glyph glyph-name="ampersand" unicode="&#x26;" horiz-adv-x="778" 
d="M587 377c-1.33301 -22.667 -5.33301 -44.999 -12 -66.999s-18 -41.667 -34 -59l-120 111l55 33c18 11.333 34 24 48 38s25.333 29.5 34 46.5s13 36.5 13 58.5c0 32.667 -6.83301 60 -20.5 82s-31.834 39.667 -54.501 53s-48.5 22.833 -77.5 28.5s-58.833 8.5 -89.5 8.5
c-27.333 0 -54.833 -3 -82.5 -9s-52.5 -15.5 -74.5 -28.5s-40 -30.167 -54 -51.5s-21 -47.333 -21 -78s7 -58.334 21 -83.001s35 -48 63 -70c-43.333 -20 -77 -44.5 -101 -73.5s-36 -67.833 -36 -116.5c0 -36 7.5 -67.333 22.5 -94s34.833 -48.667 59.5 -66
s52.834 -30.333 84.501 -39s64.167 -13 97.5 -13c38 0 76.167 4.33301 114.5 13s72.5 26 102.5 52c7.33301 -8 14.333 -16.5 21 -25.5l21 -27.5h199l-124 138c32.667 32 58.167 68.667 76.5 110s28.5 84.333 30.5 129h-162zM214 204.001
c0 25.333 5.66797 45.001 17.001 59.001s26.666 26.333 45.999 37l78.5 -74.5c25.667 -25 51.167 -51.5 76.5 -79.5c-17.333 -13.333 -34 -23 -50 -29s-34.667 -9 -56 -9c-14 0 -27.667 2.16699 -41 6.5s-25.333 10.666 -36 18.999s-19.167 18.333 -25.5 30
s-9.5 25.167 -9.5 40.5zM257.001 534.002c0 17.333 7.00488 31.999 21.0049 43.999s31.667 18 53 18s39.666 -5.16699 54.999 -15.5s23 -25.833 23 -46.5c0 -11.333 -2.83301 -21.666 -8.5 -30.999s-12.834 -17.833 -21.501 -25.5s-17.834 -14.667 -27.501 -21
s-18.834 -11.833 -27.501 -16.5c-7.33301 5.33301 -14.833 11.333 -22.5 18s-14.834 14 -21.501 22s-12.167 16.5 -16.5 25.5s-6.5 18.5 -6.5 28.5z" />
    <glyph glyph-name="quotesingle" unicode="'" horiz-adv-x="333" 
d="M101 427h132v271h-132v-271z" />
    <glyph glyph-name="parenleft" unicode="(" horiz-adv-x="389" 
d="M228 756c-46 -66.667 -84 -137.503 -114 -212.503s-45 -153.5 -45 -235.5c0 -83.333 13.833 -162.166 41.5 -236.499s66.167 -144.833 115.5 -211.5h142c-40.667 68.667 -73.667 140.334 -99 215.001s-38 152.334 -38 233.001c0 82 13 160 39 234s61 145.333 105 214
h-147z" />
    <glyph glyph-name="parenright" unicode=")" horiz-adv-x="389" 
d="M161 -140c46 66.667 84 137.497 114 212.497s45 153.5 45 235.5c0 82.667 -14 161.834 -42 237.501s-67 145.834 -117 210.501h-147c43.333 -67.333 78.166 -138.666 104.499 -213.999s39.5 -153.333 39.5 -234s-13.167 -158.5 -39.5 -233.5
s-61.166 -146.5 -104.499 -214.5h147z" />
    <glyph glyph-name="asterisk" unicode="*" 
d="M135 372l98 -71l72 128l67 -129l101 73l-102 103l144 25l-37 117l-130 -64l20 144h-122l21 -146l-133 66l-38 -116l142 -27z" />
    <glyph glyph-name="plus" unicode="+" horiz-adv-x="600" 
d="M47 190h190v-190h126v190h190v126h-190v190h-126v-190h-190v-126z" />
    <glyph glyph-name="comma" unicode="," horiz-adv-x="306" 
d="M2 -109h137l98 271h-168z" />
    <glyph glyph-name="hyphen" unicode="-" horiz-adv-x="333" 
d="M31 203h271v132h-271v-132z" />
    <glyph glyph-name="hyphen" unicode="&#xad;" horiz-adv-x="333" 
d="M31 203h271v132h-271v-132z" />
    <glyph glyph-name="period" unicode="." horiz-adv-x="306" 
d="M69 0h168v162h-168v-162z" />
    <glyph glyph-name="slash" unicode="/" horiz-adv-x="278" 
d="M-21 -12h126l194 722h-126z" />
    <glyph glyph-name="zero" unicode="0" horiz-adv-x="612" 
d="M306 -12c58 0 104.667 10.333 140 31s62.666 47.834 81.999 81.501s32.333 72.167 39 115.5s10 87.666 10 132.999s-3.33301 89.666 -10 132.999s-19.667 81.833 -39 115.5s-46.666 60.834 -81.999 81.501s-82 31 -140 31s-104.667 -10.333 -140 -31
s-62.666 -47.834 -81.999 -81.501s-32.333 -72.167 -39 -115.5s-10 -87.666 -10 -132.999s3.33301 -89.666 10 -132.999s19.667 -81.833 39 -115.5s46.666 -60.834 81.999 -81.501s82 -31 140 -31zM306 114c-21.333 0 -38 7 -50 21s-21 32.333 -27 55
s-9.83301 47.834 -11.5 75.501s-2.5 55.5 -2.5 83.5s0.833008 55.833 2.5 83.5s5.5 52.834 11.5 75.501s15 41 27 55s28.667 21 50 21c20.667 0 37.167 -7 49.5 -21s21.5 -32.333 27.5 -55s9.83301 -47.834 11.5 -75.501s2.5 -55.5 2.5 -83.5s-0.833008 -55.833 -2.5 -83.5
s-5.5 -52.834 -11.5 -75.501s-15.167 -41 -27.5 -55s-28.833 -21 -49.5 -21z" />
    <glyph glyph-name="one" unicode="1" horiz-adv-x="612" 
d="M280 0h186v698h-164l-237 -154l83 -126l132 94v-512z" />
    <glyph glyph-name="two" unicode="2" horiz-adv-x="612" 
d="M42 0l504.997 -0.000976562v132h-276l50 43c16.667 14 37 32.833 61 56.5s47.333 50 70 79s42 60.167 58 93.5s24 67 24 101c0 34.667 -6.66699 64.834 -20 90.501s-31.833 47 -55.5 64s-52 29.667 -85 38s-68.833 12.5 -107.5 12.5
c-20.667 0 -47.834 -2.33301 -81.501 -7s-75.5 -16 -125.5 -34l7 -145c10.667 6 23.334 12 38.001 18s30.334 11.167 47.001 15.5s33.334 7.83301 50.001 10.5s32.667 4 48 4c28 0 51.5 -6.83301 70.5 -20.5s28.5 -36.167 28.5 -67.5c0 -23.333 -9.33301 -49 -28 -77
s-42.667 -57.167 -72 -87.5s-62.166 -61.333 -98.499 -93l-107.5 -93.5v-133z" />
    <glyph glyph-name="three" unicode="3" horiz-adv-x="612" 
d="M72 544c20 9.33301 44.1699 16.3301 72.5029 20.9971s58.166 7 89.499 7c14 0 28.167 -1 42.5 -3s27.166 -6 38.499 -12s20.666 -14.167 27.999 -24.5s11 -23.833 11 -40.5c0 -14 -4 -26 -12 -36s-17.667 -18 -29 -24s-23.666 -10.333 -36.999 -13s-25.333 -4 -36 -4h-38
c-12 0 -26 0.666992 -42 2v-124c11.333 0.666992 23.333 1.16699 36 1.5s26.667 0.5 42 0.5c10.667 0 23.334 -0.833008 38.001 -2.5s28.667 -5.16699 42 -10.5s24.5 -13.333 33.5 -24s13.5 -25 13.5 -43s-4.83301 -32.833 -14.5 -44.5s-21.5 -20.667 -35.5 -27
s-29.167 -10.833 -45.5 -13.5s-31.5 -4 -45.5 -4c-33.333 0 -64.833 2.16699 -94.5 6.5s-55.834 13.166 -78.501 26.499l-9 -147c25.333 -9.33301 55.833 -15.666 91.5 -18.999s73.167 -5 112.5 -5c34 0 69 3.16699 105 9.5s68.833 17.833 98.5 34.5s54 38.834 73 66.501
s28.5 63.167 28.5 106.5c0 44 -12.667 79.333 -38 106s-59 44.334 -101 53.001v2c38.667 10.667 69.667 28.834 93 54.501s35 58.5 35 98.5c0 38 -8.16699 69.333 -24.5 94s-37.5 44.167 -63.5 58.5s-55.333 24.333 -88 30s-65.334 8.5 -98.001 8.5
c-38.667 0 -74.167 -2.5 -106.5 -7.5s-64.5 -12.167 -96.5 -21.5z" />
    <glyph glyph-name="four" unicode="4" horiz-adv-x="612" 
d="M320 0h174v133h99v126h-99v439h-206l-280 -417v-148h312v-133zM332 259h-192l190 295h2v-295z" />
    <glyph glyph-name="five" unicode="5" horiz-adv-x="612" 
d="M75 323c25.333 6.66699 50.6631 11.166 75.9961 13.499s50.666 3.5 75.999 3.5c18.667 0 37.167 -1.66699 55.5 -5s34.833 -9 49.5 -17s26.667 -18.5 36 -31.5s14 -29.167 14 -48.5c0 -22 -4.16699 -40.333 -12.5 -55s-19.166 -26.167 -32.499 -34.5
s-28.5 -14.166 -45.5 -17.499s-33.833 -5 -50.5 -5c-30 0 -59.167 3 -87.5 9s-55.833 15.667 -82.5 29l-3 -151c28.667 -7.33301 58.334 -13.333 89.001 -18s63.334 -7 98.001 -7c38.667 0 76.5 4.16699 113.5 12.5s69.833 22.5 98.5 42.5s51.667 46.333 69 79
s26 73.334 26 122.001c0 38.667 -7.33301 71.667 -22 99s-34.167 49.666 -58.5 66.999s-52.666 30 -84.999 38s-66.166 12 -101.499 12c-6 0 -13.333 -0.333008 -22 -1s-19.667 -1.66699 -33 -3v116h295v126h-455z" />
    <glyph glyph-name="six" unicode="6" horiz-adv-x="612" 
d="M530 678c-26.667 10.667 -54.5 18.666 -83.5 23.999s-61.5 8 -97.5 8c-58 0 -106.667 -10.333 -146 -31s-71 -48.834 -95 -84.501s-41.167 -77.167 -51.5 -124.5s-15.5 -97.666 -15.5 -150.999c0 -44 4.66699 -85.833 14 -125.5s24.5 -74.834 45.5 -105.501
s48.5 -55 82.5 -73s76 -27 126 -27c38.667 0 74 6.16699 106 18.5s59.5 29.333 82.5 51s41 46.834 54 75.501s19.5 59 19.5 91c0 31.333 -4.83301 60.333 -14.5 87s-23.667 49.834 -42 69.501s-40.333 35.167 -66 46.5s-54.5 17 -86.5 17c-35.333 0 -65.166 -6 -89.499 -18
s-44.833 -29.667 -61.5 -53h-2c0 30.667 2.83301 58.667 8.5 84s14.667 47 27 65s28.833 31.833 49.5 41.5s46.667 14.5 78 14.5c34 0 63.167 -3.66699 87.5 -11s44.166 -16 59.499 -26zM217 214.999c0 13.333 1.83301 26.1641 5.5 38.4971s9.33398 23.333 17.001 33
s17.167 17.334 28.5 23.001s24.666 8.5 39.999 8.5c16 0 29.667 -3 41 -9s20.5 -14.167 27.5 -24.5s12.167 -22.166 15.5 -35.499s5 -27.333 5 -42c0 -27.333 -7.5 -50.666 -22.5 -69.999s-37.167 -29 -66.5 -29c-30 0 -52.667 10.667 -68 32s-23 46.333 -23 75z" />
    <glyph glyph-name="seven" unicode="7" horiz-adv-x="612" 
d="M102 0h200l250 547v151h-502v-132h312z" />
    <glyph glyph-name="eight" unicode="8" horiz-adv-x="612" 
d="M51 509c0 -17.333 3.1709 -33.8359 9.50391 -49.5029s15 -30 26 -43s23.833 -24.333 38.5 -34s30 -17.167 46 -22.5v-1c-18.667 -5.33301 -36.334 -12.5 -53.001 -21.5s-31.334 -20.5 -44.001 -34.5s-22.667 -30.5 -30 -49.5s-11 -41.167 -11 -66.5
c0 -36 7.16699 -66.5 21.5 -91.5s33.833 -45.5 58.5 -61.5s53.5 -27.667 86.5 -35s68.167 -11 105.5 -11c36.667 0 71.5 3.83301 104.5 11.5s62 19.834 87 36.501s45 38.334 60 65.001s22.5 58.667 22.5 96c0 26 -3.83301 48.5 -11.5 67.5s-17.834 35.333 -30.501 49
s-27.667 24.834 -45 33.501s-35.333 16 -54 22v2c15.333 6 30 13.667 44 23s26.167 20.5 36.5 33.5s18.666 28.167 24.999 45.5s9.5 36.666 9.5 57.999c0 30.667 -6 57.334 -18 80.001s-28.667 41.334 -50 56.001s-46.666 25.5 -75.999 32.5s-61.333 10.5 -96 10.5
s-67.834 -3.5 -99.501 -10.5s-59.5 -18.333 -83.5 -34s-43.167 -36.334 -57.5 -62.001s-21.5 -57.167 -21.5 -94.5zM399.004 203.997c0 -28.667 -9.33203 -50.835 -27.999 -66.502s-41.334 -23.5 -68.001 -23.5c-24.667 0 -45.834 8.16699 -63.501 24.5
s-26.5 37.166 -26.5 62.499c0 27.333 7.83301 48.833 23.5 64.5s34.834 28.834 57.501 39.501c12 -3.33301 24.167 -7.66602 36.5 -12.999s23.5 -11.833 33.5 -19.5s18.333 -17.167 25 -28.5s10 -24.666 10 -39.999zM219.005 507.996c0 24 7.99902 43.668 23.999 59.001
s35.333 23 58 23c10 0 20 -1.5 30 -4.5s19 -7.5 27 -13.5s14.5 -13.667 19.5 -23s7.5 -20.333 7.5 -33c0 -23.333 -7 -42.333 -21 -57s-33.333 -29 -58 -43c-10.667 4.66699 -21.167 9.66699 -31.5 15s-19.666 11.5 -27.999 18.5s-15 15.167 -20 24.5
s-7.5 20.666 -7.5 33.999z" />
    <glyph glyph-name="nine" unicode="9" horiz-adv-x="612" 
d="M82 20c26.667 -10.667 54.5 -18.666 83.5 -23.999s61.5 -8 97.5 -8c58 0 106.667 10.333 146 31s71 48.667 95 84s41.167 76.833 51.5 124.5s15.5 98.167 15.5 151.5c0 44 -4.66699 85.833 -14 125.5s-24.5 74.834 -45.5 105.501s-48.5 55 -82.5 73s-76 27 -126 27
c-38.667 0 -74 -6.16699 -106 -18.5s-59.5 -29.333 -82.5 -51s-41 -46.834 -54 -75.501s-19.5 -59 -19.5 -91c0 -31.333 4.83301 -60.333 14.5 -87s23.667 -49.834 42 -69.501s40.333 -35.167 66 -46.5s54.5 -17 86.5 -17c35.333 0 65.166 6 89.499 18
s44.833 29.667 61.5 53h2c0 -30.667 -2.83301 -58.667 -8.5 -84s-14.667 -47 -27 -65s-29 -31.833 -50 -41.5s-46.833 -14.5 -77.5 -14.5c-34 0 -63.167 3.66699 -87.5 11s-44.166 16 -59.499 26zM395 483.001c0 -13.333 -1.83301 -26.3311 -5.5 -38.998
s-9.33398 -23.667 -17.001 -33s-17.167 -16.833 -28.5 -22.5s-24.666 -8.5 -39.999 -8.5c-16 0 -29.667 3 -41 9s-20.5 14.167 -27.5 24.5s-12.167 22.166 -15.5 35.499s-5 27.333 -5 42c0 27.333 7.5 50.666 22.5 69.999s37.167 29 66.5 29c30 0 52.667 -10.667 68 -32
s23 -46.333 23 -75z" />
    <glyph glyph-name="colon" unicode=":" horiz-adv-x="306" 
d="M69 359h168v162h-168v-162zM69 0h168v162h-168v-162z" />
    <glyph glyph-name="semicolon" unicode=";" horiz-adv-x="306" 
d="M2 -109h137l98 271h-168zM69 359h168v162h-168v-162z" />
    <glyph glyph-name="semicolon" unicode="&#x37e;" horiz-adv-x="306" 
d="M2 -109h137l98 271h-168zM69 359h168v162h-168v-162z" />
    <glyph glyph-name="less" unicode="&#x3c;" horiz-adv-x="600" 
d="M553 514l-506 -208v-106l506 -208v122l-341 139l341 139v122z" />
    <glyph glyph-name="equal" unicode="=" horiz-adv-x="600" 
d="M47 305h506v126h-506v-126zM47 75h506v126h-506v-126z" />
    <glyph glyph-name="greater" unicode="&#x3e;" horiz-adv-x="600" 
d="M47 -8l506 208v106l-506 208v-122l341 -139l-341 -139v-122z" />
    <glyph glyph-name="question" unicode="?" horiz-adv-x="556" 
d="M69 541c48.667 24.667 100.998 37.002 156.998 37.002c12 0 24.5 -1.33301 37.5 -4s24.833 -7 35.5 -13s19.5 -13.5 26.5 -22.5s10.5 -19.833 10.5 -32.5c0 -22 -6.66699 -42.5 -20 -61.5s-28.166 -38.5 -44.499 -58.5s-31.166 -41.833 -44.499 -65.5
s-20 -51.5 -20 -83.5h146c2 22 7.33301 41.667 16 59s19 33.666 31 48.999s24.833 29.833 38.5 43.5s26.167 28.167 37.5 43.5s20.833 31.833 28.5 49.5s11.5 37.834 11.5 60.501c0 31.333 -7.33301 57.666 -22 78.999s-33.667 38.666 -57 51.999s-49.333 22.833 -78 28.5
s-56.667 8.5 -84 8.5c-36 0 -71.5 -2.16699 -106.5 -6.5s-69.5 -11.833 -103.5 -22.5zM195.998 0.00195312h168v162h-168v-162z" />
    <glyph glyph-name="at" unicode="@" horiz-adv-x="800" 
d="M392 235c-28 0 -49.002 9.16699 -63.002 27.5s-21 41.166 -21 68.499c0 13.333 2.16699 26.333 6.5 39s10.5 24 18.5 34s17.833 18 29.5 24s24.834 9 39.501 9c25.333 0 45.5 -8.66699 60.5 -26s22.5 -39.666 22.5 -66.999c0 -32 -8.16699 -58.167 -24.5 -78.5
s-39.166 -30.5 -68.499 -30.5zM612.998 137c-21.333 -15.333 -47.999 -28.0039 -79.999 -38.0039s-69 -15 -111 -15c-40 0 -76.667 5.66699 -110 17s-62 28.166 -86 50.499s-42.5 49.833 -55.5 82.5s-19.5 70.334 -19.5 113.001c0 38.667 6.16699 74.334 18.5 107.001
s29.666 60.834 51.999 84.501s49.5 42.167 81.5 55.5s67.667 20 107 20c89.333 0 154.666 -19.833 195.999 -59.5s61.666 -95.5 60.999 -167.5c0 -26 -2.83301 -48.333 -8.5 -67s-12.5 -33.834 -20.5 -45.501s-17 -20.334 -27 -26.001s-19.667 -8.5 -29 -8.5
c-5.33301 0 -8.83301 1.83301 -10.5 5.5s-2.5 8.16699 -2.5 13.5s1 12.5 3 21.5s4.33301 20.167 7 33.5l34 209h-94l-9 -47c-14.667 20 -32.167 34.5 -52.5 43.5s-42.833 13.5 -67.5 13.5c-28.667 0 -54.667 -5.66699 -78 -17s-43.333 -26.166 -60 -44.499
s-29.5 -39.666 -38.5 -63.999s-13.5 -49.5 -13.5 -75.5c0 -28 4.16699 -53.833 12.5 -77.5s19.5 -44 33.5 -61s30.333 -30.333 49 -40s38.334 -14.5 59.001 -14.5c20 0 38.833 4.83301 56.5 14.5s32.5 21.167 44.5 34.5h2c0.666992 -16.667 6 -29 16 -37s21.667 -12 35 -12
c9.33301 0 22.166 1.83301 38.499 5.5s33.833 9.66699 52.5 18s37.834 19.333 57.501 33s37.334 30.834 53.001 51.501s28.5 45.167 38.5 73.5s15 60.833 15 97.5c0 44.667 -9.33301 85 -28 121s-43.667 66.667 -75 92s-68 44.833 -110 58.5s-86 20.5 -132 20.5
c-55.333 0 -106.333 -9.16699 -153 -27.5s-86.834 -43.666 -120.501 -75.999s-60 -70.5 -79 -114.5s-28.5 -91.667 -28.5 -143c0 -52.667 9.83301 -101 29.5 -145s46.834 -82 81.501 -114s75.667 -57 123 -75s98.333 -27 153 -27c60.667 0 115.5 12.667 164.5 38
s91.167 62.333 126.5 111h-102z" />
    <glyph glyph-name="A" unicode="A" horiz-adv-x="778" 
d="M8 0h189l55 149h262l52 -149h204l-269 698h-228zM470 281h-175l90 273h2z" />
    <glyph glyph-name="B" unicode="B" horiz-adv-x="667" 
d="M60 0l294.002 0.00292969c31.333 0 63.166 2.66699 95.499 8s61.5 15.5 87.5 30.5s47.333 35.5 64 61.5s25 60 25 102c0 83.333 -47 134.666 -141 153.999v2c39.333 13.333 69.666 32.833 90.999 58.5s32 60.5 32 104.5c0 30 -5.66699 56.167 -17 78.5
s-27.166 40.666 -47.499 54.999s-44.333 25.166 -72 32.499s-57.834 11 -90.501 11h-321v-698zM246.002 296.003l57.001 0.000976562c16 0 32.167 -0.833008 48.5 -2.5s31 -5.16699 44 -10.5s23.667 -13.666 32 -24.999s12.5 -26.333 12.5 -45c0 -18 -4 -32.333 -12 -43
s-18.667 -18.834 -32 -24.501s-28.333 -9.33398 -45 -11.001s-33.334 -2.5 -50.001 -2.5h-55v164zM246.003 566.004h54.001c15.333 0 30.333 -0.666992 45 -2s27.667 -4.33301 39 -9s20.5 -11.667 27.5 -21s10.5 -22 10.5 -38c0 -14.667 -3.66699 -26.834 -11 -36.501
s-16.833 -17.167 -28.5 -22.5s-24.834 -9.16602 -39.501 -11.499s-29.667 -3.5 -45 -3.5h-52v144z" />
    <glyph glyph-name="C" unicode="C" horiz-adv-x="667" 
d="M638 162c-25.333 -10 -53 -18.5 -83 -25.5s-60.333 -10.5 -91 -10.5c-34 0 -65.333 5 -94 15s-53.167 24.5 -73.5 43.5s-36.333 42.167 -48 69.5s-17.5 58 -17.5 92c0 32.667 5.16699 62.834 15.5 90.501s25 51.5 44 71.5s41.833 35.667 68.5 47s56.667 17 90 17
c32 0 62.833 -4 92.5 -12s59.5 -20.333 89.5 -37l15 151c-34 10 -68 18.5 -102 25.5s-69 10.5 -105 10.5c-57.333 0 -110.5 -7.5 -159.5 -22.5s-91.333 -37.667 -127 -68s-63.5 -68.333 -83.5 -114s-30 -98.834 -30 -159.501c0 -66 12.167 -121.833 36.5 -167.5
s55.666 -82.5 93.999 -110.5s81.333 -48.333 129 -61s94.834 -19 141.501 -19c47.333 0 87 3 119 9s61.333 12.333 88 19z" />
    <glyph glyph-name="D" unicode="D" horiz-adv-x="778" 
d="M65 0l253.998 -0.000976562c59.333 0 114.333 6.16699 165 18.5s94.334 32.333 131.001 60s65.334 63.834 86.001 108.501s31 99.667 31 165c0 67.333 -10.167 123.333 -30.5 168s-48.666 80.167 -84.999 106.5s-79.833 44.833 -130.5 55.5s-106.334 16 -167.001 16h-254
v-698zM250.998 559.999h72c68.667 0 122 -17.667 160 -53s57 -88 57 -158s-18.667 -122.667 -56 -158s-91 -53 -161 -53h-72v422z" />
    <glyph glyph-name="E" unicode="E" 
d="M60 0h503v132h-317v158h289v132h-289v144h306v132h-492v-698z" />
    <glyph glyph-name="F" unicode="F" horiz-adv-x="556" 
d="M60 0h186v281h269v132h-269v153h281v132h-467v-698z" />
    <glyph glyph-name="G" unicode="G" horiz-adv-x="778" 
d="M710 408l-288.999 -0.00195312v-132h109v-138c-17.333 -8 -39.333 -12 -66 -12c-34 0 -65.333 5 -94 15s-53.167 24.5 -73.5 43.5s-36.333 42.167 -48 69.5s-17.5 58 -17.5 92c0 40.667 7.16699 75.334 21.5 104.001s34 52 59 70s54.167 31.167 87.5 39.5
s69 12.5 107 12.5c22 0 48.5 -3.16699 79.5 -9.5s61.167 -18.166 90.5 -35.499l15 152c-17.333 6.66699 -35.833 12 -55.5 16s-39.167 7.16699 -58.5 9.5s-37.5 3.83301 -54.5 4.5s-31.167 1 -42.5 1c-64 0 -123 -6.66699 -177 -20s-100.5 -34.5 -139.5 -63.5
s-69.5 -66.5 -91.5 -112.5s-33 -102 -33 -168s12.167 -121.833 36.5 -167.5s55.666 -82.5 93.999 -110.5s81.333 -48.333 129 -61s94.834 -19 141.501 -19c32 0 70.167 1.5 114.5 4.5s96.166 12.167 155.499 27.5v388z" />
    <glyph glyph-name="H" unicode="H" horiz-adv-x="722" 
d="M65 0h186v299h220v-299h186v698h-186v-267h-220v267h-186v-698z" />
    <glyph glyph-name="I" unicode="I" horiz-adv-x="334" 
d="M74 0h186v698h-186v-698z" />
    <glyph glyph-name="J" unicode="J" horiz-adv-x="444" 
d="M14 7c16 -4 34.002 -8.16602 54.002 -12.499s40.333 -6.5 61 -6.5c47.333 0 87 6.16699 119 18.5s57.667 29.666 77 51.999s33.166 49 41.499 80s12.5 65.167 12.5 102.5v457h-186v-401c0 -28.667 -2.33301 -52.667 -7 -72s-11.334 -35 -20.001 -47
s-18.667 -20.667 -30 -26s-24 -8 -38 -8c-32 0 -60 5.66699 -84 17v-154z" />
    <glyph glyph-name="K" unicode="K" horiz-adv-x="722" 
d="M65 0h186v317h2l217 -317h237l-278 373l258 325h-224l-210 -285h-2v285h-186v-698z" />
    <glyph glyph-name="L" unicode="L" horiz-adv-x="556" 
d="M65 0h474v138h-288v560h-186v-698z" />
    <glyph glyph-name="M" unicode="M" horiz-adv-x="1000" 
d="M60 0h182l-4 536h2l170 -536h171l178 536h2l-3 -536h182v698h-282l-155 -464h-2l-148 464h-293v-698z" />
    <glyph glyph-name="N" unicode="N" horiz-adv-x="778" 
d="M68 0h171l-6 477h2l244 -477h231v698h-170l3 -474h-2l-236 474h-237v-698z" />
    <glyph glyph-name="O" unicode="O" horiz-adv-x="778" 
d="M39 349c0 -55.333 7.49902 -105.333 22.499 -150s37.333 -82.667 67 -114s66.167 -55.333 109.5 -72s93.666 -25 150.999 -25c56.667 0 106.834 8.33301 150.501 25s80.334 40.667 110.001 72s52 69.333 67 114s22.5 94.667 22.5 150c0 56 -7.5 106.333 -22.5 151
s-37.167 82.5 -66.5 113.5s-65.833 54.833 -109.5 71.5s-94.167 25 -151.5 25s-107.833 -8.33301 -151.5 -25s-80.167 -40.5 -109.5 -71.5s-51.5 -68.833 -66.5 -113.5s-22.5 -95 -22.5 -151zM230.999 349c0 30 3 58.5 9 85.5s15.333 50.667 28 71s29 36.5 49 48.5
s44 18 72 18s52 -6 72 -18s36.333 -28.167 49 -48.5s22 -44 28 -71s9 -55.5 9 -85.5c0 -28.667 -3 -56.5 -9 -83.5s-15.333 -50.833 -28 -71.5s-29 -37.167 -49 -49.5s-44 -18.5 -72 -18.5s-52 6.16699 -72 18.5s-36.333 28.833 -49 49.5s-22 44.5 -28 71.5
s-9 54.833 -9 83.5z" />
    <glyph glyph-name="P" unicode="P" 
d="M55 0l186 -0.000976562v244h72c87.333 0 155.333 19.833 204 59.5s73 94.834 73 165.501c0 78.667 -25.333 136.5 -76 173.5s-129.667 55.5 -237 55.5h-222v-698zM241 565.999h48c16 0 31 -1.5 45 -4.5s26.167 -8.16699 36.5 -15.5s18.5 -17 24.5 -29s9 -27 9 -45
s-3 -33.167 -9 -45.5s-14.167 -22.333 -24.5 -30s-22.5 -13 -36.5 -16s-29 -4.5 -45 -4.5h-48v190z" />
    <glyph glyph-name="Q" unicode="Q" horiz-adv-x="778" 
d="M231 349c0 30 3 58.5 9 85.5s15.333 50.667 28 71s29 36.5 49 48.5s44 18 72 18s52 -6 72 -18s36.333 -28.167 49 -48.5s22 -44 28 -71s9 -55.5 9 -85.5c0 -28.667 -3 -56.5 -9 -83.5s-15.333 -50.833 -28 -71.5s-29 -37.167 -49 -49.5s-44 -18.5 -72 -18.5
s-52 6.16699 -72 18.5s-36.333 28.833 -49 49.5s-22 44.5 -28 71.5s-9 54.833 -9 83.5zM516 -132h210.001l-165 155c58.667 26.667 103 68 133 124s45 123.333 45 202c0 56 -7.5 106.333 -22.5 151s-37.167 82.5 -66.5 113.5s-65.833 54.833 -109.5 71.5
s-94.167 25 -151.5 25s-107.833 -8.33301 -151.5 -25s-80.167 -40.5 -109.5 -71.5s-51.5 -68.833 -66.5 -113.5s-22.5 -95 -22.5 -151c0 -55.333 7.5 -105.333 22.5 -150s37.333 -82.667 67 -114s66.167 -55.333 109.5 -72s93.666 -25 150.999 -25h10z" />
    <glyph glyph-name="R" unicode="R" horiz-adv-x="667" 
d="M60 0l186.005 -0.00195312v276h39c17.333 0 32.166 -2.16699 44.499 -6.5s23.333 -12.166 33 -23.499s18.667 -26.666 27 -45.999s17.166 -44 26.499 -74l40 -126h194l-68 190c-8.66699 21.333 -15.834 40.5 -21.501 57.5s-11.834 32 -18.501 45s-14.5 23.833 -23.5 32.5
s-20.833 15 -35.5 19v2c45.333 10.667 79 31 101 61s33 68.333 33 115c0 30 -5.83301 56 -17.5 78s-27.834 40.333 -48.501 55s-44.667 25.5 -72 32.5s-56.333 10.5 -87 10.5h-332v-698zM246.005 565.998l49.001 -0.000976562c18 0 35.167 -1 51.5 -3
s30.666 -5.66699 42.999 -11s22.333 -13.166 30 -23.499s11.5 -23.5 11.5 -39.5c0 -20 -4.33301 -35.333 -13 -46s-19.5 -18.667 -32.5 -24s-27.667 -8.5 -44 -9.5s-31.833 -1.5 -46.5 -1.5h-49v158z" />
    <glyph glyph-name="S" unicode="S" 
d="M51 18c31.333 -10 65.666 -17.501 102.999 -22.501s72.333 -7.5 105 -7.5c38.667 0 76.5 3.5 113.5 10.5s69.833 19.167 98.5 36.5s51.667 40.833 69 70.5s26 67.167 26 112.5c0 42 -8.16699 75.667 -24.5 101s-36.666 45.666 -60.999 60.999s-50.833 27 -79.5 35
l-79.5 23c-24.333 7.33301 -44.666 16 -60.999 26s-24.5 24.333 -24.5 43c0 15.333 4.33301 27.333 13 36s19.334 15.167 32.001 19.5s26.167 7 40.5 8s27.5 1.5 39.5 1.5c26.667 0 53.167 -2.5 79.5 -7.5s51.5 -13.167 75.5 -24.5l12 144
c-23.333 8 -50.666 14.333 -81.999 19s-64 7 -98 7c-35.333 0 -71 -3.33301 -107 -10s-68.5 -18 -97.5 -34s-52.833 -37.833 -71.5 -65.5s-28 -62.5 -28 -104.5c0 -42.667 8.16699 -76.667 24.5 -102s36.666 -45.5 60.999 -60.5s50.833 -26.667 79.5 -35
s55.167 -16.666 79.5 -24.999s44.666 -18.166 60.999 -29.499s24.5 -28 24.5 -50c0 -14 -3.16699 -25.5 -9.5 -34.5s-14.833 -16 -25.5 -21s-23 -8.33301 -37 -10s-28.333 -2.5 -43 -2.5c-38.667 0 -74.334 4.33301 -107.001 13s-61 19.667 -85 33z" />
    <glyph glyph-name="T" unicode="T" horiz-adv-x="556" 
d="M185 0h186v560h172v138h-530v-138h172v-560z" />
    <glyph glyph-name="U" unicode="U" horiz-adv-x="722" 
d="M667 698h-186v-402c0 -23.333 -1.83301 -45.166 -5.5 -65.499s-10 -38.333 -19 -54s-21.167 -28 -36.5 -37s-35 -13.5 -59 -13.5s-43.667 4.5 -59 13.5s-27.5 21.333 -36.5 37s-15.333 33.667 -19 54s-5.5 42.166 -5.5 65.499v402h-186v-433
c0 -48 7.33301 -89.333 22 -124s35.5 -63.334 62.5 -86.001s59.333 -39.5 97 -50.5s79.167 -16.5 124.5 -16.5s86.833 5.5 124.5 16.5s70 27.833 97 50.5s47.833 51.334 62.5 86.001s22 76 22 124v433z" />
    <glyph glyph-name="V" unicode="V" horiz-adv-x="722" 
d="M244 0h230l238 698h-191l-156 -548h-2l-155 548h-198z" />
    <glyph glyph-name="W" unicode="W" horiz-adv-x="1000" 
d="M163 0h241l92 536h2l99 -536h239l156 698h-181l-91 -536h-2l-98 536h-236l-94 -536h-2l-90 536h-190z" />
    <glyph glyph-name="X" unicode="X" horiz-adv-x="722" 
d="M10 0h211l134 257l135 -257h222l-224 367l204 331h-204l-120 -230l-117 230h-217l202 -331z" />
    <glyph glyph-name="Y" unicode="Y" horiz-adv-x="722" 
d="M269 0h186v263l256 435h-214l-135 -280l-137 280h-214l258 -435v-263z" />
    <glyph glyph-name="Z" unicode="Z" 
d="M570 698h-535v-138h323l-332 -412v-148h546v138h-344l342 412v148z" />
    <glyph glyph-name="bracketleft" unicode="[" horiz-adv-x="389" 
d="M352 756h-264v-896h264v114h-114v668h114v114z" />
    <glyph glyph-name="backslash" unicode="\" horiz-adv-x="278" 
d="M173 -12h126l-194 722h-126z" />
    <glyph glyph-name="bracketright" unicode="]" horiz-adv-x="389" 
d="M37 -140h264v896h-264v-114h114v-668h-114v-114z" />
    <glyph glyph-name="asciicircum" unicode="^" horiz-adv-x="600" 
d="M70 333h122l108 227l108 -227h122l-174 365h-112z" />
    <glyph glyph-name="underscore" unicode="_" horiz-adv-x="500" 
d="M0 -125h500v50h-500v-50z" />
    <glyph glyph-name="grave" unicode="`" horiz-adv-x="333" 
d="M246 600l-68 144h-187l129 -144h126z" />
    <glyph glyph-name="a" unicode="a" 
d="M562 0c-4 20.667 -6.66699 41.167 -8 61.5s-2 40.833 -2 61.5v194c0 40 -6.66699 73.667 -20 101s-31.333 49.5 -54 66.5s-49 29.333 -79 37s-61.667 11.5 -95 11.5c-38.667 0 -75 -2.83301 -109 -8.5s-67 -15.167 -99 -28.5l3 -122c25.333 14 52 24 80 30s56.667 9 86 9
c16 0 31.167 -1.33301 45.5 -4s27 -7.5 38 -14.5s19.667 -16.167 26 -27.5s9.5 -26 9.5 -44c-11.333 2 -24.5 3.66699 -39.5 5s-29.833 2 -44.5 2c-24 0 -51.5 -1.83301 -82.5 -5.5s-60.333 -11.667 -88 -24s-51 -30.166 -70 -53.499s-28.5 -55 -28.5 -95
c0 -28 5.33301 -52.333 16 -73s25 -37.834 43 -51.501s38.667 -23.667 62 -30s48 -9.5 74 -9.5c37.333 0 69 7.5 95 22.5s49.333 38.833 70 71.5h2c0 -13.333 0.5 -26.833 1.5 -40.5s1.83301 -27.5 2.5 -41.5h165zM199 165c0 25.333 10.499 43.1689 31.499 53.502
s46.833 15.5 77.5 15.5c13.333 0 26.5 -0.333008 39.5 -1s25.167 -1.33398 36.5 -2.00098c0 -15.333 -2.66699 -30.333 -8 -45s-12.666 -27.834 -21.999 -39.501s-21 -21 -35 -28s-29.333 -10.5 -46 -10.5c-21.333 0 -39 5 -53 15s-21 24 -21 42z" />
    <glyph glyph-name="b" unicode="b" horiz-adv-x="668" 
d="M52 0l165.999 0.00292969v93h2c6 -14.667 14.667 -28.334 26 -41.001s25 -23.834 41 -33.501s33.5 -17.167 52.5 -22.5s38.833 -8 59.5 -8c38.667 0 72.834 7.5 102.501 22.5s54.5 35.333 74.5 61s35.167 55.5 45.5 89.5s15.5 70.333 15.5 109
c0 31.333 -4.83301 62.666 -14.5 93.999s-24 59.5 -43 84.5s-42.333 45.333 -70 61s-59.5 23.5 -95.5 23.5s-69 -5.83301 -99 -17.5s-56.667 -32.167 -80 -61.5h-2v296h-181v-750zM450.999 266.003c0 -42 -9.66797 -75.832 -29.001 -101.499s-46 -38.5 -80 -38.5
c-15.333 0 -29.666 3.33301 -42.999 10s-25 16 -35 28s-17.833 26 -23.5 42s-8.5 33.667 -8.5 53c0 39.333 10 71.833 30 97.5s46.667 38.5 80 38.5c17.333 0 32.833 -3.5 46.5 -10.5s25.167 -16.333 34.5 -28s16.333 -25.334 21 -41.001s7 -32.167 7 -49.5z" />
    <glyph glyph-name="c" unicode="c" horiz-adv-x="500" 
d="M477 504c-20.667 10 -42.834 17.3311 -66.501 21.998s-49.167 7 -76.5 7c-43.333 0 -83.333 -6.16699 -120 -18.5s-68.667 -30.166 -96 -53.499s-48.666 -51.833 -63.999 -85.5s-23 -72.167 -23 -115.5s7.66699 -81.833 23 -115.5s36.666 -62 63.999 -85
s59.333 -40.667 96 -53s76.667 -18.5 120 -18.5c24 0 48.833 2 74.5 6s49.834 9.66699 72.501 17l-4 134c-15.333 -8 -32.666 -14.167 -51.999 -18.5s-39.333 -6.5 -60 -6.5c-19.333 0 -38 3.16699 -56 9.5s-33.833 15.5 -47.5 27.5s-24.5 26.5 -32.5 43.5
s-12 35.833 -12 56.5c0 22.667 3.5 42.834 10.5 60.501s16.667 32.667 29 45s27 21.833 44 28.5s35.167 10 54.5 10c21.333 0 40.666 -2.33301 57.999 -7s34.333 -12 51 -22z" />
    <glyph glyph-name="d" unicode="d" horiz-adv-x="668" 
d="M616 750l-181.001 -0.00195312v-296h-2c-23.333 30 -50 50.667 -80 62s-63 17 -99 17s-67.833 -7.66699 -95.5 -23s-51 -35.5 -70 -60.5s-33.333 -53.167 -43 -84.5s-14.5 -63 -14.5 -95c0 -38.667 5.16699 -75 15.5 -109s25.5 -63.833 45.5 -89.5s44.833 -46 74.5 -61
s63.834 -22.5 102.501 -22.5c20.667 0 40.5 2.66699 59.5 8s36.5 12.833 52.5 22.5s29.667 20.834 41 33.501s20 26.334 26 41.001h2v-93h166v750zM216.999 265.998c0 17.333 2.33301 33.832 7 49.499s11.667 29.334 21 41.001s20.833 21 34.5 28s29.167 10.5 46.5 10.5
c33.333 0 60 -12.667 80 -38s30 -58 30 -98c0 -19.333 -3 -37 -9 -53s-14 -30 -24 -42s-21.667 -21.333 -35 -28s-27.333 -10 -42 -10c-34 0 -60.667 12.833 -80 38.5s-29 59.5 -29 101.5z" />
    <glyph glyph-name="e" unicode="e" 
d="M573 208l0.000976562 33c0 38.667 -4.66699 75.667 -14 111s-24.333 66.333 -45 93s-47.834 48 -81.501 64s-74.5 24 -122.5 24c-40.667 0 -78 -6.16699 -112 -18.5s-63.333 -30 -88 -53s-44 -51.5 -58 -85.5s-21 -72.333 -21 -115c0 -43.333 7.66699 -81.833 23 -115.5
s36.666 -62.167 63.999 -85.5s59.333 -41.166 96 -53.499s76.667 -18.5 120 -18.5c34 0 67 2.66699 99 8s62.667 13.666 92 24.999v127c-27.333 -14.667 -54.5 -25 -81.5 -31s-52.833 -9 -77.5 -9c-44 0 -79.167 7.66699 -105.5 23s-42.166 41 -47.499 77h360zM211.001 310
c2 30 11 55.667 27 77s40.333 32 73 32c36 0 61.667 -10.667 77 -32s23 -47 23 -77h-200z" />
    <glyph glyph-name="f" unicode="f" horiz-adv-x="444" 
d="M119 0h179.998v395h128v126h-128v32c0 25.333 4.83301 45.5 14.5 60.5s26.167 22.5 49.5 22.5c13.333 0 24.333 -0.666992 33 -2s16.667 -3.33301 24 -6l11 124c-11.333 2 -24.666 4.16699 -39.999 6.5s-32.666 3.5 -51.999 3.5c-36 0 -67.5 -3.66699 -94.5 -11
s-49.667 -19.166 -68 -35.499s-32 -37.833 -41 -64.5s-13.5 -59.334 -13.5 -98.001v-32h-109v-126h106v-395z" />
    <glyph glyph-name="g" unicode="g" horiz-adv-x="668" 
d="M608 521h-163.004v-94h-2c-19.333 32 -44 57.667 -74 77s-64.333 29 -103 29c-40.667 0 -75.667 -6.83301 -105 -20.5s-53.666 -32.667 -72.999 -57s-33.666 -53 -42.999 -86s-14 -68.833 -14 -107.5s5.33301 -74 16 -106s26 -59.5 46 -82.5s44.333 -41 73 -54
s61 -19.5 97 -19.5s68.833 7.16699 98.5 21.5s55.167 36.833 76.5 67.5h2v-28c0 -51.333 -13.667 -89.333 -41 -114s-67 -37 -119 -37c-37.333 0 -69.166 3.83301 -95.499 11.5s-53.166 18.167 -80.499 31.5l-9 -142c21.333 -7.33301 49 -14.666 83 -21.999
s72.667 -11 116 -11c52.667 0 98.667 4.66699 138 14s72 25 98 47s45.5 51.167 58.5 87.5s19.5 81.166 19.5 134.499v460zM216.996 265c0 18 2.16406 34.833 6.49707 50.5s10.833 29.334 19.5 41.001s19.334 21 32.001 28s27.334 10.5 44.001 10.5
c20 0 37.333 -3.66699 52 -11s26.667 -16.833 36 -28.5s16.166 -24.834 20.499 -39.501s6.5 -29.334 6.5 -44.001c0 -20 -3 -38.167 -9 -54.5s-14.167 -30.5 -24.5 -42.5s-22.5 -21.167 -36.5 -27.5s-29 -9.5 -45 -9.5c-13.333 0 -26.166 2.83301 -38.499 8.5
s-23.166 13.834 -32.499 24.501s-16.833 24 -22.5 40s-8.5 34 -8.5 54z" />
    <glyph glyph-name="h" unicode="h" horiz-adv-x="667" 
d="M56 0h179.999v220c0 56.667 9.33301 98 28 124s46.667 39 84 39c24.667 0 44.667 -9.66699 60 -29s23 -53.333 23 -102v-252h180v325c0 26.667 -3.66699 52.667 -11 78s-19 47.5 -35 66.5s-36.667 34.333 -62 46s-55.666 17.5 -90.999 17.5
c-39.333 0 -73.333 -8 -102 -24s-52.667 -37.667 -72 -65h-2v306h-180v-750z" />
    <glyph glyph-name="i" unicode="i" horiz-adv-x="334" 
d="M77 0h180v521h-180v-521zM257 738h-180v-132h180v132z" />
    <glyph glyph-name="j" unicode="j" horiz-adv-x="334" 
d="M-25 -213c16 -3.33301 32 -5.66699 48 -7s33.667 -2 53 -2c34.667 0 63.667 5.16699 87 15.5s42 25 56 44s23.833 41.833 29.5 68.5s8.5 56.334 8.5 89.001v526h-180v-521c0 -12.667 -0.5 -25 -1.5 -37s-3.5 -22.833 -7.5 -32.5s-10 -17.5 -18 -23.5s-19 -9 -33 -9
c-6 0 -12.167 0.166992 -18.5 0.5s-12.833 1.16602 -19.5 2.49902zM257 737.999h-180v-132h180v132z" />
    <glyph glyph-name="k" unicode="k" 
d="M56 0h180v258h2l144 -258h218l-196 282l181 239h-197l-150 -219h-2v448h-180v-750z" />
    <glyph glyph-name="l" unicode="l" horiz-adv-x="334" 
d="M77 0h180v750h-180v-750z" />
    <glyph glyph-name="m" unicode="m" horiz-adv-x="1000" 
d="M56 0l180 0.000976562v220c0 56.667 9 98 27 124s43 39 75 39c25.333 0 43.666 -9.66699 54.999 -29s17 -44 17 -74v-280h180v220c0 56.667 9 98 27 124s43 39 75 39c25.333 0 43.666 -9.66699 54.999 -29s17 -44 17 -74v-280h180v307c0 35.333 -2.5 67 -7.5 95
s-14.333 51.667 -28 71s-32.5 34.166 -56.5 44.499s-54.667 15.5 -92 15.5s-72.166 -7.83301 -104.499 -23.5s-59.166 -41.167 -80.499 -76.5c-14 34 -35.333 59.167 -64 75.5s-61.667 24.5 -99 24.5c-41.333 0 -78.833 -8.5 -112.5 -25.5s-59.5 -44.5 -77.5 -82.5h-2v96
h-164v-521z" />
    <glyph glyph-name="n" unicode="n" horiz-adv-x="667" 
d="M56 0h179.999v220c0 56.667 9.33301 98 28 124s46.667 39 84 39c24.667 0 44.667 -9.66699 60 -29s23 -53.333 23 -102v-252h180v325c0 26.667 -3.66699 52.667 -11 78s-19 47.5 -35 66.5s-36.667 34.333 -62 46s-55.666 17.5 -90.999 17.5
c-41.333 0 -78.833 -8.5 -112.5 -25.5s-59.5 -44.5 -77.5 -82.5h-2v96h-164v-521z" />
    <glyph glyph-name="o" unicode="o" horiz-adv-x="668" 
d="M334 -12c42.667 0 82.5 6.16699 119.5 18.5s69.167 30 96.5 53s48.666 51.333 63.999 85s23 72.167 23 115.5s-7.66699 81.833 -23 115.5s-36.666 62.167 -63.999 85.5s-59.5 41.166 -96.5 53.499s-76.833 18.5 -119.5 18.5c-43.333 0 -83.333 -6.16699 -120 -18.5
s-68.667 -30.166 -96 -53.499s-48.666 -51.833 -63.999 -85.5s-23 -72.167 -23 -115.5s7.66699 -81.833 23 -115.5s36.666 -62 63.999 -85s59.333 -40.667 96 -53s76.667 -18.5 120 -18.5zM334 114c-20.667 0 -38.334 4 -53.001 12s-26.834 18.667 -36.501 32
s-16.667 28.833 -21 46.5s-6.5 36.167 -6.5 55.5s2.16699 37.833 6.5 55.5s11.333 33.334 21 47.001s21.834 24.5 36.501 32.5s32.334 12 53.001 12s38.334 -4 53.001 -12s26.834 -18.833 36.501 -32.5s16.667 -29.334 21 -47.001s6.5 -36.167 6.5 -55.5
s-2.16699 -37.833 -6.5 -55.5s-11.333 -33.167 -21 -46.5s-21.834 -24 -36.501 -32s-32.334 -12 -53.001 -12z" />
    <glyph glyph-name="p" unicode="p" horiz-adv-x="668" 
d="M52 -210l180 0.000976562v283h2c17.333 -31.333 41.166 -53.333 71.499 -66s61.5 -19 93.5 -19c38.667 0 72.834 7.5 102.501 22.5s54.5 35.333 74.5 61s35.167 55.5 45.5 89.5s15.5 70.333 15.5 109c0 31.333 -4.83301 62.666 -14.5 93.999s-24 59.5 -43 84.5
s-42.333 45.333 -70 61s-59.5 23.5 -95.5 23.5c-41.333 0 -79.5 -8.5 -114.5 -25.5s-61.5 -43.833 -79.5 -80.5h-2v94h-166v-731zM451 266.001c0 -42 -9.66797 -75.832 -29.001 -101.499s-46 -38.5 -80 -38.5c-15.333 0 -29.666 3.33301 -42.999 10s-25 16 -35 28
s-17.833 26 -23.5 42s-8.5 33.667 -8.5 53c0 39.333 10 71.833 30 97.5s46.667 38.5 80 38.5c17.333 0 32.833 -3.5 46.5 -10.5s25.167 -16.333 34.5 -28s16.333 -25.334 21 -41.001s7 -32.167 7 -49.5z" />
    <glyph glyph-name="q" unicode="q" horiz-adv-x="668" 
d="M616 521h-166v-94h-2c-18 37.333 -44.5 64.333 -79.5 81s-73.167 25 -114.5 25c-36 0 -67.833 -7.66699 -95.5 -23s-51 -35.5 -70 -60.5s-33.333 -53.167 -43 -84.5s-14.5 -63 -14.5 -95c0 -38.667 5.16699 -75 15.5 -109s25.5 -63.833 45.5 -89.5s44.833 -46 74.5 -61
s63.834 -22.5 102.501 -22.5c32 0 63.167 6.33301 93.5 19s54.166 34.667 71.499 66h2v-283h180v731zM217 266c0 17.333 2.33301 33.832 7 49.499s11.667 29.334 21 41.001s20.833 21 34.5 28s29.167 10.5 46.5 10.5c33.333 0 60 -12.667 80 -38s30 -58 30 -98
c0 -19.333 -3 -37 -9 -53s-14 -30 -24 -42s-21.667 -21.333 -35 -28s-27.333 -10 -42 -10c-34 0 -60.667 12.833 -80 38.5s-29 59.5 -29 101.5z" />
    <glyph glyph-name="r" unicode="r" horiz-adv-x="444" 
d="M437 527c-9.33301 1.33301 -19.167 2.66504 -29.5 3.99805s-20.833 2 -31.5 2c-39.333 0 -71 -9.66699 -95 -29s-43.667 -45.666 -59 -78.999h-2v96h-164v-521h180v220c0 51.333 11.333 91.333 34 120s55 43 97 43c10.667 0 21 -0.166992 31 -0.5
s20 -2.16602 30 -5.49902z" />
    <glyph glyph-name="s" unicode="s" horiz-adv-x="500" 
d="M36 13c26.667 -8.66699 54.6631 -14.999 83.9961 -18.999s64.333 -6 105 -6c29.333 0 58.5 2.5 87.5 7.5s55 14 78 27s41.667 30.833 56 53.5s21.5 51.334 21.5 86.001c0 32.667 -6.66699 59 -20 79s-29.833 35.667 -49.5 47s-41.167 19.833 -64.5 25.5l-64.5 16
c-19.667 5 -36.167 10.833 -49.5 17.5s-20 16.667 -20 30c0 7.33301 2.5 13.333 7.5 18s11.5 8.33398 19.5 11.001s16.833 4.5 26.5 5.5s19.5 1.5 29.5 1.5c22.667 0 46.834 -3 72.501 -9s48.167 -14.667 67.5 -26l14 125c-29.333 11.333 -59.333 19.166 -90 23.499
s-61.667 6.5 -93 6.5c-26 0 -52.167 -3.16699 -78.5 -9.5s-50.166 -16.333 -71.499 -30s-38.666 -31.167 -51.999 -52.5s-20 -47 -20 -77c0 -31.333 6.33301 -56.333 19 -75s28.5 -33.5 47.5 -44.5s39.5 -19.333 61.5 -25l61.5 -16.5c19 -5.33301 34.833 -11.833 47.5 -19.5
s19 -18.834 19 -33.501c0 -18 -7.5 -29.5 -22.5 -34.5s-31.833 -7.5 -50.5 -7.5c-32.667 0 -63.667 3.66699 -93 11s-54.666 15.666 -75.999 24.999z" />
    <glyph glyph-name="t" unicode="t" horiz-adv-x="444" 
d="M10 395l103 0.000976562v-212c0 -31.333 2.83301 -59 8.5 -83s16 -44.333 31 -61s35.5 -29.334 61.5 -38.001s59 -13 99 -13c22.667 0 42.834 1.16699 60.501 3.5s35.167 4.5 52.5 6.5l-6 117c-9.33301 -1.33301 -18.5 -2.83301 -27.5 -4.5s-18.167 -2.5 -27.5 -2.5
c-28.667 0 -47.834 7.83301 -57.501 23.5s-14.5 39.5 -14.5 71.5v192h126v126h-126v172l-177 -55v-117h-106v-126z" />
    <glyph glyph-name="u" unicode="u" horiz-adv-x="667" 
d="M611 521h-180v-220c0 -56.667 -9.33301 -98 -28 -124s-46.667 -39 -84 -39c-12 0 -23.167 2.16699 -33.5 6.5s-19.166 11.666 -26.499 21.999s-13 23.833 -17 40.5s-6 37.334 -6 62.001v252h-180v-325c0 -27.333 3.66699 -53.5 11 -78.5s19 -47 35 -66
s36.667 -34.333 62 -46s55.666 -17.5 90.999 -17.5c41.333 0 78.833 8.5 112.5 25.5s59.5 44.5 77.5 82.5h2v-96h164v521z" />
    <glyph glyph-name="v" unicode="v" 
d="M203 0h205l193 521h-179l-109 -371h-2l-108 371h-193z" />
    <glyph glyph-name="w" unicode="w" horiz-adv-x="944" 
d="M169 0h209l99 377h2l88 -377h209l159 521h-174l-82 -375h-2l-88 375h-216l-90 -375h-2l-84 375h-188z" />
    <glyph glyph-name="x" unicode="x" 
d="M9 0h203l86 162l87 -162h217l-174 267l163 254h-197l-81 -156l-77 156h-213l163 -256z" />
    <glyph glyph-name="y" unicode="y" 
d="M45 -210c36.667 -8 74 -12.001 112 -12.001c41.333 0 75.5 7.33301 102.5 22s49.667 34 68 58s33.833 51.5 46.5 82.5l38 95.5l191 485h-180l-107 -340h-2l-112 340h-194l211 -533c-6.66699 -23.333 -18 -41.166 -34 -53.499s-35 -18.5 -57 -18.5
c-12.667 0 -24.667 0.833008 -36 2.5s-23 4.5 -35 8.5z" />
    <glyph glyph-name="z" unicode="z" horiz-adv-x="500" 
d="M26 0h448v132h-242l238 245v144h-439v-132h233l-238 -245v-144z" />
    <glyph glyph-name="braceleft" unicode="{" horiz-adv-x="389" 
d="M359 756l-100 -0.00390625c-18 0 -35.5 -2.66699 -52.5 -8s-32.333 -13.666 -46 -24.999s-24.5 -25.5 -32.5 -42.5s-12 -37.5 -12 -61.5v-200c0 -15.333 -3.33301 -27.333 -10 -36s-14.667 -15.167 -24 -19.5s-18.833 -7.16602 -28.5 -8.49902s-17.5 -2 -23.5 -2v-90
c6 0 13.833 -0.666992 23.5 -2s19.167 -4.5 28.5 -9.5s17.333 -12.333 24 -22s10 -22.834 10 -39.501v-193c0 -24 4 -44.5 12 -61.5s18.833 -31.167 32.5 -42.5s29 -19.666 46 -24.999s34.5 -8 52.5 -8h100v90h-47c-13.333 0 -23.833 2 -31.5 6s-13.5 9.16699 -17.5 15.5
s-6.5 13.333 -7.5 21s-1.5 14.834 -1.5 21.501v176c0 26.667 -4.16699 47.667 -12.5 63s-18.333 26.833 -30 34.5s-24.167 12.667 -37.5 15s-25.333 3.83301 -36 4.5v2c10.667 0.666992 22.667 2.5 36 5.5s25.833 8.5 37.5 16.5s21.667 19 30 33s12.5 32.333 12.5 55v183
c0 6.66699 0.5 13.834 1.5 21.501s3.5 14.667 7.5 21s9.83301 11.5 17.5 15.5s18.167 6 31.5 6h47v90z" />
    <glyph glyph-name="bar" unicode="|" horiz-adv-x="222" 
d="M48 -214h126v1000h-126v-1000z" />
    <glyph glyph-name="braceright" unicode="}" horiz-adv-x="389" 
d="M30 -140l100 0.00390625c18 0 35.5 2.66699 52.5 8s32.333 13.666 46 24.999s24.5 25.5 32.5 42.5s12 37.5 12 61.5v200c0 14.667 3.33301 26.5 10 35.5s14.667 15.667 24 20s18.833 7.16602 28.5 8.49902s17.5 2 23.5 2v90c-6 0 -13.833 0.666992 -23.5 2
s-19.167 4.5 -28.5 9.5s-17.333 12.333 -24 22s-10 22.834 -10 39.501v193c0 24 -4 44.5 -12 61.5s-18.833 31.167 -32.5 42.5s-29 19.666 -46 24.999s-34.5 8 -52.5 8h-100v-90h47c13.333 0 23.833 -2 31.5 -6s13.5 -9.16699 17.5 -15.5s6.5 -13.333 7.5 -21
s1.5 -14.834 1.5 -21.501v-176c0 -26.667 4.16699 -47.667 12.5 -63s18.333 -26.833 30 -34.5s24.167 -12.667 37.5 -15s25.333 -3.83301 36 -4.5v-2c-10.667 -0.666992 -22.667 -2.5 -36 -5.5s-25.833 -8.5 -37.5 -16.5s-21.667 -19 -30 -33s-12.5 -32.333 -12.5 -55v-183
c0 -6.66699 -0.5 -13.834 -1.5 -21.501s-3.5 -14.667 -7.5 -21s-9.83301 -11.5 -17.5 -15.5s-18.167 -6 -31.5 -6h-47v-90z" />
    <glyph glyph-name="asciitilde" unicode="~" horiz-adv-x="600" 
d="M495 353c-11.333 -17.333 -23.833 -33.166 -37.5 -47.499s-30.5 -21.5 -50.5 -21.5c-16 0 -32.167 3.33301 -48.5 10s-33.333 14 -51 22s-36 15.333 -55 22s-38.5 10 -58.5 10c-16.667 0 -31.5 -2.5 -44.5 -7.5s-24.5 -11.5 -34.5 -19.5s-18.833 -17.167 -26.5 -27.5
s-14.167 -20.833 -19.5 -31.5l36 -109c11.333 17.333 23.833 33.166 37.5 47.499s30.5 21.5 50.5 21.5c16 0 32.167 -3.33301 48.5 -10s33.333 -14 51 -22s36 -15.333 55 -22s38.5 -10 58.5 -10c16.667 0 31.5 2.5 44.5 7.5s24.5 11.5 34.5 19.5s18.833 17.167 26.5 27.5
s14.167 20.833 19.5 31.5z" />
    <glyph glyph-name="quotesinglbase" horiz-adv-x="333" 
d="M49 -109h137l98 271h-168z" />
    <glyph glyph-name="quotesinglbase" unicode="&#x201a;" horiz-adv-x="333" 
d="M49 -109h137l98 271h-168z" />
    <glyph glyph-name="quotedblbase" 
d="M73 -109h138l98 271h-169zM302 -109h138l98 271h-169z" />
    <glyph glyph-name="quotedblbase" unicode="&#x201e;" 
d="M73 -109h138l98 271h-169zM302 -109h138l98 271h-169z" />
    <glyph glyph-name="ellipsis" unicode="&#x85;" horiz-adv-x="1000" 
d="M83 0h168v162h-168v-162zM416 0h168v162h-168v-162zM749 0h168v162h-168v-162z" />
    <glyph glyph-name="ellipsis" unicode="&#x2026;" horiz-adv-x="1000" 
d="M83 0h168v162h-168v-162zM416 0h168v162h-168v-162zM749 0h168v162h-168v-162z" />
    <glyph glyph-name="dagger" 
d="M225 0h162v399h173v132h-173v167h-162v-167h-173v-132h173v-399z" />
    <glyph glyph-name="dagger" unicode="&#x2020;" 
d="M225 0h162v399h173v132h-173v167h-162v-167h-173v-132h173v-399z" />
    <glyph glyph-name="daggerdbl" 
d="M225 0h162v135h173v120h-173v187h173v120h-173v136h-162v-136h-173v-120h173v-187h-173v-120h173v-135z" />
    <glyph glyph-name="daggerdbl" unicode="&#x2021;" 
d="M225 0h162v135h173v120h-173v187h173v120h-173v136h-162v-136h-173v-120h173v-187h-173v-120h173v-135z" />
    <glyph glyph-name="perthousand" horiz-adv-x="1000" 
d="M505 72c-10 0 -17.833 3.66699 -23.5 11s-9.83398 16.5 -12.501 27.5s-4.16699 22.5 -4.5 34.5s-0.5 23 -0.5 33s0.166992 21 0.5 33s1.83301 23.5 4.5 34.5s6.83398 20.167 12.501 27.5s13.5 11 23.5 11s17.833 -3.66699 23.5 -11s9.83398 -16.5 12.501 -27.5
s4.16699 -22.5 4.5 -34.5s0.5 -23 0.5 -33s-0.166992 -21 -0.5 -33s-1.83301 -23.5 -4.5 -34.5s-6.83398 -20.167 -12.501 -27.5s-13.5 -11 -23.5 -11zM505 -12c29.333 0 54 5.16602 74 15.499s36 24.5 48 42.5s20.5 38.833 25.5 62.5s7.5 48.834 7.5 75.501
c0 28 -2.66699 54 -8 78s-14.166 44.833 -26.499 62.5s-28.333 31.334 -48 41.001s-43.834 14.5 -72.501 14.5c-30.667 0 -56 -5.16699 -76 -15.5s-35.833 -24.5 -47.5 -42.5s-19.834 -38.833 -24.501 -62.5s-7 -48.834 -7 -75.501c0 -26 2.33301 -50.833 7 -74.5
s12.834 -44.5 24.501 -62.5s27.5 -32.333 47.5 -43s45.333 -16 76 -16zM844 -12.001c29.333 0 54 5.16602 74 15.499s36 24.5 48 42.5s20.5 38.833 25.5 62.5s7.5 48.834 7.5 75.501c0 28 -2.66699 54 -8 78s-14.166 44.833 -26.499 62.5s-28.333 31.334 -48 41.001
s-43.834 14.5 -72.501 14.5c-30.667 0 -56 -5.16699 -76 -15.5s-35.833 -24.5 -47.5 -42.5s-19.834 -38.833 -24.501 -62.5s-7 -48.834 -7 -75.501c0 -26 2.33301 -50.833 7 -74.5s12.834 -44.5 24.501 -62.5s27.5 -32.333 47.5 -43s45.333 -16 76 -16zM844 71.998
c-10 0 -17.833 3.66699 -23.5 11s-9.83398 16.5 -12.501 27.5s-4.16699 22.5 -4.5 34.5s-0.5 23 -0.5 33s0.166992 21 0.5 33s1.83301 23.5 4.5 34.5s6.83398 20.167 12.501 27.5s13.5 11 23.5 11s17.833 -3.66699 23.5 -11s9.83398 -16.5 12.501 -27.5
s4.16699 -22.5 4.5 -34.5s0.5 -23 0.5 -33s-0.166992 -21 -0.5 -33s-1.83301 -23.5 -4.5 -34.5s-6.83398 -20.167 -12.501 -27.5s-13.5 -11 -23.5 -11zM156 317.998c29.333 0 54 5.16602 74 15.499s36 24.5 48 42.5s20.5 38.833 25.5 62.5s7.5 48.834 7.5 75.501
c0 28 -2.66699 54 -8 78s-14.166 44.833 -26.499 62.5s-28.333 31.334 -48 41.001s-43.834 14.5 -72.501 14.5c-30.667 0 -56 -5.16699 -76 -15.5s-35.833 -24.5 -47.5 -42.5s-19.834 -38.833 -24.501 -62.5s-7 -48.834 -7 -75.501c0 -26 2.33301 -50.833 7 -74.5
s12.834 -44.5 24.501 -62.5s27.5 -32.333 47.5 -43s45.333 -16 76 -16zM156 407.997c-10 0 -17.833 3.66699 -23.5 11s-9.83398 16.5 -12.501 27.5s-4.16699 22.5 -4.5 34.5s-0.5 23 -0.5 33s0.166992 21 0.5 33s1.83301 23.5 4.5 34.5s6.83398 20.167 12.501 27.5
s13.5 11 23.5 11s17.833 -3.66699 23.5 -11s9.83398 -16.5 12.501 -27.5s4.16699 -22.5 4.5 -34.5s0.5 -23 0.5 -33s-0.166992 -21 -0.5 -33s-1.83301 -23.5 -4.5 -34.5s-6.83398 -20.167 -12.501 -27.5s-13.5 -11 -23.5 -11zM97 -22.0029h78l389 742h-80z" />
    <glyph glyph-name="perthousand" unicode="&#x2030;" horiz-adv-x="1000" 
d="M505 72c-10 0 -17.833 3.66699 -23.5 11s-9.83398 16.5 -12.501 27.5s-4.16699 22.5 -4.5 34.5s-0.5 23 -0.5 33s0.166992 21 0.5 33s1.83301 23.5 4.5 34.5s6.83398 20.167 12.501 27.5s13.5 11 23.5 11s17.833 -3.66699 23.5 -11s9.83398 -16.5 12.501 -27.5
s4.16699 -22.5 4.5 -34.5s0.5 -23 0.5 -33s-0.166992 -21 -0.5 -33s-1.83301 -23.5 -4.5 -34.5s-6.83398 -20.167 -12.501 -27.5s-13.5 -11 -23.5 -11zM505 -12c29.333 0 54 5.16602 74 15.499s36 24.5 48 42.5s20.5 38.833 25.5 62.5s7.5 48.834 7.5 75.501
c0 28 -2.66699 54 -8 78s-14.166 44.833 -26.499 62.5s-28.333 31.334 -48 41.001s-43.834 14.5 -72.501 14.5c-30.667 0 -56 -5.16699 -76 -15.5s-35.833 -24.5 -47.5 -42.5s-19.834 -38.833 -24.501 -62.5s-7 -48.834 -7 -75.501c0 -26 2.33301 -50.833 7 -74.5
s12.834 -44.5 24.501 -62.5s27.5 -32.333 47.5 -43s45.333 -16 76 -16zM844 -12.001c29.333 0 54 5.16602 74 15.499s36 24.5 48 42.5s20.5 38.833 25.5 62.5s7.5 48.834 7.5 75.501c0 28 -2.66699 54 -8 78s-14.166 44.833 -26.499 62.5s-28.333 31.334 -48 41.001
s-43.834 14.5 -72.501 14.5c-30.667 0 -56 -5.16699 -76 -15.5s-35.833 -24.5 -47.5 -42.5s-19.834 -38.833 -24.501 -62.5s-7 -48.834 -7 -75.501c0 -26 2.33301 -50.833 7 -74.5s12.834 -44.5 24.501 -62.5s27.5 -32.333 47.5 -43s45.333 -16 76 -16zM844 71.998
c-10 0 -17.833 3.66699 -23.5 11s-9.83398 16.5 -12.501 27.5s-4.16699 22.5 -4.5 34.5s-0.5 23 -0.5 33s0.166992 21 0.5 33s1.83301 23.5 4.5 34.5s6.83398 20.167 12.501 27.5s13.5 11 23.5 11s17.833 -3.66699 23.5 -11s9.83398 -16.5 12.501 -27.5
s4.16699 -22.5 4.5 -34.5s0.5 -23 0.5 -33s-0.166992 -21 -0.5 -33s-1.83301 -23.5 -4.5 -34.5s-6.83398 -20.167 -12.501 -27.5s-13.5 -11 -23.5 -11zM156 317.998c29.333 0 54 5.16602 74 15.499s36 24.5 48 42.5s20.5 38.833 25.5 62.5s7.5 48.834 7.5 75.501
c0 28 -2.66699 54 -8 78s-14.166 44.833 -26.499 62.5s-28.333 31.334 -48 41.001s-43.834 14.5 -72.501 14.5c-30.667 0 -56 -5.16699 -76 -15.5s-35.833 -24.5 -47.5 -42.5s-19.834 -38.833 -24.501 -62.5s-7 -48.834 -7 -75.501c0 -26 2.33301 -50.833 7 -74.5
s12.834 -44.5 24.501 -62.5s27.5 -32.333 47.5 -43s45.333 -16 76 -16zM156 407.997c-10 0 -17.833 3.66699 -23.5 11s-9.83398 16.5 -12.501 27.5s-4.16699 22.5 -4.5 34.5s-0.5 23 -0.5 33s0.166992 21 0.5 33s1.83301 23.5 4.5 34.5s6.83398 20.167 12.501 27.5
s13.5 11 23.5 11s17.833 -3.66699 23.5 -11s9.83398 -16.5 12.501 -27.5s4.16699 -22.5 4.5 -34.5s0.5 -23 0.5 -33s-0.166992 -21 -0.5 -33s-1.83301 -23.5 -4.5 -34.5s-6.83398 -20.167 -12.501 -27.5s-13.5 -11 -23.5 -11zM97 -22.0029h78l389 742h-80z" />
    <glyph glyph-name="Scaron" 
d="M51 18c31.333 -10 65.666 -17.501 102.999 -22.501s72.333 -7.5 105 -7.5c38.667 0 76.5 3.5 113.5 10.5s69.833 19.167 98.5 36.5s51.667 40.833 69 70.5s26 67.167 26 112.5c0 42 -8.16699 75.667 -24.5 101s-36.666 45.666 -60.999 60.999s-50.833 27 -79.5 35
l-79.5 23c-24.333 7.33301 -44.666 16 -60.999 26s-24.5 24.333 -24.5 43c0 15.333 4.33301 27.333 13 36s19.334 15.167 32.001 19.5s26.167 7 40.5 8s27.5 1.5 39.5 1.5c26.667 0 53.167 -2.5 79.5 -7.5s51.5 -13.167 75.5 -24.5l12 144
c-23.333 8 -50.666 14.333 -81.999 19s-64 7 -98 7c-35.333 0 -71 -3.33301 -107 -10s-68.5 -18 -97.5 -34s-52.833 -37.833 -71.5 -65.5s-28 -62.5 -28 -104.5c0 -42.667 8.16699 -76.667 24.5 -102s36.666 -45.5 60.999 -60.5s50.833 -26.667 79.5 -35
s55.167 -16.666 79.5 -24.999s44.666 -18.166 60.999 -29.499s24.5 -28 24.5 -50c0 -14 -3.16699 -25.5 -9.5 -34.5s-14.833 -16 -25.5 -21s-23 -8.33301 -37 -10s-28.333 -2.5 -43 -2.5c-38.667 0 -74.334 4.33301 -107.001 13s-61 19.667 -85 33zM518 884.999h-111
l-83 -78l-79 78h-111l109 -144h162z" />
    <glyph glyph-name="Scaron" unicode="&#x160;" 
d="M51 18c31.333 -10 65.666 -17.501 102.999 -22.501s72.333 -7.5 105 -7.5c38.667 0 76.5 3.5 113.5 10.5s69.833 19.167 98.5 36.5s51.667 40.833 69 70.5s26 67.167 26 112.5c0 42 -8.16699 75.667 -24.5 101s-36.666 45.666 -60.999 60.999s-50.833 27 -79.5 35
l-79.5 23c-24.333 7.33301 -44.666 16 -60.999 26s-24.5 24.333 -24.5 43c0 15.333 4.33301 27.333 13 36s19.334 15.167 32.001 19.5s26.167 7 40.5 8s27.5 1.5 39.5 1.5c26.667 0 53.167 -2.5 79.5 -7.5s51.5 -13.167 75.5 -24.5l12 144
c-23.333 8 -50.666 14.333 -81.999 19s-64 7 -98 7c-35.333 0 -71 -3.33301 -107 -10s-68.5 -18 -97.5 -34s-52.833 -37.833 -71.5 -65.5s-28 -62.5 -28 -104.5c0 -42.667 8.16699 -76.667 24.5 -102s36.666 -45.5 60.999 -60.5s50.833 -26.667 79.5 -35
s55.167 -16.666 79.5 -24.999s44.666 -18.166 60.999 -29.499s24.5 -28 24.5 -50c0 -14 -3.16699 -25.5 -9.5 -34.5s-14.833 -16 -25.5 -21s-23 -8.33301 -37 -10s-28.333 -2.5 -43 -2.5c-38.667 0 -74.334 4.33301 -107.001 13s-61 19.667 -85 33zM518 884.999h-111
l-83 -78l-79 78h-111l109 -144h162z" />
    <glyph glyph-name="guilsinglleft" horiz-adv-x="333" 
d="M147 65h148l-110 204l110 204h-148l-119 -204z" />
    <glyph glyph-name="guilsinglleft" unicode="&#x2039;" horiz-adv-x="333" 
d="M147 65h148l-110 204l110 204h-148l-119 -204z" />
    <glyph glyph-name="Sacute" 
d="M51 18c31.333 -10 65.666 -17.501 102.999 -22.501s72.333 -7.5 105 -7.5c38.667 0 76.5 3.5 113.5 10.5s69.833 19.167 98.5 36.5s51.667 40.833 69 70.5s26 67.167 26 112.5c0 42 -8.16699 75.667 -24.5 101s-36.666 45.666 -60.999 60.999s-50.833 27 -79.5 35
l-79.5 23c-24.333 7.33301 -44.666 16 -60.999 26s-24.5 24.333 -24.5 43c0 15.333 4.33301 27.333 13 36s19.334 15.167 32.001 19.5s26.167 7 40.5 8s27.5 1.5 39.5 1.5c26.667 0 53.167 -2.5 79.5 -7.5s51.5 -13.167 75.5 -24.5l12 144
c-23.333 8 -50.666 14.333 -81.999 19s-64 7 -98 7c-35.333 0 -71 -3.33301 -107 -10s-68.5 -18 -97.5 -34s-52.833 -37.833 -71.5 -65.5s-28 -62.5 -28 -104.5c0 -42.667 8.16699 -76.667 24.5 -102s36.666 -45.5 60.999 -60.5s50.833 -26.667 79.5 -35
s55.167 -16.666 79.5 -24.999s44.666 -18.166 60.999 -29.499s24.5 -28 24.5 -50c0 -14 -3.16699 -25.5 -9.5 -34.5s-14.833 -16 -25.5 -21s-23 -8.33301 -37 -10s-28.333 -2.5 -43 -2.5c-38.667 0 -74.334 4.33301 -107.001 13s-61 19.667 -85 33zM244 740.999h126l129 144
h-187z" />
    <glyph glyph-name="Sacute" unicode="&#x15a;" 
d="M51 18c31.333 -10 65.666 -17.501 102.999 -22.501s72.333 -7.5 105 -7.5c38.667 0 76.5 3.5 113.5 10.5s69.833 19.167 98.5 36.5s51.667 40.833 69 70.5s26 67.167 26 112.5c0 42 -8.16699 75.667 -24.5 101s-36.666 45.666 -60.999 60.999s-50.833 27 -79.5 35
l-79.5 23c-24.333 7.33301 -44.666 16 -60.999 26s-24.5 24.333 -24.5 43c0 15.333 4.33301 27.333 13 36s19.334 15.167 32.001 19.5s26.167 7 40.5 8s27.5 1.5 39.5 1.5c26.667 0 53.167 -2.5 79.5 -7.5s51.5 -13.167 75.5 -24.5l12 144
c-23.333 8 -50.666 14.333 -81.999 19s-64 7 -98 7c-35.333 0 -71 -3.33301 -107 -10s-68.5 -18 -97.5 -34s-52.833 -37.833 -71.5 -65.5s-28 -62.5 -28 -104.5c0 -42.667 8.16699 -76.667 24.5 -102s36.666 -45.5 60.999 -60.5s50.833 -26.667 79.5 -35
s55.167 -16.666 79.5 -24.999s44.666 -18.166 60.999 -29.499s24.5 -28 24.5 -50c0 -14 -3.16699 -25.5 -9.5 -34.5s-14.833 -16 -25.5 -21s-23 -8.33301 -37 -10s-28.333 -2.5 -43 -2.5c-38.667 0 -74.334 4.33301 -107.001 13s-61 19.667 -85 33zM244 740.999h126l129 144
h-187z" />
    <glyph glyph-name="Tcaron" horiz-adv-x="556" 
d="M185 0h186v560h172v138h-530v-138h172v-560zM472 885h-111l-83 -78l-79 78h-111l109 -144h162z" />
    <glyph glyph-name="Tcaron" unicode="&#x164;" horiz-adv-x="556" 
d="M185 0h186v560h172v138h-530v-138h172v-560zM472 885h-111l-83 -78l-79 78h-111l109 -144h162z" />
    <glyph glyph-name="Zcaron" 
d="M570 698h-535v-138h323l-332 -412v-148h546v138h-344l342 412v148zM519 885h-111l-83 -78l-79 78h-111l109 -144h162z" />
    <glyph glyph-name="Zcaron" unicode="&#x17d;" 
d="M570 698h-535v-138h323l-332 -412v-148h546v138h-344l342 412v148zM519 885h-111l-83 -78l-79 78h-111l109 -144h162z" />
    <glyph glyph-name="Zacute" 
d="M570 698h-535v-138h323l-332 -412v-148h546v138h-344l342 412v148zM244 741h126l129 144h-187z" />
    <glyph glyph-name="Zacute" unicode="&#x179;" 
d="M570 698h-535v-138h323l-332 -412v-148h546v138h-344l342 412v148zM244 741h126l129 144h-187z" />
    <glyph glyph-name="quoteleft" horiz-adv-x="333" 
d="M284 698h-137l-98 -271h168z" />
    <glyph glyph-name="quoteleft" unicode="&#x2018;" horiz-adv-x="333" 
d="M284 698h-137l-98 -271h168z" />
    <glyph glyph-name="quoteright" horiz-adv-x="333" 
d="M49 427h137l98 271h-168z" />
    <glyph glyph-name="quoteright" unicode="&#x2019;" horiz-adv-x="333" 
d="M49 427h137l98 271h-168z" />
    <glyph glyph-name="quotedblleft" 
d="M308 698h-137l-98 -271h168zM538 698h-137l-98 -271h168z" />
    <glyph glyph-name="quotedblleft" unicode="&#x201c;" 
d="M308 698h-137l-98 -271h168zM538 698h-137l-98 -271h168z" />
    <glyph glyph-name="quotedblright" 
d="M73 427h137l98 271h-168zM303 427h137l98 271h-168z" />
    <glyph glyph-name="quotedblright" unicode="&#x201d;" 
d="M73 427h137l98 271h-168zM303 427h137l98 271h-168z" />
    <glyph glyph-name="bullet" horiz-adv-x="500" 
d="M76 349c0 -24 4.5 -46.667 13.5 -68s21.5 -39.833 37.5 -55.5s34.5 -28.167 55.5 -37.5s43.5 -14 67.5 -14s46.667 4.66699 68 14s39.833 21.833 55.5 37.5s28.167 34.167 37.5 55.5s14 44 14 68s-4.66699 46.5 -14 67.5s-21.833 39.5 -37.5 55.5
s-34.167 28.5 -55.5 37.5s-44 13.5 -68 13.5s-46.5 -4.5 -67.5 -13.5s-39.5 -21.5 -55.5 -37.5s-28.5 -34.5 -37.5 -55.5s-13.5 -43.5 -13.5 -67.5z" />
    <glyph glyph-name="bullet" unicode="&#x2022;" horiz-adv-x="500" 
d="M76 349c0 -24 4.5 -46.667 13.5 -68s21.5 -39.833 37.5 -55.5s34.5 -28.167 55.5 -37.5s43.5 -14 67.5 -14s46.667 4.66699 68 14s39.833 21.833 55.5 37.5s28.167 34.167 37.5 55.5s14 44 14 68s-4.66699 46.5 -14 67.5s-21.833 39.5 -37.5 55.5
s-34.167 28.5 -55.5 37.5s-44 13.5 -68 13.5s-46.5 -4.5 -67.5 -13.5s-39.5 -21.5 -55.5 -37.5s-28.5 -34.5 -37.5 -55.5s-13.5 -43.5 -13.5 -67.5z" />
    <glyph glyph-name="endash" horiz-adv-x="500" 
d="M0 206h500v126h-500v-126z" />
    <glyph glyph-name="endash" unicode="&#x2013;" horiz-adv-x="500" 
d="M0 206h500v126h-500v-126z" />
    <glyph glyph-name="emdash" horiz-adv-x="1000" 
d="M0 206h1000v126h-1000v-126z" />
    <glyph glyph-name="emdash" unicode="&#x2014;" horiz-adv-x="1000" 
d="M0 206h1000v126h-1000v-126z" />
    <glyph glyph-name="trademark" horiz-adv-x="1000" 
d="M155 282h108v326h118v90h-344v-90h118v-326zM477 282h108v272h2l89 -272h88l89 272h2v-272h108v416h-154l-89 -242l-89 242h-154v-416z" />
    <glyph glyph-name="trademark" unicode="&#x2122;" horiz-adv-x="1000" 
d="M155 282h108v326h118v90h-344v-90h118v-326zM477 282h108v272h2l89 -272h88l89 272h2v-272h108v416h-154l-89 -242l-89 242h-154v-416z" />
    <glyph glyph-name="scaron" horiz-adv-x="500" 
d="M36 13c26.667 -8.66699 54.6631 -14.999 83.9961 -18.999s64.333 -6 105 -6c29.333 0 58.5 2.5 87.5 7.5s55 14 78 27s41.667 30.833 56 53.5s21.5 51.334 21.5 86.001c0 32.667 -6.66699 59 -20 79s-29.833 35.667 -49.5 47s-41.167 19.833 -64.5 25.5l-64.5 16
c-19.667 5 -36.167 10.833 -49.5 17.5s-20 16.667 -20 30c0 7.33301 2.5 13.333 7.5 18s11.5 8.33398 19.5 11.001s16.833 4.5 26.5 5.5s19.5 1.5 29.5 1.5c22.667 0 46.834 -3 72.501 -9s48.167 -14.667 67.5 -26l14 125c-29.333 11.333 -59.333 19.166 -90 23.499
s-61.667 6.5 -93 6.5c-26 0 -52.167 -3.16699 -78.5 -9.5s-50.166 -16.333 -71.499 -30s-38.666 -31.167 -51.999 -52.5s-20 -47 -20 -77c0 -31.333 6.33301 -56.333 19 -75s28.5 -33.5 47.5 -44.5s39.5 -19.333 61.5 -25l61.5 -16.5c19 -5.33301 34.833 -11.833 47.5 -19.5
s19 -18.834 19 -33.501c0 -18 -7.5 -29.5 -22.5 -34.5s-31.833 -7.5 -50.5 -7.5c-32.667 0 -63.667 3.66699 -93 11s-54.666 15.666 -75.999 24.999zM442.996 744.001h-111l-83 -78l-79 78h-111l109 -144h162z" />
    <glyph glyph-name="scaron" unicode="&#x161;" horiz-adv-x="500" 
d="M36 13c26.667 -8.66699 54.6631 -14.999 83.9961 -18.999s64.333 -6 105 -6c29.333 0 58.5 2.5 87.5 7.5s55 14 78 27s41.667 30.833 56 53.5s21.5 51.334 21.5 86.001c0 32.667 -6.66699 59 -20 79s-29.833 35.667 -49.5 47s-41.167 19.833 -64.5 25.5l-64.5 16
c-19.667 5 -36.167 10.833 -49.5 17.5s-20 16.667 -20 30c0 7.33301 2.5 13.333 7.5 18s11.5 8.33398 19.5 11.001s16.833 4.5 26.5 5.5s19.5 1.5 29.5 1.5c22.667 0 46.834 -3 72.501 -9s48.167 -14.667 67.5 -26l14 125c-29.333 11.333 -59.333 19.166 -90 23.499
s-61.667 6.5 -93 6.5c-26 0 -52.167 -3.16699 -78.5 -9.5s-50.166 -16.333 -71.499 -30s-38.666 -31.167 -51.999 -52.5s-20 -47 -20 -77c0 -31.333 6.33301 -56.333 19 -75s28.5 -33.5 47.5 -44.5s39.5 -19.333 61.5 -25l61.5 -16.5c19 -5.33301 34.833 -11.833 47.5 -19.5
s19 -18.834 19 -33.501c0 -18 -7.5 -29.5 -22.5 -34.5s-31.833 -7.5 -50.5 -7.5c-32.667 0 -63.667 3.66699 -93 11s-54.666 15.666 -75.999 24.999zM442.996 744.001h-111l-83 -78l-79 78h-111l109 -144h162z" />
    <glyph glyph-name="guilsinglright" horiz-adv-x="333" 
d="M186 473h-148l110 -204l-110 -204h148l119 204z" />
    <glyph glyph-name="guilsinglright" unicode="&#x203a;" horiz-adv-x="333" 
d="M186 473h-148l110 -204l-110 -204h148l119 204z" />
    <glyph glyph-name="sacute" horiz-adv-x="500" 
d="M36 13c26.667 -8.66699 54.6631 -14.999 83.9961 -18.999s64.333 -6 105 -6c29.333 0 58.5 2.5 87.5 7.5s55 14 78 27s41.667 30.833 56 53.5s21.5 51.334 21.5 86.001c0 32.667 -6.66699 59 -20 79s-29.833 35.667 -49.5 47s-41.167 19.833 -64.5 25.5l-64.5 16
c-19.667 5 -36.167 10.833 -49.5 17.5s-20 16.667 -20 30c0 7.33301 2.5 13.333 7.5 18s11.5 8.33398 19.5 11.001s16.833 4.5 26.5 5.5s19.5 1.5 29.5 1.5c22.667 0 46.834 -3 72.501 -9s48.167 -14.667 67.5 -26l14 125c-29.333 11.333 -59.333 19.166 -90 23.499
s-61.667 6.5 -93 6.5c-26 0 -52.167 -3.16699 -78.5 -9.5s-50.166 -16.333 -71.499 -30s-38.666 -31.167 -51.999 -52.5s-20 -47 -20 -77c0 -31.333 6.33301 -56.333 19 -75s28.5 -33.5 47.5 -44.5s39.5 -19.333 61.5 -25l61.5 -16.5c19 -5.33301 34.833 -11.833 47.5 -19.5
s19 -18.834 19 -33.501c0 -18 -7.5 -29.5 -22.5 -34.5s-31.833 -7.5 -50.5 -7.5c-32.667 0 -63.667 3.66699 -93 11s-54.666 15.666 -75.999 24.999zM182.996 600.001h126l129 144h-187z" />
    <glyph glyph-name="sacute" unicode="&#x15b;" horiz-adv-x="500" 
d="M36 13c26.667 -8.66699 54.6631 -14.999 83.9961 -18.999s64.333 -6 105 -6c29.333 0 58.5 2.5 87.5 7.5s55 14 78 27s41.667 30.833 56 53.5s21.5 51.334 21.5 86.001c0 32.667 -6.66699 59 -20 79s-29.833 35.667 -49.5 47s-41.167 19.833 -64.5 25.5l-64.5 16
c-19.667 5 -36.167 10.833 -49.5 17.5s-20 16.667 -20 30c0 7.33301 2.5 13.333 7.5 18s11.5 8.33398 19.5 11.001s16.833 4.5 26.5 5.5s19.5 1.5 29.5 1.5c22.667 0 46.834 -3 72.501 -9s48.167 -14.667 67.5 -26l14 125c-29.333 11.333 -59.333 19.166 -90 23.499
s-61.667 6.5 -93 6.5c-26 0 -52.167 -3.16699 -78.5 -9.5s-50.166 -16.333 -71.499 -30s-38.666 -31.167 -51.999 -52.5s-20 -47 -20 -77c0 -31.333 6.33301 -56.333 19 -75s28.5 -33.5 47.5 -44.5s39.5 -19.333 61.5 -25l61.5 -16.5c19 -5.33301 34.833 -11.833 47.5 -19.5
s19 -18.834 19 -33.501c0 -18 -7.5 -29.5 -22.5 -34.5s-31.833 -7.5 -50.5 -7.5c-32.667 0 -63.667 3.66699 -93 11s-54.666 15.666 -75.999 24.999zM182.996 600.001h126l129 144h-187z" />
    <glyph glyph-name="tcaron" horiz-adv-x="444" 
d="M10 395l103 0.000976562v-212c0 -31.333 2.83301 -59 8.5 -83s16 -44.333 31 -61s35.5 -29.334 61.5 -38.001s59 -13 99 -13c22.667 0 42.834 1.16699 60.501 3.5s35.167 4.5 52.5 6.5l-6 117c-9.33301 -1.33301 -18.5 -2.83301 -27.5 -4.5s-18.167 -2.5 -27.5 -2.5
c-28.667 0 -47.834 7.83301 -57.501 23.5s-14.5 39.5 -14.5 71.5v192h126v126h-126v172l-177 -55v-117h-106v-126zM343 649.001l71.999 0.000976562c-2 -17.333 -10.667 -30.333 -26 -39s-32.333 -13 -51 -13v-41c42.667 0 77.334 9.16699 104.001 27.5s40 48.166 40 89.499
v77h-139v-101z" />
    <glyph glyph-name="tcaron" unicode="&#x165;" horiz-adv-x="444" 
d="M10 395l103 0.000976562v-212c0 -31.333 2.83301 -59 8.5 -83s16 -44.333 31 -61s35.5 -29.334 61.5 -38.001s59 -13 99 -13c22.667 0 42.834 1.16699 60.501 3.5s35.167 4.5 52.5 6.5l-6 117c-9.33301 -1.33301 -18.5 -2.83301 -27.5 -4.5s-18.167 -2.5 -27.5 -2.5
c-28.667 0 -47.834 7.83301 -57.501 23.5s-14.5 39.5 -14.5 71.5v192h126v126h-126v172l-177 -55v-117h-106v-126zM343 649.001l71.999 0.000976562c-2 -17.333 -10.667 -30.333 -26 -39s-32.333 -13 -51 -13v-41c42.667 0 77.334 9.16699 104.001 27.5s40 48.166 40 89.499
v77h-139v-101z" />
    <glyph glyph-name="zcaron" horiz-adv-x="500" 
d="M26 0h448v132h-242l238 245v144h-439v-132h233l-238 -245v-144zM449 744h-111l-83 -78l-79 78h-111l109 -144h162z" />
    <glyph glyph-name="zcaron" unicode="&#x17e;" horiz-adv-x="500" 
d="M26 0h448v132h-242l238 245v144h-439v-132h233l-238 -245v-144zM449 744h-111l-83 -78l-79 78h-111l109 -144h162z" />
    <glyph glyph-name="zacute" horiz-adv-x="500" 
d="M26 0h448v132h-242l238 245v144h-439v-132h233l-238 -245v-144zM183 600h126l129 144h-187z" />
    <glyph glyph-name="zacute" unicode="&#x17a;" horiz-adv-x="500" 
d="M26 0h448v132h-242l238 245v144h-439v-132h233l-238 -245v-144zM183 600h126l129 144h-187z" />
    <glyph glyph-name="caron" unicode="&#xa1;" horiz-adv-x="333" 
d="M359 744h-111l-83 -78l-79 78h-111l109 -144h162z" />
    <glyph glyph-name="caron" unicode="&#x2c7;" horiz-adv-x="333" 
d="M359 744h-111l-83 -78l-79 78h-111l109 -144h162z" />
    <glyph glyph-name="breve" unicode="&#xa2;" horiz-adv-x="333" 
d="M-22 744c5.33301 -48 23.168 -86.167 53.501 -114.5s75.5 -42.5 135.5 -42.5s105.167 14.167 135.5 42.5s48.166 66.5 53.499 114.5h-76c-6.66699 -28 -20.667 -47.167 -42 -57.5s-45 -15.5 -71 -15.5s-49.667 5.16699 -71 15.5s-35.333 29.5 -42 57.5h-76z" />
    <glyph glyph-name="breve" unicode="&#x2d8;" horiz-adv-x="333" 
d="M-22 744c5.33301 -48 23.168 -86.167 53.501 -114.5s75.5 -42.5 135.5 -42.5s105.167 14.167 135.5 42.5s48.166 66.5 53.499 114.5h-76c-6.66699 -28 -20.667 -47.167 -42 -57.5s-45 -15.5 -71 -15.5s-49.667 5.16699 -71 15.5s-35.333 29.5 -42 57.5h-76z" />
    <glyph glyph-name="Lslash" unicode="&#xa3;" horiz-adv-x="556" 
d="M65 0h474v138h-288v180l183 108v109l-183 -108v271h-186v-381l-65 -38v-109l65 38v-208z" />
    <glyph glyph-name="Lslash" unicode="&#x141;" horiz-adv-x="556" 
d="M65 0h474v138h-288v180l183 108v109l-183 -108v271h-186v-381l-65 -38v-109l65 38v-208z" />
    <glyph glyph-name="currency" unicode="&#xa4;" horiz-adv-x="612" 
d="M46 151l63 -62l57 54c8.66699 -7.33301 18.834 -13.5 30.501 -18.5s23.667 -9.33301 36 -13s24.833 -6.33398 37.5 -8.00098s24.667 -2.5 36 -2.5c10.667 0 22.5 0.833008 35.5 2.5s25.667 4.33398 38 8.00098s24.333 8 36 13s21.834 11.167 30.501 18.5l57 -54l63 62
l-58 57c8.66699 8.66699 15.834 18.667 21.501 30s10.334 23.166 14.001 35.499s6.33398 25 8.00098 38s2.5 25.5 2.5 37.5s-0.833008 24.5 -2.5 37.5s-4.33398 25.667 -8.00098 38s-8.33398 24.166 -14.001 35.499s-12.834 21.333 -21.501 30l58 57l-63 62l-57 -54
c-8.66699 6.66699 -18.834 12.667 -30.501 18s-23.667 9.83301 -36 13.5s-25 6.33398 -38 8.00098s-24.833 2.5 -35.5 2.5c-11.333 0 -23.333 -0.833008 -36 -2.5s-25.167 -4.33398 -37.5 -8.00098s-24.333 -8.16699 -36 -13.5s-21.834 -11.333 -30.501 -18l-57 54l-63 -62
l58 -57c-8.66699 -8.66699 -15.834 -18.667 -21.501 -30s-10.334 -23.166 -14.001 -35.499s-6.33398 -25 -8.00098 -38s-2.5 -25.5 -2.5 -37.5s0.833008 -24.5 2.5 -37.5s4.33398 -25.667 8.00098 -38s8.33398 -24.166 14.001 -35.499s12.834 -21.333 21.501 -30zM306 227
c-34 0 -61.833 11.5 -83.5 34.5s-32.5 52.167 -32.5 87.5s10.833 64.5 32.5 87.5s49.5 34.5 83.5 34.5s61.833 -11.5 83.5 -34.5s32.5 -52.167 32.5 -87.5s-10.833 -64.5 -32.5 -87.5s-49.5 -34.5 -83.5 -34.5z" />
    <glyph glyph-name="Aogonek" unicode="&#xa5;" horiz-adv-x="778" 
d="M470 281h-175l90 273h2zM8 0l189.001 -0.00195312l55 149h262l52 -149h12c-13.333 -7.33301 -27 -15.5 -41 -24.5s-26.667 -19 -38 -30s-20.5 -23 -27.5 -36s-10.5 -27.167 -10.5 -42.5c0 -28.667 8.5 -50.5 25.5 -65.5s40.833 -22.5 71.5 -22.5
c17.333 0 33 1.33301 47 4s26.833 7 38.5 13s22.667 13.833 33 23.5s20.166 21.834 29.499 36.501l-38 17c-7.33301 -7.33301 -16.5 -13.833 -27.5 -19.5s-22.5 -8.5 -34.5 -8.5c-11.333 0 -21.333 3.66699 -30 11s-13 17.333 -13 30c0 10.667 2.5 21.334 7.5 32.001
s11.667 20.667 20 30s17.5 18.333 27.5 27l30 25h122l-269 698h-228z" />
    <glyph glyph-name="Aogonek" unicode="&#x104;" horiz-adv-x="778" 
d="M470 281h-175l90 273h2zM8 0l189.001 -0.00195312l55 149h262l52 -149h12c-13.333 -7.33301 -27 -15.5 -41 -24.5s-26.667 -19 -38 -30s-20.5 -23 -27.5 -36s-10.5 -27.167 -10.5 -42.5c0 -28.667 8.5 -50.5 25.5 -65.5s40.833 -22.5 71.5 -22.5
c17.333 0 33 1.33301 47 4s26.833 7 38.5 13s22.667 13.833 33 23.5s20.166 21.834 29.499 36.501l-38 17c-7.33301 -7.33301 -16.5 -13.833 -27.5 -19.5s-22.5 -8.5 -34.5 -8.5c-11.333 0 -21.333 3.66699 -30 11s-13 17.333 -13 30c0 10.667 2.5 21.334 7.5 32.001
s11.667 20.667 20 30s17.5 18.333 27.5 27l30 25h122l-269 698h-228z" />
    <glyph glyph-name="brokenbar" unicode="&#xa6;" horiz-adv-x="222" 
d="M48 -89h126v250h-126v-250zM48 411h126v250h-126v-250z" />
    <glyph glyph-name="section" unicode="&#xa7;" 
d="M84 -109c22 -6 49.832 -12.335 83.499 -19.002s70.5 -10 110.5 -10c27.333 0 56.333 3 87 9s58.834 15.667 84.501 29s47 30.833 64 52.5s25.5 48.167 25.5 79.5c0 12 -1.66699 24 -5 36s-8 23.333 -14 34s-13.333 20.5 -22 29.5s-18.334 16.167 -29.001 21.5
c23.333 16.667 42.833 36.334 58.5 59.001s23.5 48.334 23.5 77.001c0 31.333 -7.33301 57.5 -22 78.5s-33.167 38.833 -55.5 53.5s-46.5 26.667 -72.5 36l-72.5 27c-22.333 8.66699 -40.833 17.5 -55.5 26.5s-22 20.167 -22 33.5c0 18.667 8 31 24 37s34.333 9 55 9
c26 0 52.333 -2.5 79 -7.5s52 -12.167 76 -21.5l8 124c-26 7.33301 -52.667 13.333 -80 18s-54.666 7 -81.999 7c-29.333 0 -59.5 -2.16699 -90.5 -6.5s-59 -12.833 -84 -25.5s-45.5 -30 -61.5 -52s-24 -51 -24 -87c0 -24.667 7.5 -47.667 22.5 -69s33.833 -37 56.5 -47
c-28 -17.333 -50 -36.333 -66 -57s-24 -47 -24 -79c0 -29.333 7.33301 -53.833 22 -73.5s33.167 -36.5 55.5 -50.5s46.333 -25.833 72 -35.5l72 -28c22.333 -9 40.833 -18.5 55.5 -28.5s22 -22.333 22 -37c0 -21.333 -8.5 -35.333 -25.5 -42s-37.833 -10 -62.5 -10
c-27.333 0 -57.5 3.83301 -90.5 11.5s-62.167 17.167 -87.5 28.5zM242.999 381.998l66.001 -28.501c22.667 -9.66699 42.667 -19.834 60 -30.501c7.33301 -4.66699 14.5 -10.667 21.5 -18s10.5 -16.666 10.5 -27.999c0 -13.333 -2.83301 -26.833 -8.5 -40.5
s-12.834 -25.5 -21.501 -35.5c-28 11.333 -54.5 21.5 -79.5 30.5s-46.5 22.167 -64.5 39.5c-11.333 10.667 -17 24.334 -17 41.001c0 13.333 3.5 26 10.5 38s14.5 22.667 22.5 32z" />
    <glyph glyph-name="dieresis" unicode="&#xa8;" horiz-adv-x="333" 
d="M209 600h144v144h-144v-144zM-19 600h144v144h-144v-144z" />
    <glyph glyph-name="copyright" unicode="&#xa9;" horiz-adv-x="800" 
d="M477 292c-5.33301 -18 -13 -31.6699 -23 -41.0029s-26.333 -14 -49 -14c-25.333 0 -45 10.167 -59 30.5s-21 47.5 -21 81.5s7 61 21 81s33.667 30 59 30c22.667 0 39 -4.66699 49 -14s17.667 -23 23 -41h96c-1.33301 47.333 -16.666 84.333 -45.999 111s-70 40 -122 40
c-30 0 -57 -5.33301 -81 -16s-44.333 -25.167 -61 -43.5s-29.5 -40.166 -38.5 -65.499s-13.5 -52.666 -13.5 -81.999c0 -30 4.5 -57.667 13.5 -83s21.833 -47.166 38.5 -65.499s37 -32.833 61 -43.5s51 -16 81 -16c52 0 92.667 13.333 122 40s44.666 63.667 45.999 111h-96z
M39 348.997c0 -50 9.5 -96.833 28.5 -140.5s44.833 -81.834 77.5 -114.501s70.834 -58.5 114.501 -77.5s90.5 -28.5 140.5 -28.5s96.833 9.5 140.5 28.5s81.834 44.833 114.501 77.5s58.5 70.834 77.5 114.501s28.5 90.5 28.5 140.5s-9.5 96.833 -28.5 140.5
s-44.833 81.834 -77.5 114.501s-70.834 58.5 -114.501 77.5s-90.5 28.5 -140.5 28.5s-96.833 -9.5 -140.5 -28.5s-81.834 -44.833 -114.501 -77.5s-58.5 -70.834 -77.5 -114.501s-28.5 -90.5 -28.5 -140.5zM153 348.997c0 36.667 6.5 70.834 19.5 102.501
s30.667 59.167 53 82.5s48.5 41.5 78.5 54.5s62 19.5 96 19.5s66 -6.5 96 -19.5s56.167 -31.167 78.5 -54.5s40 -50.833 53 -82.5s19.5 -65.834 19.5 -102.501c0 -37.333 -6.5 -71.666 -19.5 -102.999s-30.667 -58.666 -53 -81.999s-48.5 -41.5 -78.5 -54.5
s-62 -19.5 -96 -19.5s-66 6.5 -96 19.5s-56.167 31.167 -78.5 54.5s-40 50.666 -53 81.999s-19.5 65.666 -19.5 102.999z" />
    <glyph glyph-name="Scedilla" unicode="&#xaa;" 
d="M204 -89l38.999 -24.0029c10 4 19.333 6 28 6c10 0 18.833 -2.33301 26.5 -7s11.5 -14 11.5 -28c0 -11.333 -4.5 -19.333 -13.5 -24s-21.5 -7 -37.5 -7c-14.667 0 -29.167 1.83301 -43.5 5.5s-28.833 8.83398 -43.5 15.501l-17 -46
c17.333 -7.33301 35.666 -13 54.999 -17s42.666 -6 69.999 -6c18 0 35 1.33301 51 4s30 6.83398 42 12.501s21.5 13.334 28.5 23.001s10.5 21.5 10.5 35.5c0 16 -2.33301 29.5 -7 40.5s-10.667 20 -18 27s-15.666 12 -24.999 15s-18.666 4.5 -27.999 4.5
c-11.333 0 -20.333 -0.5 -27 -1.5s-13.667 -2.16699 -21 -3.5l23 54c34 2.66699 66.667 8.5 98 17.5s58.833 22.333 82.5 40s42.5 40.5 56.5 68.5s21 62 21 102c0 42 -8.16699 75.667 -24.5 101s-36.666 45.666 -60.999 60.999s-50.833 27 -79.5 35l-79.5 23
c-24.333 7.33301 -44.666 16 -60.999 26s-24.5 24.333 -24.5 43c0 15.333 4.33301 27.333 13 36s19.334 15.167 32.001 19.5s26.167 7 40.5 8s27.5 1.5 39.5 1.5c26.667 0 53.167 -2.5 79.5 -7.5s51.5 -13.167 75.5 -24.5l12 144c-23.333 8 -50.666 14.333 -81.999 19
s-64 7 -98 7c-35.333 0 -71 -3.33301 -107 -10s-68.5 -18 -97.5 -34s-52.833 -37.833 -71.5 -65.5s-28 -62.5 -28 -104.5c0 -42.667 8.16699 -76.667 24.5 -102s36.666 -45.5 60.999 -60.5s50.833 -26.667 79.5 -35s55.167 -16.666 79.5 -24.999
s44.666 -18.166 60.999 -29.499s24.5 -28 24.5 -50c0 -14 -3.16699 -25.5 -9.5 -34.5s-14.833 -16 -25.5 -21s-23 -8.33301 -37 -10s-28.333 -2.5 -43 -2.5c-38.667 0 -74.334 4.33301 -107.001 13s-61 19.667 -85 33l-16 -154c28 -9.33301 59 -16.333 93 -21
s66 -7.33398 96 -8.00098z" />
    <glyph glyph-name="Scedilla" unicode="&#xf6c1;" 
d="M204 -89l38.999 -24.0029c10 4 19.333 6 28 6c10 0 18.833 -2.33301 26.5 -7s11.5 -14 11.5 -28c0 -11.333 -4.5 -19.333 -13.5 -24s-21.5 -7 -37.5 -7c-14.667 0 -29.167 1.83301 -43.5 5.5s-28.833 8.83398 -43.5 15.501l-17 -46
c17.333 -7.33301 35.666 -13 54.999 -17s42.666 -6 69.999 -6c18 0 35 1.33301 51 4s30 6.83398 42 12.501s21.5 13.334 28.5 23.001s10.5 21.5 10.5 35.5c0 16 -2.33301 29.5 -7 40.5s-10.667 20 -18 27s-15.666 12 -24.999 15s-18.666 4.5 -27.999 4.5
c-11.333 0 -20.333 -0.5 -27 -1.5s-13.667 -2.16699 -21 -3.5l23 54c34 2.66699 66.667 8.5 98 17.5s58.833 22.333 82.5 40s42.5 40.5 56.5 68.5s21 62 21 102c0 42 -8.16699 75.667 -24.5 101s-36.666 45.666 -60.999 60.999s-50.833 27 -79.5 35l-79.5 23
c-24.333 7.33301 -44.666 16 -60.999 26s-24.5 24.333 -24.5 43c0 15.333 4.33301 27.333 13 36s19.334 15.167 32.001 19.5s26.167 7 40.5 8s27.5 1.5 39.5 1.5c26.667 0 53.167 -2.5 79.5 -7.5s51.5 -13.167 75.5 -24.5l12 144c-23.333 8 -50.666 14.333 -81.999 19
s-64 7 -98 7c-35.333 0 -71 -3.33301 -107 -10s-68.5 -18 -97.5 -34s-52.833 -37.833 -71.5 -65.5s-28 -62.5 -28 -104.5c0 -42.667 8.16699 -76.667 24.5 -102s36.666 -45.5 60.999 -60.5s50.833 -26.667 79.5 -35s55.167 -16.666 79.5 -24.999
s44.666 -18.166 60.999 -29.499s24.5 -28 24.5 -50c0 -14 -3.16699 -25.5 -9.5 -34.5s-14.833 -16 -25.5 -21s-23 -8.33301 -37 -10s-28.333 -2.5 -43 -2.5c-38.667 0 -74.334 4.33301 -107.001 13s-61 19.667 -85 33l-16 -154c28 -9.33301 59 -16.333 93 -21
s66 -7.33398 96 -8.00098z" />
    <glyph glyph-name="Scedilla" unicode="&#x15e;" 
d="M204 -89l38.999 -24.0029c10 4 19.333 6 28 6c10 0 18.833 -2.33301 26.5 -7s11.5 -14 11.5 -28c0 -11.333 -4.5 -19.333 -13.5 -24s-21.5 -7 -37.5 -7c-14.667 0 -29.167 1.83301 -43.5 5.5s-28.833 8.83398 -43.5 15.501l-17 -46
c17.333 -7.33301 35.666 -13 54.999 -17s42.666 -6 69.999 -6c18 0 35 1.33301 51 4s30 6.83398 42 12.501s21.5 13.334 28.5 23.001s10.5 21.5 10.5 35.5c0 16 -2.33301 29.5 -7 40.5s-10.667 20 -18 27s-15.666 12 -24.999 15s-18.666 4.5 -27.999 4.5
c-11.333 0 -20.333 -0.5 -27 -1.5s-13.667 -2.16699 -21 -3.5l23 54c34 2.66699 66.667 8.5 98 17.5s58.833 22.333 82.5 40s42.5 40.5 56.5 68.5s21 62 21 102c0 42 -8.16699 75.667 -24.5 101s-36.666 45.666 -60.999 60.999s-50.833 27 -79.5 35l-79.5 23
c-24.333 7.33301 -44.666 16 -60.999 26s-24.5 24.333 -24.5 43c0 15.333 4.33301 27.333 13 36s19.334 15.167 32.001 19.5s26.167 7 40.5 8s27.5 1.5 39.5 1.5c26.667 0 53.167 -2.5 79.5 -7.5s51.5 -13.167 75.5 -24.5l12 144c-23.333 8 -50.666 14.333 -81.999 19
s-64 7 -98 7c-35.333 0 -71 -3.33301 -107 -10s-68.5 -18 -97.5 -34s-52.833 -37.833 -71.5 -65.5s-28 -62.5 -28 -104.5c0 -42.667 8.16699 -76.667 24.5 -102s36.666 -45.5 60.999 -60.5s50.833 -26.667 79.5 -35s55.167 -16.666 79.5 -24.999
s44.666 -18.166 60.999 -29.499s24.5 -28 24.5 -50c0 -14 -3.16699 -25.5 -9.5 -34.5s-14.833 -16 -25.5 -21s-23 -8.33301 -37 -10s-28.333 -2.5 -43 -2.5c-38.667 0 -74.334 4.33301 -107.001 13s-61 19.667 -85 33l-16 -154c28 -9.33301 59 -16.333 93 -21
s66 -7.33398 96 -8.00098z" />
    <glyph glyph-name="guillemotleft" unicode="&#xab;" 
d="M166 65h148l-110 204l110 204h-148l-119 -204zM404 65h148l-110 204l110 204h-148l-119 -204z" />
    <glyph glyph-name="registered" unicode="&#xae;" horiz-adv-x="800" 
d="M400 349c24.667 0 48 4.66699 70 14s41.333 22.333 58 39s29.667 35.834 39 57.501s14 45.167 14 70.5c0 24.667 -4.66699 48 -14 70s-22.333 41.167 -39 57.5s-36 29.166 -58 38.499s-45.333 14 -70 14s-48 -4.66699 -70 -14s-41.167 -22.166 -57.5 -38.499
s-29.166 -35.5 -38.499 -57.5s-14 -45.333 -14 -70c0 -25.333 4.66699 -48.833 14 -70.5s22.166 -40.834 38.499 -57.501s35.5 -29.667 57.5 -39s45.333 -14 70 -14zM400 400c-17.333 0 -33.333 3.33301 -48 10s-27.667 15.834 -39 27.501s-20.166 25.334 -26.499 41.001
s-9.5 32.834 -9.5 51.501s3.16699 35.834 9.5 51.501s15.166 29.167 26.499 40.5s24.333 20.333 39 27s30.667 10 48 10c16.667 0 32.667 -3.33301 48 -10s28.5 -15.667 39.5 -27s19.833 -24.833 26.5 -40.5s10 -32.834 10 -51.501s-3.33301 -35.834 -10 -51.501
s-15.5 -29.334 -26.5 -41.001s-24.167 -20.834 -39.5 -27.501s-31.333 -10 -48 -10zM329 432h48.001v82h8l43 -82h48l-47 85c16 1.33301 29.167 6 39.5 14s15.5 21.333 15.5 40c0 22 -6.33301 37.167 -19 45.5s-31.334 12.5 -56.001 12.5h-80v-197zM377.001 591h24.999
c7.33301 0 14.833 -1 22.5 -3s11.5 -6.66699 11.5 -14c0 -8 -2.66699 -13.667 -8 -17s-12.666 -5 -21.999 -5h-29v39z" />
    <glyph glyph-name="Zdotaccent" unicode="&#xaf;" 
d="M570 698h-535v-138h323l-332 -412v-148h546v138h-344l342 412v148zM245 741h144v144h-144v-144z" />
    <glyph glyph-name="Zdotaccent" unicode="&#x17b;" 
d="M570 698h-535v-138h323l-332 -412v-148h546v138h-344l342 412v148zM245 741h144v144h-144v-144z" />
    <glyph glyph-name="degree" unicode="&#xb0;" horiz-adv-x="400" 
d="M53 563c0 -20 3.83301 -39 11.5 -57s18.167 -33.667 31.5 -47s29 -23.833 47 -31.5s37 -11.5 57 -11.5s39 3.83301 57 11.5s33.667 18.167 47 31.5s23.833 29 31.5 47s11.5 37 11.5 57s-3.83301 39 -11.5 57s-18.167 33.667 -31.5 47s-29 23.833 -47 31.5
s-37 11.5 -57 11.5s-39 -3.83301 -57 -11.5s-33.667 -18.167 -47 -31.5s-23.833 -29 -31.5 -47s-11.5 -37 -11.5 -57zM129 563c0 19.333 7 36 21 50s30.667 21 50 21s36 -7 50 -21s21 -30.667 21 -50s-7 -36 -21 -50s-30.667 -21 -50 -21s-36 7 -50 21s-21 30.667 -21 50z
" />
    <glyph glyph-name="plusminus" unicode="&#xb1;" horiz-adv-x="600" 
d="M47 268h190v-112h126v112h190v126h-190v112h-126v-112h-190v-126zM47 0h506v126h-506v-126z" />
    <glyph glyph-name="ogonek" unicode="&#xb2;" horiz-adv-x="333" 
d="M167 1c-13.333 -7.33301 -27.167 -15.502 -41.5 -24.502s-27.166 -19 -38.499 -30s-20.666 -23 -27.999 -36s-11 -27.5 -11 -43.5c0 -28.667 8.5 -50.5 25.5 -65.5s40.833 -22.5 71.5 -22.5c17.333 0 33 1.33301 47 4s26.833 7 38.5 13s22.667 13.833 33 23.5
s20.166 21.834 29.499 36.501l-38 17c-7.33301 -7.33301 -16.5 -13.833 -27.5 -19.5s-22.5 -8.5 -34.5 -8.5c-11.333 0 -21.333 3.66699 -30 11s-13 17.333 -13 30c0 10.667 2.5 21.334 7.5 32.001s11.667 20.667 20 30s17.666 18.5 27.999 27.5l30.5 25.5h-69z" />
    <glyph glyph-name="ogonek" unicode="&#x2db;" horiz-adv-x="333" 
d="M167 1c-13.333 -7.33301 -27.167 -15.502 -41.5 -24.502s-27.166 -19 -38.499 -30s-20.666 -23 -27.999 -36s-11 -27.5 -11 -43.5c0 -28.667 8.5 -50.5 25.5 -65.5s40.833 -22.5 71.5 -22.5c17.333 0 33 1.33301 47 4s26.833 7 38.5 13s22.667 13.833 33 23.5
s20.166 21.834 29.499 36.501l-38 17c-7.33301 -7.33301 -16.5 -13.833 -27.5 -19.5s-22.5 -8.5 -34.5 -8.5c-11.333 0 -21.333 3.66699 -30 11s-13 17.333 -13 30c0 10.667 2.5 21.334 7.5 32.001s11.667 20.667 20 30s17.666 18.5 27.999 27.5l30.5 25.5h-69z" />
    <glyph glyph-name="lslash" unicode="&#xb3;" horiz-adv-x="334" 
d="M77 0h180v382l77 45v100l-77 -45v268h-180v-374l-77 -46v-100l77 46v-276z" />
    <glyph glyph-name="lslash" unicode="&#x142;" horiz-adv-x="334" 
d="M77 0h180v382l77 45v100l-77 -45v268h-180v-374l-77 -46v-100l77 46v-276z" />
    <glyph glyph-name="acute" unicode="&#xb4;" horiz-adv-x="333" 
d="M99 600h126l129 144h-187z" />
    <glyph glyph-name="mu" unicode="&#xb5;" horiz-adv-x="667" 
d="M611 521h-180.001v-220c0 -56.667 -9.33301 -98 -28 -124s-46.667 -39 -84 -39c-12 0 -23.167 2.16699 -33.5 6.5s-19.166 11.666 -26.499 21.999s-13 23.833 -17 40.5s-6 37.334 -6 62.001v252h-180v-731h182v198h17c41.333 0 78.833 8.5 112.5 25.5
s59.5 44.5 77.5 82.5h2v-96h164v521z" />
    <glyph glyph-name="mu" unicode="&#x3bc;" horiz-adv-x="667" 
d="M611 521h-180.001v-220c0 -56.667 -9.33301 -98 -28 -124s-46.667 -39 -84 -39c-12 0 -23.167 2.16699 -33.5 6.5s-19.166 11.666 -26.499 21.999s-13 23.833 -17 40.5s-6 37.334 -6 62.001v252h-180v-731h182v198h17c41.333 0 78.833 8.5 112.5 25.5
s59.5 44.5 77.5 82.5h2v-96h164v521z" />
    <glyph glyph-name="paragraph" unicode="&#xb6;" horiz-adv-x="620" 
d="M241 -126h120v734h97v-734h120v824h-337c-31.333 0 -60.5 -2.66699 -87.5 -8s-50.5 -14.833 -70.5 -28.5s-35.833 -31.667 -47.5 -54s-17.5 -50.5 -17.5 -84.5s5.83301 -62.167 17.5 -84.5s27.5 -40.333 47.5 -54s43.5 -23.167 70.5 -28.5s56.167 -8 87.5 -8v-474z" />
    <glyph glyph-name="periodcentered" unicode="&#xb7;" horiz-adv-x="306" 
d="M60 272c0 -12.667 2.5 -24.667 7.5 -36s11.667 -21.166 20 -29.499s18.166 -15 29.499 -20s23.333 -7.5 36 -7.5s24.667 2.5 36 7.5s21.166 11.667 29.499 20s15 18.166 20 29.499s7.5 23.333 7.5 36s-2.5 24.667 -7.5 36s-11.667 21.166 -20 29.499
s-18.166 15 -29.499 20s-23.333 7.5 -36 7.5s-24.667 -2.5 -36 -7.5s-21.166 -11.667 -29.499 -20s-15 -18.166 -20 -29.499s-7.5 -23.333 -7.5 -36z" />
    <glyph glyph-name="periodcentered" unicode="&#x22c5;" horiz-adv-x="306" 
d="M60 272c0 -12.667 2.5 -24.667 7.5 -36s11.667 -21.166 20 -29.499s18.166 -15 29.499 -20s23.333 -7.5 36 -7.5s24.667 2.5 36 7.5s21.166 11.667 29.499 20s15 18.166 20 29.499s7.5 23.333 7.5 36s-2.5 24.667 -7.5 36s-11.667 21.166 -20 29.499
s-18.166 15 -29.499 20s-23.333 7.5 -36 7.5s-24.667 -2.5 -36 -7.5s-21.166 -11.667 -29.499 -20s-15 -18.166 -20 -29.499s-7.5 -23.333 -7.5 -36z" />
    <glyph glyph-name="cedilla" unicode="&#xb8;" horiz-adv-x="333" 
d="M147 1l-42 -90.0029l39 -24c10 4 19.333 6 28 6c10 0 18.833 -2.33301 26.5 -7s11.5 -14 11.5 -28c0 -11.333 -4.5 -19.333 -13.5 -24s-21.5 -7 -37.5 -7c-14.667 0 -29.167 1.83301 -43.5 5.5s-28.833 8.83398 -43.5 15.501l-17 -46
c17.333 -7.33301 35.666 -13 54.999 -17s42.666 -6 69.999 -6c18 0 35 1.33301 51 4s30 6.83398 42 12.501s21.5 13.334 28.5 23.001s10.5 21.5 10.5 35.5c0 16 -2.33301 29.5 -7 40.5s-10.667 20 -18 27s-15.666 12 -24.999 15s-18.666 4.5 -27.999 4.5
c-11.333 0 -20.333 -0.5 -27 -1.5s-13.667 -2.16699 -21 -3.5l27 65h-66z" />
    <glyph glyph-name="aogonek" unicode="&#xb9;" 
d="M199 165c0 25.333 10.499 43.1689 31.499 53.502s46.833 15.5 77.5 15.5c13.333 0 26.5 -0.333008 39.5 -1s25.167 -1.33398 36.5 -2.00098c0 -15.333 -2.66699 -30.333 -8 -45s-12.666 -27.834 -21.999 -39.501s-21 -21 -35 -28s-29.333 -10.5 -46 -10.5
c-21.333 0 -39 5 -53 15s-21 24 -21 42zM98.999 374.003c25.333 14 52.001 23.998 80.001 29.998s56.667 9 86 9c16 0 31.167 -1.33301 45.5 -4s27 -7.5 38 -14.5s19.667 -16.167 26 -27.5s9.5 -26 9.5 -44c-11.333 2 -24.5 3.66699 -39.5 5s-29.833 2 -44.5 2
c-24 0 -51.5 -1.83301 -82.5 -5.5s-60.333 -11.667 -88 -24s-51 -30.166 -70 -53.499s-28.5 -55 -28.5 -95c0 -28 5.33301 -52.333 16 -73s25 -37.834 43 -51.501s38.667 -23.667 62 -30s48 -9.5 74 -9.5c37.333 0 69 7.5 95 22.5s49.333 38.833 70 71.5h2
c0 -13.333 0.5 -26.833 1.5 -40.5s1.83301 -27.5 2.5 -41.5h9c-13.333 -7.33301 -27 -15.5 -41 -24.5s-26.667 -19 -38 -30s-20.5 -23 -27.5 -36s-10.5 -27.167 -10.5 -42.5c0 -28.667 8.5 -50.5 25.5 -65.5s40.833 -22.5 71.5 -22.5c17.333 0 33 1.33301 47 4
s26.833 7 38.5 13s22.667 13.833 33 23.5s20.166 21.834 29.499 36.501l-38 17c-7.33301 -7.33301 -16.5 -13.833 -27.5 -19.5s-22.5 -8.5 -34.5 -8.5c-11.333 0 -21.333 3.66699 -30 11s-13 17.333 -13 30c0 10.667 2.5 21.334 7.5 32.001s11.667 20.667 20 30
s17.5 18.333 27.5 27l30 25h86c-4 20.667 -6.66699 41.167 -8 61.5s-2 40.833 -2 61.5v194c0 40 -6.66699 73.667 -20 101s-31.333 49.5 -54 66.5s-49 29.333 -79 37s-61.667 11.5 -95 11.5c-38.667 0 -75 -2.83301 -109 -8.5s-67 -15.167 -99 -28.5z" />
    <glyph glyph-name="aogonek" unicode="&#x105;" 
d="M199 165c0 25.333 10.499 43.1689 31.499 53.502s46.833 15.5 77.5 15.5c13.333 0 26.5 -0.333008 39.5 -1s25.167 -1.33398 36.5 -2.00098c0 -15.333 -2.66699 -30.333 -8 -45s-12.666 -27.834 -21.999 -39.501s-21 -21 -35 -28s-29.333 -10.5 -46 -10.5
c-21.333 0 -39 5 -53 15s-21 24 -21 42zM98.999 374.003c25.333 14 52.001 23.998 80.001 29.998s56.667 9 86 9c16 0 31.167 -1.33301 45.5 -4s27 -7.5 38 -14.5s19.667 -16.167 26 -27.5s9.5 -26 9.5 -44c-11.333 2 -24.5 3.66699 -39.5 5s-29.833 2 -44.5 2
c-24 0 -51.5 -1.83301 -82.5 -5.5s-60.333 -11.667 -88 -24s-51 -30.166 -70 -53.499s-28.5 -55 -28.5 -95c0 -28 5.33301 -52.333 16 -73s25 -37.834 43 -51.501s38.667 -23.667 62 -30s48 -9.5 74 -9.5c37.333 0 69 7.5 95 22.5s49.333 38.833 70 71.5h2
c0 -13.333 0.5 -26.833 1.5 -40.5s1.83301 -27.5 2.5 -41.5h9c-13.333 -7.33301 -27 -15.5 -41 -24.5s-26.667 -19 -38 -30s-20.5 -23 -27.5 -36s-10.5 -27.167 -10.5 -42.5c0 -28.667 8.5 -50.5 25.5 -65.5s40.833 -22.5 71.5 -22.5c17.333 0 33 1.33301 47 4
s26.833 7 38.5 13s22.667 13.833 33 23.5s20.166 21.834 29.499 36.501l-38 17c-7.33301 -7.33301 -16.5 -13.833 -27.5 -19.5s-22.5 -8.5 -34.5 -8.5c-11.333 0 -21.333 3.66699 -30 11s-13 17.333 -13 30c0 10.667 2.5 21.334 7.5 32.001s11.667 20.667 20 30
s17.5 18.333 27.5 27l30 25h86c-4 20.667 -6.66699 41.167 -8 61.5s-2 40.833 -2 61.5v194c0 40 -6.66699 73.667 -20 101s-31.333 49.5 -54 66.5s-49 29.333 -79 37s-61.667 11.5 -95 11.5c-38.667 0 -75 -2.83301 -109 -8.5s-67 -15.167 -99 -28.5z" />
    <glyph glyph-name="scedilla" unicode="&#xba;" horiz-adv-x="500" 
d="M159 -89l38.9961 -24c10 4 19.333 6 28 6c10 0 18.833 -2.33301 26.5 -7s11.5 -14 11.5 -28c0 -11.333 -4.5 -19.333 -13.5 -24s-21.5 -7 -37.5 -7c-14.667 0 -29.167 1.83301 -43.5 5.5s-28.833 8.83398 -43.5 15.501l-17 -46c17.333 -7.33301 35.666 -13 54.999 -17
s42.666 -6 69.999 -6c18 0 35 1.33301 51 4s30 6.83398 42 12.501s21.5 13.334 28.5 23.001s10.5 21.5 10.5 35.5c0 16 -2.33301 29.5 -7 40.5s-10.667 20 -18 27s-15.666 12 -24.999 15s-18.666 4.5 -27.999 4.5c-11.333 0 -20.333 -0.5 -27 -1.5
s-13.667 -2.16699 -21 -3.5l22 54c26.667 2 52.5 6.16699 77.5 12.5s47 16.166 66 29.499s34.167 30.5 45.5 51.5s17 47.167 17 78.5c0 32.667 -6.66699 59 -20 79s-29.833 35.667 -49.5 47s-41.167 19.833 -64.5 25.5l-64.5 16c-19.667 5 -36.167 10.833 -49.5 17.5
s-20 16.667 -20 30c0 7.33301 2.5 13.333 7.5 18s11.5 8.33398 19.5 11.001s16.833 4.5 26.5 5.5s19.5 1.5 29.5 1.5c22.667 0 46.834 -3 72.501 -9s48.167 -14.667 67.5 -26l14 125c-29.333 11.333 -59.333 19.166 -90 23.499s-61.667 6.5 -93 6.5
c-26 0 -52.167 -3.16699 -78.5 -9.5s-50.166 -16.333 -71.499 -30s-38.666 -31.167 -51.999 -52.5s-20 -47 -20 -77c0 -31.333 6.33301 -56.333 19 -75s28.5 -33.5 47.5 -44.5s39.5 -19.333 61.5 -25l61.5 -16.5c19 -5.33301 34.833 -11.833 47.5 -19.5
s19 -18.834 19 -33.501c0 -18 -7.5 -29.5 -22.5 -34.5s-31.833 -7.5 -50.5 -7.5c-32.667 0 -63.667 3.66699 -93 11s-54.666 15.666 -75.999 24.999l-10 -131c23.333 -7.33301 47.333 -13 72 -17s53.667 -6.33301 87 -7z" />
    <glyph glyph-name="scedilla" unicode="&#xf6c2;" horiz-adv-x="500" 
d="M159 -89l38.9961 -24c10 4 19.333 6 28 6c10 0 18.833 -2.33301 26.5 -7s11.5 -14 11.5 -28c0 -11.333 -4.5 -19.333 -13.5 -24s-21.5 -7 -37.5 -7c-14.667 0 -29.167 1.83301 -43.5 5.5s-28.833 8.83398 -43.5 15.501l-17 -46c17.333 -7.33301 35.666 -13 54.999 -17
s42.666 -6 69.999 -6c18 0 35 1.33301 51 4s30 6.83398 42 12.501s21.5 13.334 28.5 23.001s10.5 21.5 10.5 35.5c0 16 -2.33301 29.5 -7 40.5s-10.667 20 -18 27s-15.666 12 -24.999 15s-18.666 4.5 -27.999 4.5c-11.333 0 -20.333 -0.5 -27 -1.5
s-13.667 -2.16699 -21 -3.5l22 54c26.667 2 52.5 6.16699 77.5 12.5s47 16.166 66 29.499s34.167 30.5 45.5 51.5s17 47.167 17 78.5c0 32.667 -6.66699 59 -20 79s-29.833 35.667 -49.5 47s-41.167 19.833 -64.5 25.5l-64.5 16c-19.667 5 -36.167 10.833 -49.5 17.5
s-20 16.667 -20 30c0 7.33301 2.5 13.333 7.5 18s11.5 8.33398 19.5 11.001s16.833 4.5 26.5 5.5s19.5 1.5 29.5 1.5c22.667 0 46.834 -3 72.501 -9s48.167 -14.667 67.5 -26l14 125c-29.333 11.333 -59.333 19.166 -90 23.499s-61.667 6.5 -93 6.5
c-26 0 -52.167 -3.16699 -78.5 -9.5s-50.166 -16.333 -71.499 -30s-38.666 -31.167 -51.999 -52.5s-20 -47 -20 -77c0 -31.333 6.33301 -56.333 19 -75s28.5 -33.5 47.5 -44.5s39.5 -19.333 61.5 -25l61.5 -16.5c19 -5.33301 34.833 -11.833 47.5 -19.5
s19 -18.834 19 -33.501c0 -18 -7.5 -29.5 -22.5 -34.5s-31.833 -7.5 -50.5 -7.5c-32.667 0 -63.667 3.66699 -93 11s-54.666 15.666 -75.999 24.999l-10 -131c23.333 -7.33301 47.333 -13 72 -17s53.667 -6.33301 87 -7z" />
    <glyph glyph-name="scedilla" unicode="&#x15f;" horiz-adv-x="500" 
d="M159 -89l38.9961 -24c10 4 19.333 6 28 6c10 0 18.833 -2.33301 26.5 -7s11.5 -14 11.5 -28c0 -11.333 -4.5 -19.333 -13.5 -24s-21.5 -7 -37.5 -7c-14.667 0 -29.167 1.83301 -43.5 5.5s-28.833 8.83398 -43.5 15.501l-17 -46c17.333 -7.33301 35.666 -13 54.999 -17
s42.666 -6 69.999 -6c18 0 35 1.33301 51 4s30 6.83398 42 12.501s21.5 13.334 28.5 23.001s10.5 21.5 10.5 35.5c0 16 -2.33301 29.5 -7 40.5s-10.667 20 -18 27s-15.666 12 -24.999 15s-18.666 4.5 -27.999 4.5c-11.333 0 -20.333 -0.5 -27 -1.5
s-13.667 -2.16699 -21 -3.5l22 54c26.667 2 52.5 6.16699 77.5 12.5s47 16.166 66 29.499s34.167 30.5 45.5 51.5s17 47.167 17 78.5c0 32.667 -6.66699 59 -20 79s-29.833 35.667 -49.5 47s-41.167 19.833 -64.5 25.5l-64.5 16c-19.667 5 -36.167 10.833 -49.5 17.5
s-20 16.667 -20 30c0 7.33301 2.5 13.333 7.5 18s11.5 8.33398 19.5 11.001s16.833 4.5 26.5 5.5s19.5 1.5 29.5 1.5c22.667 0 46.834 -3 72.501 -9s48.167 -14.667 67.5 -26l14 125c-29.333 11.333 -59.333 19.166 -90 23.499s-61.667 6.5 -93 6.5
c-26 0 -52.167 -3.16699 -78.5 -9.5s-50.166 -16.333 -71.499 -30s-38.666 -31.167 -51.999 -52.5s-20 -47 -20 -77c0 -31.333 6.33301 -56.333 19 -75s28.5 -33.5 47.5 -44.5s39.5 -19.333 61.5 -25l61.5 -16.5c19 -5.33301 34.833 -11.833 47.5 -19.5
s19 -18.834 19 -33.501c0 -18 -7.5 -29.5 -22.5 -34.5s-31.833 -7.5 -50.5 -7.5c-32.667 0 -63.667 3.66699 -93 11s-54.666 15.666 -75.999 24.999l-10 -131c23.333 -7.33301 47.333 -13 72 -17s53.667 -6.33301 87 -7z" />
    <glyph glyph-name="guillemotright" unicode="&#xbb;" 
d="M207 473h-148l110 -204l-110 -204h148l119 204zM445 473h-148l110 -204l-110 -204h148l119 204z" />
    <glyph glyph-name="Lcaron" unicode="&#xbc;" horiz-adv-x="556" 
d="M65 0h474v138h-288v560h-186v-698zM320 592l71.999 0.000976562c-2 -18.667 -10.667 -32.5 -26 -41.5s-32.333 -13.5 -51 -13.5v-43c42.667 0 77.334 9.66699 104.001 29s40 50.666 40 93.999v81h-139v-106z" />
    <glyph glyph-name="Lcaron" unicode="&#x13d;" horiz-adv-x="556" 
d="M65 0h474v138h-288v560h-186v-698zM320 592l71.999 0.000976562c-2 -18.667 -10.667 -32.5 -26 -41.5s-32.333 -13.5 -51 -13.5v-43c42.667 0 77.334 9.66699 104.001 29s40 50.666 40 93.999v81h-139v-106z" />
    <glyph glyph-name="hungarumlaut" unicode="&#xbd;" horiz-adv-x="333" 
d="M-25 600h126l129 144h-187zM223 600h126l129 144h-187z" />
    <glyph glyph-name="hungarumlaut" unicode="&#x2dd;" horiz-adv-x="333" 
d="M-25 600h126l129 144h-187zM223 600h126l129 144h-187z" />
    <glyph glyph-name="lcaron" unicode="&#xbe;" horiz-adv-x="415" 
d="M77 0h180v750h-180v-750zM307 644l71.999 0.000976562c-2 -18.667 -10.667 -32.5 -26 -41.5s-32.333 -13.5 -51 -13.5v-43c42.667 0 77.334 9.66699 104.001 29s40 50.666 40 93.999v81h-139v-106z" />
    <glyph glyph-name="lcaron" unicode="&#x13e;" horiz-adv-x="415" 
d="M77 0h180v750h-180v-750zM307 644l71.999 0.000976562c-2 -18.667 -10.667 -32.5 -26 -41.5s-32.333 -13.5 -51 -13.5v-43c42.667 0 77.334 9.66699 104.001 29s40 50.666 40 93.999v81h-139v-106z" />
    <glyph glyph-name="zdotaccent" unicode="&#xbf;" horiz-adv-x="500" 
d="M26 0h448v132h-242l238 245v144h-439v-132h233l-238 -245v-144zM189 600h144v144h-144v-144z" />
    <glyph glyph-name="zdotaccent" unicode="&#x17c;" horiz-adv-x="500" 
d="M26 0h448v132h-242l238 245v144h-439v-132h233l-238 -245v-144zM189 600h144v144h-144v-144z" />
    <glyph glyph-name="Racute" unicode="&#xc0;" horiz-adv-x="667" 
d="M60 0l186.005 -0.00195312v276h39c17.333 0 32.166 -2.16699 44.499 -6.5s23.333 -12.166 33 -23.499s18.667 -26.666 27 -45.999s17.166 -44 26.499 -74l40 -126h194l-68 190c-8.66699 21.333 -15.834 40.5 -21.501 57.5s-11.834 32 -18.501 45s-14.5 23.833 -23.5 32.5
s-20.833 15 -35.5 19v2c45.333 10.667 79 31 101 61s33 68.333 33 115c0 30 -5.83301 56 -17.5 78s-27.834 40.333 -48.501 55s-44.667 25.5 -72 32.5s-56.333 10.5 -87 10.5h-332v-698zM246.005 565.998l49.001 -0.000976562c18 0 35.167 -1 51.5 -3
s30.666 -5.66699 42.999 -11s22.333 -13.166 30 -23.499s11.5 -23.5 11.5 -39.5c0 -20 -4.33301 -35.333 -13 -46s-19.5 -18.667 -32.5 -24s-27.667 -8.5 -44 -9.5s-31.833 -1.5 -46.5 -1.5h-49v158zM219.006 740.997h126l129 144h-187z" />
    <glyph glyph-name="Racute" unicode="&#x154;" horiz-adv-x="667" 
d="M60 0l186.005 -0.00195312v276h39c17.333 0 32.166 -2.16699 44.499 -6.5s23.333 -12.166 33 -23.499s18.667 -26.666 27 -45.999s17.166 -44 26.499 -74l40 -126h194l-68 190c-8.66699 21.333 -15.834 40.5 -21.501 57.5s-11.834 32 -18.501 45s-14.5 23.833 -23.5 32.5
s-20.833 15 -35.5 19v2c45.333 10.667 79 31 101 61s33 68.333 33 115c0 30 -5.83301 56 -17.5 78s-27.834 40.333 -48.501 55s-44.667 25.5 -72 32.5s-56.333 10.5 -87 10.5h-332v-698zM246.005 565.998l49.001 -0.000976562c18 0 35.167 -1 51.5 -3
s30.666 -5.66699 42.999 -11s22.333 -13.166 30 -23.499s11.5 -23.5 11.5 -39.5c0 -20 -4.33301 -35.333 -13 -46s-19.5 -18.667 -32.5 -24s-27.667 -8.5 -44 -9.5s-31.833 -1.5 -46.5 -1.5h-49v158zM219.006 740.997h126l129 144h-187z" />
    <glyph glyph-name="Aacute" unicode="&#xc1;" horiz-adv-x="778" 
d="M8 0h189l55 149h262l52 -149h204l-269 698h-228zM470 281h-175l90 273h2zM319 741h126l129 144h-187z" />
    <glyph glyph-name="Acircumflex" unicode="&#xc2;" horiz-adv-x="778" 
d="M8 0h189l55 149h262l52 -149h204l-269 698h-228zM470 281h-175l90 273h2zM194 741h125l69 78l65 -78h125l-109 144h-162z" />
    <glyph glyph-name="Abreve" unicode="&#xc3;" horiz-adv-x="778" 
d="M8 0h189l55 149h262l52 -149h204l-269 698h-228zM470 281h-175l90 273h2zM198 885c5.33301 -48 23.168 -86.167 53.501 -114.5s75.5 -42.5 135.5 -42.5s105.167 14.167 135.5 42.5s48.166 66.5 53.499 114.5h-76c-6.66699 -28 -20.667 -47.167 -42 -57.5
s-45 -15.5 -71 -15.5s-49.667 5.16699 -71 15.5s-35.333 29.5 -42 57.5h-76z" />
    <glyph glyph-name="Abreve" unicode="&#x102;" horiz-adv-x="778" 
d="M8 0h189l55 149h262l52 -149h204l-269 698h-228zM470 281h-175l90 273h2zM198 885c5.33301 -48 23.168 -86.167 53.501 -114.5s75.5 -42.5 135.5 -42.5s105.167 14.167 135.5 42.5s48.166 66.5 53.499 114.5h-76c-6.66699 -28 -20.667 -47.167 -42 -57.5
s-45 -15.5 -71 -15.5s-49.667 5.16699 -71 15.5s-35.333 29.5 -42 57.5h-76z" />
    <glyph glyph-name="Adieresis" unicode="&#xc4;" horiz-adv-x="778" 
d="M8 0h189l55 149h262l52 -149h204l-269 698h-228zM470 281h-175l90 273h2zM429 741h144v144h-144v-144zM201 741h144v144h-144v-144z" />
    <glyph glyph-name="Lacute" unicode="&#xc5;" horiz-adv-x="556" 
d="M65 0h474v138h-288v560h-186v-698zM99 741h126l129 144h-187z" />
    <glyph glyph-name="Lacute" unicode="&#x139;" horiz-adv-x="556" 
d="M65 0h474v138h-288v560h-186v-698zM99 741h126l129 144h-187z" />
    <glyph glyph-name="Cacute" unicode="&#xc6;" horiz-adv-x="667" 
d="M638 162c-25.333 -10 -53 -18.5 -83 -25.5s-60.333 -10.5 -91 -10.5c-34 0 -65.333 5 -94 15s-53.167 24.5 -73.5 43.5s-36.333 42.167 -48 69.5s-17.5 58 -17.5 92c0 32.667 5.16699 62.834 15.5 90.501s25 51.5 44 71.5s41.833 35.667 68.5 47s56.667 17 90 17
c32 0 62.833 -4 92.5 -12s59.5 -20.333 89.5 -37l15 151c-34 10 -68 18.5 -102 25.5s-69 10.5 -105 10.5c-57.333 0 -110.5 -7.5 -159.5 -22.5s-91.333 -37.667 -127 -68s-63.5 -68.333 -83.5 -114s-30 -98.834 -30 -159.501c0 -66 12.167 -121.833 36.5 -167.5
s55.666 -82.5 93.999 -110.5s81.333 -48.333 129 -61s94.834 -19 141.501 -19c47.333 0 87 3 119 9s61.333 12.333 88 19zM353 741h126l129 144h-187z" />
    <glyph glyph-name="Cacute" unicode="&#x106;" horiz-adv-x="667" 
d="M638 162c-25.333 -10 -53 -18.5 -83 -25.5s-60.333 -10.5 -91 -10.5c-34 0 -65.333 5 -94 15s-53.167 24.5 -73.5 43.5s-36.333 42.167 -48 69.5s-17.5 58 -17.5 92c0 32.667 5.16699 62.834 15.5 90.501s25 51.5 44 71.5s41.833 35.667 68.5 47s56.667 17 90 17
c32 0 62.833 -4 92.5 -12s59.5 -20.333 89.5 -37l15 151c-34 10 -68 18.5 -102 25.5s-69 10.5 -105 10.5c-57.333 0 -110.5 -7.5 -159.5 -22.5s-91.333 -37.667 -127 -68s-63.5 -68.333 -83.5 -114s-30 -98.834 -30 -159.501c0 -66 12.167 -121.833 36.5 -167.5
s55.666 -82.5 93.999 -110.5s81.333 -48.333 129 -61s94.834 -19 141.501 -19c47.333 0 87 3 119 9s61.333 12.333 88 19zM353 741h126l129 144h-187z" />
    <glyph glyph-name="Ccedilla" unicode="&#xc7;" horiz-adv-x="667" 
d="M326 -89l39 -24.0049c10 4 19.333 6 28 6c10 0 18.833 -2.33301 26.5 -7s11.5 -14 11.5 -28c0 -11.333 -4.5 -19.333 -13.5 -24s-21.5 -7 -37.5 -7c-14.667 0 -29.167 1.83301 -43.5 5.5s-28.833 8.83398 -43.5 15.501l-17 -46c17.333 -7.33301 35.666 -13 54.999 -17
s42.666 -6 69.999 -6c18 0 35 1.33301 51 4s30 6.83398 42 12.501s21.5 13.334 28.5 23.001s10.5 21.5 10.5 35.5c0 16 -2.33301 29.5 -7 40.5s-10.667 20 -18 27s-15.666 12 -24.999 15s-18.666 4.5 -27.999 4.5c-11.333 0 -20.333 -0.5 -27 -1.5
s-13.667 -2.16699 -21 -3.5l22 53c1.33301 0 3 -0.166992 5 -0.5s4 -0.5 6 -0.5c47.333 0 87 3 119 9s61.333 12.333 88 19l-9 146c-25.333 -10 -53 -18.5 -83 -25.5s-60.333 -10.5 -91 -10.5c-34 0 -65.333 5 -94 15s-53.167 24.5 -73.5 43.5s-36.333 42.167 -48 69.5
s-17.5 58 -17.5 92c0 32.667 5.16699 62.834 15.5 90.501s25 51.5 44 71.5s41.833 35.667 68.5 47s56.667 17 90 17c32 0 62.833 -4 92.5 -12s59.5 -20.333 89.5 -37l15 151c-34 10 -68 18.5 -102 25.5s-69 10.5 -105 10.5c-57.333 0 -110.5 -7.5 -159.5 -22.5
s-91.333 -37.667 -127 -68s-63.5 -68.333 -83.5 -114s-30 -98.834 -30 -159.501c0 -57.333 9.16699 -106.666 27.5 -147.999s42.833 -76.166 73.5 -104.499s65.5 -50.5 104.5 -66.5s79.167 -27 120.5 -33z" />
    <glyph glyph-name="Ccaron" unicode="&#xc8;" horiz-adv-x="667" 
d="M638 162c-25.333 -10 -53 -18.5 -83 -25.5s-60.333 -10.5 -91 -10.5c-34 0 -65.333 5 -94 15s-53.167 24.5 -73.5 43.5s-36.333 42.167 -48 69.5s-17.5 58 -17.5 92c0 32.667 5.16699 62.834 15.5 90.501s25 51.5 44 71.5s41.833 35.667 68.5 47s56.667 17 90 17
c32 0 62.833 -4 92.5 -12s59.5 -20.333 89.5 -37l15 151c-34 10 -68 18.5 -102 25.5s-69 10.5 -105 10.5c-57.333 0 -110.5 -7.5 -159.5 -22.5s-91.333 -37.667 -127 -68s-63.5 -68.333 -83.5 -114s-30 -98.834 -30 -159.501c0 -66 12.167 -121.833 36.5 -167.5
s55.666 -82.5 93.999 -110.5s81.333 -48.333 129 -61s94.834 -19 141.501 -19c47.333 0 87 3 119 9s61.333 12.333 88 19zM629 885h-111l-83 -78l-79 78h-111l109 -144h162z" />
    <glyph glyph-name="Ccaron" unicode="&#x10c;" horiz-adv-x="667" 
d="M638 162c-25.333 -10 -53 -18.5 -83 -25.5s-60.333 -10.5 -91 -10.5c-34 0 -65.333 5 -94 15s-53.167 24.5 -73.5 43.5s-36.333 42.167 -48 69.5s-17.5 58 -17.5 92c0 32.667 5.16699 62.834 15.5 90.501s25 51.5 44 71.5s41.833 35.667 68.5 47s56.667 17 90 17
c32 0 62.833 -4 92.5 -12s59.5 -20.333 89.5 -37l15 151c-34 10 -68 18.5 -102 25.5s-69 10.5 -105 10.5c-57.333 0 -110.5 -7.5 -159.5 -22.5s-91.333 -37.667 -127 -68s-63.5 -68.333 -83.5 -114s-30 -98.834 -30 -159.501c0 -66 12.167 -121.833 36.5 -167.5
s55.666 -82.5 93.999 -110.5s81.333 -48.333 129 -61s94.834 -19 141.501 -19c47.333 0 87 3 119 9s61.333 12.333 88 19zM629 885h-111l-83 -78l-79 78h-111l109 -144h162z" />
    <glyph glyph-name="Eacute" unicode="&#xc9;" 
d="M60 0h503v132h-317v158h289v132h-289v144h306v132h-492v-698zM229 741h126l129 144h-187z" />
    <glyph glyph-name="Eogonek" unicode="&#xca;" 
d="M60 0h333.001c-13.333 -7.33301 -27 -15.5 -41 -24.5s-26.667 -19 -38 -30s-20.5 -23 -27.5 -36s-10.5 -27.167 -10.5 -42.5c0 -28.667 8.5 -50.5 25.5 -65.5s40.833 -22.5 71.5 -22.5c17.333 0 33 1.33301 47 4s26.833 7 38.5 13s22.667 13.833 33 23.5
s20.166 21.834 29.499 36.501l-38 17c-7.33301 -7.33301 -16.5 -13.833 -27.5 -19.5s-22.5 -8.5 -34.5 -8.5c-11.333 0 -21.333 3.66699 -30 11s-13 17.333 -13 30c0 10.667 2.5 21.167 7.5 31.5s11.5 20.166 19.5 29.499s17.167 18.5 27.5 27.5l30.5 25.5h100v132h-317v158
h289v132h-289v144h306v132h-492v-698z" />
    <glyph glyph-name="Eogonek" unicode="&#x118;" 
d="M60 0h333.001c-13.333 -7.33301 -27 -15.5 -41 -24.5s-26.667 -19 -38 -30s-20.5 -23 -27.5 -36s-10.5 -27.167 -10.5 -42.5c0 -28.667 8.5 -50.5 25.5 -65.5s40.833 -22.5 71.5 -22.5c17.333 0 33 1.33301 47 4s26.833 7 38.5 13s22.667 13.833 33 23.5
s20.166 21.834 29.499 36.501l-38 17c-7.33301 -7.33301 -16.5 -13.833 -27.5 -19.5s-22.5 -8.5 -34.5 -8.5c-11.333 0 -21.333 3.66699 -30 11s-13 17.333 -13 30c0 10.667 2.5 21.167 7.5 31.5s11.5 20.166 19.5 29.499s17.167 18.5 27.5 27.5l30.5 25.5h100v132h-317v158
h289v132h-289v144h306v132h-492v-698z" />
    <glyph glyph-name="Edieresis" unicode="&#xcb;" 
d="M60 0h503v132h-317v158h289v132h-289v144h306v132h-492v-698zM356 741h144v144h-144v-144zM128 741h144v144h-144v-144z" />
    <glyph glyph-name="Ecaron" unicode="&#xcc;" 
d="M60 0h503v132h-317v158h289v132h-289v144h306v132h-492v-698zM509 885h-111l-83 -78l-79 78h-111l109 -144h162z" />
    <glyph glyph-name="Ecaron" unicode="&#x11a;" 
d="M60 0h503v132h-317v158h289v132h-289v144h306v132h-492v-698zM509 885h-111l-83 -78l-79 78h-111l109 -144h162z" />
    <glyph glyph-name="Iacute" unicode="&#xcd;" horiz-adv-x="334" 
d="M74 0h186v698h-186v-698zM99 741h126l129 144h-187z" />
    <glyph glyph-name="Icircumflex" unicode="&#xce;" horiz-adv-x="334" 
d="M74 0h186v698h-186v-698zM-26 741h125l69 78l65 -78h125l-109 144h-162z" />
    <glyph glyph-name="Dcaron" unicode="&#xcf;" horiz-adv-x="778" 
d="M65 0l253.998 -0.000976562c59.333 0 114.333 6.16699 165 18.5s94.334 32.333 131.001 60s65.334 63.834 86.001 108.501s31 99.667 31 165c0 67.333 -10.167 123.333 -30.5 168s-48.666 80.167 -84.999 106.5s-79.833 44.833 -130.5 55.5s-106.334 16 -167.001 16h-254
v-698zM250.998 559.999h72c68.667 0 122 -17.667 160 -53s57 -88 57 -158s-18.667 -122.667 -56 -158s-91 -53 -161 -53h-72v422zM558.998 884.999h-111l-83 -78l-79 78h-111l109 -144h162z" />
    <glyph glyph-name="Dcaron" unicode="&#x10e;" horiz-adv-x="778" 
d="M65 0l253.998 -0.000976562c59.333 0 114.333 6.16699 165 18.5s94.334 32.333 131.001 60s65.334 63.834 86.001 108.501s31 99.667 31 165c0 67.333 -10.167 123.333 -30.5 168s-48.666 80.167 -84.999 106.5s-79.833 44.833 -130.5 55.5s-106.334 16 -167.001 16h-254
v-698zM250.998 559.999h72c68.667 0 122 -17.667 160 -53s57 -88 57 -158s-18.667 -122.667 -56 -158s-91 -53 -161 -53h-72v422zM558.998 884.999h-111l-83 -78l-79 78h-111l109 -144h162z" />
    <glyph glyph-name="Dcroat" unicode="&#xd0;" horiz-adv-x="778" 
d="M251 560h72c68.667 0 122 -17.667 160 -53s57 -88 57 -158s-18.667 -122.667 -56 -158s-91 -53 -161 -53h-72v174h167v102h-167v146zM65 0l253.998 -0.000976562c59.333 0 114.333 6.16699 165 18.5s94.334 32.333 131.001 60s65.334 63.834 86.001 108.501
s31 99.667 31 165c0 67.333 -10.167 123.333 -30.5 168s-48.666 80.167 -84.999 106.5s-79.833 44.833 -130.5 55.5s-106.334 16 -167.001 16h-254v-284h-67v-102h67v-312z" />
    <glyph glyph-name="Dcroat" unicode="&#x110;" horiz-adv-x="778" 
d="M251 560h72c68.667 0 122 -17.667 160 -53s57 -88 57 -158s-18.667 -122.667 -56 -158s-91 -53 -161 -53h-72v174h167v102h-167v146zM65 0l253.998 -0.000976562c59.333 0 114.333 6.16699 165 18.5s94.334 32.333 131.001 60s65.334 63.834 86.001 108.501
s31 99.667 31 165c0 67.333 -10.167 123.333 -30.5 168s-48.666 80.167 -84.999 106.5s-79.833 44.833 -130.5 55.5s-106.334 16 -167.001 16h-254v-284h-67v-102h67v-312z" />
    <glyph glyph-name="Nacute" unicode="&#xd1;" horiz-adv-x="778" 
d="M68 0h171l-6 477h2l244 -477h231v698h-170l3 -474h-2l-236 474h-237v-698zM309 741h126l129 144h-187z" />
    <glyph glyph-name="Nacute" unicode="&#x143;" horiz-adv-x="778" 
d="M68 0h171l-6 477h2l244 -477h231v698h-170l3 -474h-2l-236 474h-237v-698zM309 741h126l129 144h-187z" />
    <glyph glyph-name="Ncaron" unicode="&#xd2;" horiz-adv-x="778" 
d="M68 0h171l-6 477h2l244 -477h231v698h-170l3 -474h-2l-236 474h-237v-698zM587 885h-111l-83 -78l-79 78h-111l109 -144h162z" />
    <glyph glyph-name="Ncaron" unicode="&#x147;" horiz-adv-x="778" 
d="M68 0h171l-6 477h2l244 -477h231v698h-170l3 -474h-2l-236 474h-237v-698zM587 885h-111l-83 -78l-79 78h-111l109 -144h162z" />
    <glyph glyph-name="Oacute" unicode="&#xd3;" horiz-adv-x="778" 
d="M39 349c0 -55.333 7.49902 -105.333 22.499 -150s37.333 -82.667 67 -114s66.167 -55.333 109.5 -72s93.666 -25 150.999 -25c56.667 0 106.834 8.33301 150.501 25s80.334 40.667 110.001 72s52 69.333 67 114s22.5 94.667 22.5 150c0 56 -7.5 106.333 -22.5 151
s-37.167 82.5 -66.5 113.5s-65.833 54.833 -109.5 71.5s-94.167 25 -151.5 25s-107.833 -8.33301 -151.5 -25s-80.167 -40.5 -109.5 -71.5s-51.5 -68.833 -66.5 -113.5s-22.5 -95 -22.5 -151zM230.999 349c0 30 3 58.5 9 85.5s15.333 50.667 28 71s29 36.5 49 48.5
s44 18 72 18s52 -6 72 -18s36.333 -28.167 49 -48.5s22 -44 28 -71s9 -55.5 9 -85.5c0 -28.667 -3 -56.5 -9 -83.5s-15.333 -50.833 -28 -71.5s-29 -37.167 -49 -49.5s-44 -18.5 -72 -18.5s-52 6.16699 -72 18.5s-36.333 28.833 -49 49.5s-22 44.5 -28 71.5
s-9 54.833 -9 83.5zM318.999 741h126l129 144h-187z" />
    <glyph glyph-name="Ocircumflex" unicode="&#xd4;" horiz-adv-x="778" 
d="M39 349c0 -55.333 7.49902 -105.333 22.499 -150s37.333 -82.667 67 -114s66.167 -55.333 109.5 -72s93.666 -25 150.999 -25c56.667 0 106.834 8.33301 150.501 25s80.334 40.667 110.001 72s52 69.333 67 114s22.5 94.667 22.5 150c0 56 -7.5 106.333 -22.5 151
s-37.167 82.5 -66.5 113.5s-65.833 54.833 -109.5 71.5s-94.167 25 -151.5 25s-107.833 -8.33301 -151.5 -25s-80.167 -40.5 -109.5 -71.5s-51.5 -68.833 -66.5 -113.5s-22.5 -95 -22.5 -151zM230.999 349c0 30 3 58.5 9 85.5s15.333 50.667 28 71s29 36.5 49 48.5
s44 18 72 18s52 -6 72 -18s36.333 -28.167 49 -48.5s22 -44 28 -71s9 -55.5 9 -85.5c0 -28.667 -3 -56.5 -9 -83.5s-15.333 -50.833 -28 -71.5s-29 -37.167 -49 -49.5s-44 -18.5 -72 -18.5s-52 6.16699 -72 18.5s-36.333 28.833 -49 49.5s-22 44.5 -28 71.5
s-9 54.833 -9 83.5zM193.999 741h125l69 78l65 -78h125l-109 144h-162z" />
    <glyph glyph-name="Ohungarumlaut" unicode="&#xd5;" horiz-adv-x="778" 
d="M39 349c0 -55.333 7.49902 -105.333 22.499 -150s37.333 -82.667 67 -114s66.167 -55.333 109.5 -72s93.666 -25 150.999 -25c56.667 0 106.834 8.33301 150.501 25s80.334 40.667 110.001 72s52 69.333 67 114s22.5 94.667 22.5 150c0 56 -7.5 106.333 -22.5 151
s-37.167 82.5 -66.5 113.5s-65.833 54.833 -109.5 71.5s-94.167 25 -151.5 25s-107.833 -8.33301 -151.5 -25s-80.167 -40.5 -109.5 -71.5s-51.5 -68.833 -66.5 -113.5s-22.5 -95 -22.5 -151zM230.999 349c0 30 3 58.5 9 85.5s15.333 50.667 28 71s29 36.5 49 48.5
s44 18 72 18s52 -6 72 -18s36.333 -28.167 49 -48.5s22 -44 28 -71s9 -55.5 9 -85.5c0 -28.667 -3 -56.5 -9 -83.5s-15.333 -50.833 -28 -71.5s-29 -37.167 -49 -49.5s-44 -18.5 -72 -18.5s-52 6.16699 -72 18.5s-36.333 28.833 -49 49.5s-22 44.5 -28 71.5
s-9 54.833 -9 83.5zM204.999 741h126l129 144h-187zM452.999 741h126l129 144h-187z" />
    <glyph glyph-name="Ohungarumlaut" unicode="&#x150;" horiz-adv-x="778" 
d="M39 349c0 -55.333 7.49902 -105.333 22.499 -150s37.333 -82.667 67 -114s66.167 -55.333 109.5 -72s93.666 -25 150.999 -25c56.667 0 106.834 8.33301 150.501 25s80.334 40.667 110.001 72s52 69.333 67 114s22.5 94.667 22.5 150c0 56 -7.5 106.333 -22.5 151
s-37.167 82.5 -66.5 113.5s-65.833 54.833 -109.5 71.5s-94.167 25 -151.5 25s-107.833 -8.33301 -151.5 -25s-80.167 -40.5 -109.5 -71.5s-51.5 -68.833 -66.5 -113.5s-22.5 -95 -22.5 -151zM230.999 349c0 30 3 58.5 9 85.5s15.333 50.667 28 71s29 36.5 49 48.5
s44 18 72 18s52 -6 72 -18s36.333 -28.167 49 -48.5s22 -44 28 -71s9 -55.5 9 -85.5c0 -28.667 -3 -56.5 -9 -83.5s-15.333 -50.833 -28 -71.5s-29 -37.167 -49 -49.5s-44 -18.5 -72 -18.5s-52 6.16699 -72 18.5s-36.333 28.833 -49 49.5s-22 44.5 -28 71.5
s-9 54.833 -9 83.5zM204.999 741h126l129 144h-187zM452.999 741h126l129 144h-187z" />
    <glyph glyph-name="Odieresis" unicode="&#xd6;" horiz-adv-x="778" 
d="M39 349c0 -55.333 7.49902 -105.333 22.499 -150s37.333 -82.667 67 -114s66.167 -55.333 109.5 -72s93.666 -25 150.999 -25c56.667 0 106.834 8.33301 150.501 25s80.334 40.667 110.001 72s52 69.333 67 114s22.5 94.667 22.5 150c0 56 -7.5 106.333 -22.5 151
s-37.167 82.5 -66.5 113.5s-65.833 54.833 -109.5 71.5s-94.167 25 -151.5 25s-107.833 -8.33301 -151.5 -25s-80.167 -40.5 -109.5 -71.5s-51.5 -68.833 -66.5 -113.5s-22.5 -95 -22.5 -151zM230.999 349c0 30 3 58.5 9 85.5s15.333 50.667 28 71s29 36.5 49 48.5
s44 18 72 18s52 -6 72 -18s36.333 -28.167 49 -48.5s22 -44 28 -71s9 -55.5 9 -85.5c0 -28.667 -3 -56.5 -9 -83.5s-15.333 -50.833 -28 -71.5s-29 -37.167 -49 -49.5s-44 -18.5 -72 -18.5s-52 6.16699 -72 18.5s-36.333 28.833 -49 49.5s-22 44.5 -28 71.5
s-9 54.833 -9 83.5zM428.999 741h144v144h-144v-144zM200.999 741h144v144h-144v-144z" />
    <glyph glyph-name="multiply" unicode="&#xd7;" horiz-adv-x="600" 
d="M214 253l-152 -152l86 -86l152 153l152 -153l86 86l-153 152l153 152l-86 86l-152 -152l-152 152l-86 -86z" />
    <glyph glyph-name="Rcaron" unicode="&#xd8;" horiz-adv-x="667" 
d="M60 0l186.005 -0.00195312v276h39c17.333 0 32.166 -2.16699 44.499 -6.5s23.333 -12.166 33 -23.499s18.667 -26.666 27 -45.999s17.166 -44 26.499 -74l40 -126h194l-68 190c-8.66699 21.333 -15.834 40.5 -21.501 57.5s-11.834 32 -18.501 45s-14.5 23.833 -23.5 32.5
s-20.833 15 -35.5 19v2c45.333 10.667 79 31 101 61s33 68.333 33 115c0 30 -5.83301 56 -17.5 78s-27.834 40.333 -48.501 55s-44.667 25.5 -72 32.5s-56.333 10.5 -87 10.5h-332v-698zM246.005 565.998l49.001 -0.000976562c18 0 35.167 -1 51.5 -3
s30.666 -5.66699 42.999 -11s22.333 -13.166 30 -23.499s11.5 -23.5 11.5 -39.5c0 -20 -4.33301 -35.333 -13 -46s-19.5 -18.667 -32.5 -24s-27.667 -8.5 -44 -9.5s-31.833 -1.5 -46.5 -1.5h-49v158zM519.006 884.997h-111l-83 -78l-79 78h-111l109 -144h162z" />
    <glyph glyph-name="Rcaron" unicode="&#x158;" horiz-adv-x="667" 
d="M60 0l186.005 -0.00195312v276h39c17.333 0 32.166 -2.16699 44.499 -6.5s23.333 -12.166 33 -23.499s18.667 -26.666 27 -45.999s17.166 -44 26.499 -74l40 -126h194l-68 190c-8.66699 21.333 -15.834 40.5 -21.501 57.5s-11.834 32 -18.501 45s-14.5 23.833 -23.5 32.5
s-20.833 15 -35.5 19v2c45.333 10.667 79 31 101 61s33 68.333 33 115c0 30 -5.83301 56 -17.5 78s-27.834 40.333 -48.501 55s-44.667 25.5 -72 32.5s-56.333 10.5 -87 10.5h-332v-698zM246.005 565.998l49.001 -0.000976562c18 0 35.167 -1 51.5 -3
s30.666 -5.66699 42.999 -11s22.333 -13.166 30 -23.499s11.5 -23.5 11.5 -39.5c0 -20 -4.33301 -35.333 -13 -46s-19.5 -18.667 -32.5 -24s-27.667 -8.5 -44 -9.5s-31.833 -1.5 -46.5 -1.5h-49v158zM519.006 884.997h-111l-83 -78l-79 78h-111l109 -144h162z" />
    <glyph glyph-name="Uring" unicode="&#xd9;" horiz-adv-x="722" 
d="M667 698h-186v-402c0 -23.333 -1.83301 -45.166 -5.5 -65.499s-10 -38.333 -19 -54s-21.167 -28 -36.5 -37s-35 -13.5 -59 -13.5s-43.667 4.5 -59 13.5s-27.5 21.333 -36.5 37s-15.333 33.667 -19 54s-5.5 42.166 -5.5 65.499v402h-186v-433
c0 -48 7.33301 -89.333 22 -124s35.5 -63.334 62.5 -86.001s59.333 -39.5 97 -50.5s79.167 -16.5 124.5 -16.5s86.833 5.5 124.5 16.5s70 27.833 97 50.5s47.833 51.334 62.5 86.001s22 76 22 124v433zM249 834c0 -15.333 3 -29.833 9 -43.5s14 -25.5 24 -35.5
s21.833 -18 35.5 -24s28.167 -9 43.5 -9s29.833 3 43.5 9s25.5 14 35.5 24s18 21.833 24 35.5s9 28.167 9 43.5s-3 29.833 -9 43.5s-14 25.5 -24 35.5s-21.833 18 -35.5 24s-28.167 9 -43.5 9s-29.833 -3 -43.5 -9s-25.5 -14 -35.5 -24s-18 -21.833 -24 -35.5
s-9 -28.167 -9 -43.5zM313 834c0 13.333 4.66699 24.666 14 33.999s20.666 14 33.999 14s24.666 -4.66699 33.999 -14s14 -20.666 14 -33.999s-4.66699 -24.666 -14 -33.999s-20.666 -14 -33.999 -14s-24.666 4.66699 -33.999 14s-14 20.666 -14 33.999z" />
    <glyph glyph-name="Uring" unicode="&#x16e;" horiz-adv-x="722" 
d="M667 698h-186v-402c0 -23.333 -1.83301 -45.166 -5.5 -65.499s-10 -38.333 -19 -54s-21.167 -28 -36.5 -37s-35 -13.5 -59 -13.5s-43.667 4.5 -59 13.5s-27.5 21.333 -36.5 37s-15.333 33.667 -19 54s-5.5 42.166 -5.5 65.499v402h-186v-433
c0 -48 7.33301 -89.333 22 -124s35.5 -63.334 62.5 -86.001s59.333 -39.5 97 -50.5s79.167 -16.5 124.5 -16.5s86.833 5.5 124.5 16.5s70 27.833 97 50.5s47.833 51.334 62.5 86.001s22 76 22 124v433zM249 834c0 -15.333 3 -29.833 9 -43.5s14 -25.5 24 -35.5
s21.833 -18 35.5 -24s28.167 -9 43.5 -9s29.833 3 43.5 9s25.5 14 35.5 24s18 21.833 24 35.5s9 28.167 9 43.5s-3 29.833 -9 43.5s-14 25.5 -24 35.5s-21.833 18 -35.5 24s-28.167 9 -43.5 9s-29.833 -3 -43.5 -9s-25.5 -14 -35.5 -24s-18 -21.833 -24 -35.5
s-9 -28.167 -9 -43.5zM313 834c0 13.333 4.66699 24.666 14 33.999s20.666 14 33.999 14s24.666 -4.66699 33.999 -14s14 -20.666 14 -33.999s-4.66699 -24.666 -14 -33.999s-20.666 -14 -33.999 -14s-24.666 4.66699 -33.999 14s-14 20.666 -14 33.999z" />
    <glyph glyph-name="Uacute" unicode="&#xda;" horiz-adv-x="722" 
d="M667 698h-186v-402c0 -23.333 -1.83301 -45.166 -5.5 -65.499s-10 -38.333 -19 -54s-21.167 -28 -36.5 -37s-35 -13.5 -59 -13.5s-43.667 4.5 -59 13.5s-27.5 21.333 -36.5 37s-15.333 33.667 -19 54s-5.5 42.166 -5.5 65.499v402h-186v-433
c0 -48 7.33301 -89.333 22 -124s35.5 -63.334 62.5 -86.001s59.333 -39.5 97 -50.5s79.167 -16.5 124.5 -16.5s86.833 5.5 124.5 16.5s70 27.833 97 50.5s47.833 51.334 62.5 86.001s22 76 22 124v433zM294 741h126l129 144h-187z" />
    <glyph glyph-name="Uhungarumlaut" unicode="&#xdb;" horiz-adv-x="722" 
d="M667 698h-186v-402c0 -23.333 -1.83301 -45.166 -5.5 -65.499s-10 -38.333 -19 -54s-21.167 -28 -36.5 -37s-35 -13.5 -59 -13.5s-43.667 4.5 -59 13.5s-27.5 21.333 -36.5 37s-15.333 33.667 -19 54s-5.5 42.166 -5.5 65.499v402h-186v-433
c0 -48 7.33301 -89.333 22 -124s35.5 -63.334 62.5 -86.001s59.333 -39.5 97 -50.5s79.167 -16.5 124.5 -16.5s86.833 5.5 124.5 16.5s70 27.833 97 50.5s47.833 51.334 62.5 86.001s22 76 22 124v433zM174 741h126l129 144h-187zM422 741h126l129 144h-187z" />
    <glyph glyph-name="Uhungarumlaut" unicode="&#x170;" horiz-adv-x="722" 
d="M667 698h-186v-402c0 -23.333 -1.83301 -45.166 -5.5 -65.499s-10 -38.333 -19 -54s-21.167 -28 -36.5 -37s-35 -13.5 -59 -13.5s-43.667 4.5 -59 13.5s-27.5 21.333 -36.5 37s-15.333 33.667 -19 54s-5.5 42.166 -5.5 65.499v402h-186v-433
c0 -48 7.33301 -89.333 22 -124s35.5 -63.334 62.5 -86.001s59.333 -39.5 97 -50.5s79.167 -16.5 124.5 -16.5s86.833 5.5 124.5 16.5s70 27.833 97 50.5s47.833 51.334 62.5 86.001s22 76 22 124v433zM174 741h126l129 144h-187zM422 741h126l129 144h-187z" />
    <glyph glyph-name="Udieresis" unicode="&#xdc;" horiz-adv-x="722" 
d="M667 698h-186v-402c0 -23.333 -1.83301 -45.166 -5.5 -65.499s-10 -38.333 -19 -54s-21.167 -28 -36.5 -37s-35 -13.5 -59 -13.5s-43.667 4.5 -59 13.5s-27.5 21.333 -36.5 37s-15.333 33.667 -19 54s-5.5 42.166 -5.5 65.499v402h-186v-433
c0 -48 7.33301 -89.333 22 -124s35.5 -63.334 62.5 -86.001s59.333 -39.5 97 -50.5s79.167 -16.5 124.5 -16.5s86.833 5.5 124.5 16.5s70 27.833 97 50.5s47.833 51.334 62.5 86.001s22 76 22 124v433zM404 741h144v144h-144v-144zM176 741h144v144h-144v-144z" />
    <glyph glyph-name="Yacute" unicode="&#xdd;" horiz-adv-x="722" 
d="M269 0h186v263l256 435h-214l-135 -280l-137 280h-214l258 -435v-263zM279 741h126l129 144h-187z" />
    <glyph glyph-name="Tcommaaccent" unicode="&#xde;" horiz-adv-x="556" 
d="M185 0h186v560h172v138h-530v-138h172v-560zM210 -155l71.999 0.000976562c-2 -18.667 -10.667 -32.5 -26 -41.5s-32.333 -13.5 -51 -13.5v-43c42.667 0 77.334 9.66699 104.001 29s40 50.666 40 93.999v81h-139v-106z" />
    <glyph glyph-name="Tcommaaccent" unicode="&#x162;" horiz-adv-x="556" 
d="M185 0h186v560h172v138h-530v-138h172v-560zM210 -155l71.999 0.000976562c-2 -18.667 -10.667 -32.5 -26 -41.5s-32.333 -13.5 -51 -13.5v-43c42.667 0 77.334 9.66699 104.001 29s40 50.666 40 93.999v81h-139v-106z" />
    <glyph glyph-name="germandbls" unicode="&#xdf;" horiz-adv-x="667" 
d="M56 0l180.005 0.00195312v507c0 17.333 1.66699 34.166 5 50.499s8.66602 30.666 15.999 42.999s17.333 22.333 30 30s28.667 11.5 48 11.5c27.333 0 48.5 -7.83301 63.5 -23.5s22.5 -39.167 22.5 -70.5c0 -28 -8.33301 -50.833 -25 -68.5s-37.667 -26.5 -63 -26.5h-25
v-128c8 1.33301 16 2 24 2h25c25.333 0 46.833 -8.33301 64.5 -25s26.5 -41 26.5 -73c0 -20 -2.5 -36.5 -7.5 -49.5s-11.833 -23.5 -20.5 -31.5s-18.834 -13.667 -30.501 -17s-23.834 -5 -36.501 -5c-11.333 0 -22.5 0.5 -33.5 1.5s-21.5 2.16699 -31.5 3.5l-5 -131
c11.333 -1.33301 24.166 -2.66602 38.499 -3.99902s31.166 -2 50.499 -2c30.667 0 61.334 3.16699 92.001 9.5s58.167 17.833 82.5 34.5s44 38.834 59 66.501s22.5 63.167 22.5 106.5c0 46.667 -11.667 85.167 -35 115.5s-62.333 49.833 -117 58.5v2
c42 14.667 73.333 35 94 61s31 62 31 108c0 39.333 -7.5 72.166 -22.5 98.499s-34.833 47.5 -59.5 63.5s-52.667 27.333 -84 34s-63 10 -95 10s-64.667 -3.33301 -98 -10s-63.833 -19.834 -91.5 -39.501s-50.334 -47 -68.001 -82s-26.5 -80.5 -26.5 -136.5v-494z" />
    <glyph glyph-name="racute" unicode="&#xe0;" horiz-adv-x="444" 
d="M437 527c-9.33301 1.33301 -19.167 2.66504 -29.5 3.99805s-20.833 2 -31.5 2c-39.333 0 -71 -9.66699 -95 -29s-43.667 -45.666 -59 -78.999h-2v96h-164v-521h180v220c0 51.333 11.333 91.333 34 120s55 43 97 43c10.667 0 21 -0.166992 31 -0.5
s20 -2.16602 30 -5.49902zM154.999 599.999h126l129 144h-187z" />
    <glyph glyph-name="racute" unicode="&#x155;" horiz-adv-x="444" 
d="M437 527c-9.33301 1.33301 -19.167 2.66504 -29.5 3.99805s-20.833 2 -31.5 2c-39.333 0 -71 -9.66699 -95 -29s-43.667 -45.666 -59 -78.999h-2v96h-164v-521h180v220c0 51.333 11.333 91.333 34 120s55 43 97 43c10.667 0 21 -0.166992 31 -0.5
s20 -2.16602 30 -5.49902zM154.999 599.999h126l129 144h-187z" />
    <glyph glyph-name="aacute" unicode="&#xe1;" 
d="M562 0c-4 20.667 -6.66699 41.167 -8 61.5s-2 40.833 -2 61.5v194c0 40 -6.66699 73.667 -20 101s-31.333 49.5 -54 66.5s-49 29.333 -79 37s-61.667 11.5 -95 11.5c-38.667 0 -75 -2.83301 -109 -8.5s-67 -15.167 -99 -28.5l3 -122c25.333 14 52 24 80 30s56.667 9 86 9
c16 0 31.167 -1.33301 45.5 -4s27 -7.5 38 -14.5s19.667 -16.167 26 -27.5s9.5 -26 9.5 -44c-11.333 2 -24.5 3.66699 -39.5 5s-29.833 2 -44.5 2c-24 0 -51.5 -1.83301 -82.5 -5.5s-60.333 -11.667 -88 -24s-51 -30.166 -70 -53.499s-28.5 -55 -28.5 -95
c0 -28 5.33301 -52.333 16 -73s25 -37.834 43 -51.501s38.667 -23.667 62 -30s48 -9.5 74 -9.5c37.333 0 69 7.5 95 22.5s49.333 38.833 70 71.5h2c0 -13.333 0.5 -26.833 1.5 -40.5s1.83301 -27.5 2.5 -41.5h165zM199 165c0 25.333 10.499 43.1689 31.499 53.502
s46.833 15.5 77.5 15.5c13.333 0 26.5 -0.333008 39.5 -1s25.167 -1.33398 36.5 -2.00098c0 -15.333 -2.66699 -30.333 -8 -45s-12.666 -27.834 -21.999 -39.501s-21 -21 -35 -28s-29.333 -10.5 -46 -10.5c-21.333 0 -39 5 -53 15s-21 24 -21 42zM237.999 600.003h126
l129 144h-187z" />
    <glyph glyph-name="acircumflex" unicode="&#xe2;" 
d="M562 0c-4 20.667 -6.66699 41.167 -8 61.5s-2 40.833 -2 61.5v194c0 40 -6.66699 73.667 -20 101s-31.333 49.5 -54 66.5s-49 29.333 -79 37s-61.667 11.5 -95 11.5c-38.667 0 -75 -2.83301 -109 -8.5s-67 -15.167 -99 -28.5l3 -122c25.333 14 52 24 80 30s56.667 9 86 9
c16 0 31.167 -1.33301 45.5 -4s27 -7.5 38 -14.5s19.667 -16.167 26 -27.5s9.5 -26 9.5 -44c-11.333 2 -24.5 3.66699 -39.5 5s-29.833 2 -44.5 2c-24 0 -51.5 -1.83301 -82.5 -5.5s-60.333 -11.667 -88 -24s-51 -30.166 -70 -53.499s-28.5 -55 -28.5 -95
c0 -28 5.33301 -52.333 16 -73s25 -37.834 43 -51.501s38.667 -23.667 62 -30s48 -9.5 74 -9.5c37.333 0 69 7.5 95 22.5s49.333 38.833 70 71.5h2c0 -13.333 0.5 -26.833 1.5 -40.5s1.83301 -27.5 2.5 -41.5h165zM199 165c0 25.333 10.499 43.1689 31.499 53.502
s46.833 15.5 77.5 15.5c13.333 0 26.5 -0.333008 39.5 -1s25.167 -1.33398 36.5 -2.00098c0 -15.333 -2.66699 -30.333 -8 -45s-12.666 -27.834 -21.999 -39.501s-21 -21 -35 -28s-29.333 -10.5 -46 -10.5c-21.333 0 -39 5 -53 15s-21 24 -21 42zM112.999 600.003h125l69 78
l65 -78h125l-109 144h-162z" />
    <glyph glyph-name="abreve" unicode="&#xe3;" 
d="M562 0c-4 20.667 -6.66699 41.167 -8 61.5s-2 40.833 -2 61.5v194c0 40 -6.66699 73.667 -20 101s-31.333 49.5 -54 66.5s-49 29.333 -79 37s-61.667 11.5 -95 11.5c-38.667 0 -75 -2.83301 -109 -8.5s-67 -15.167 -99 -28.5l3 -122c25.333 14 52 24 80 30s56.667 9 86 9
c16 0 31.167 -1.33301 45.5 -4s27 -7.5 38 -14.5s19.667 -16.167 26 -27.5s9.5 -26 9.5 -44c-11.333 2 -24.5 3.66699 -39.5 5s-29.833 2 -44.5 2c-24 0 -51.5 -1.83301 -82.5 -5.5s-60.333 -11.667 -88 -24s-51 -30.166 -70 -53.499s-28.5 -55 -28.5 -95
c0 -28 5.33301 -52.333 16 -73s25 -37.834 43 -51.501s38.667 -23.667 62 -30s48 -9.5 74 -9.5c37.333 0 69 7.5 95 22.5s49.333 38.833 70 71.5h2c0 -13.333 0.5 -26.833 1.5 -40.5s1.83301 -27.5 2.5 -41.5h165zM199 165c0 25.333 10.499 43.1689 31.499 53.502
s46.833 15.5 77.5 15.5c13.333 0 26.5 -0.333008 39.5 -1s25.167 -1.33398 36.5 -2.00098c0 -15.333 -2.66699 -30.333 -8 -45s-12.666 -27.834 -21.999 -39.501s-21 -21 -35 -28s-29.333 -10.5 -46 -10.5c-21.333 0 -39 5 -53 15s-21 24 -21 42zM116.999 744.003
c5.33301 -48 23.168 -86.167 53.501 -114.5s75.5 -42.5 135.5 -42.5s105.167 14.167 135.5 42.5s48.166 66.5 53.499 114.5h-76c-6.66699 -28 -20.667 -47.167 -42 -57.5s-45 -15.5 -71 -15.5s-49.667 5.16699 -71 15.5s-35.333 29.5 -42 57.5h-76z" />
    <glyph glyph-name="abreve" unicode="&#x103;" 
d="M562 0c-4 20.667 -6.66699 41.167 -8 61.5s-2 40.833 -2 61.5v194c0 40 -6.66699 73.667 -20 101s-31.333 49.5 -54 66.5s-49 29.333 -79 37s-61.667 11.5 -95 11.5c-38.667 0 -75 -2.83301 -109 -8.5s-67 -15.167 -99 -28.5l3 -122c25.333 14 52 24 80 30s56.667 9 86 9
c16 0 31.167 -1.33301 45.5 -4s27 -7.5 38 -14.5s19.667 -16.167 26 -27.5s9.5 -26 9.5 -44c-11.333 2 -24.5 3.66699 -39.5 5s-29.833 2 -44.5 2c-24 0 -51.5 -1.83301 -82.5 -5.5s-60.333 -11.667 -88 -24s-51 -30.166 -70 -53.499s-28.5 -55 -28.5 -95
c0 -28 5.33301 -52.333 16 -73s25 -37.834 43 -51.501s38.667 -23.667 62 -30s48 -9.5 74 -9.5c37.333 0 69 7.5 95 22.5s49.333 38.833 70 71.5h2c0 -13.333 0.5 -26.833 1.5 -40.5s1.83301 -27.5 2.5 -41.5h165zM199 165c0 25.333 10.499 43.1689 31.499 53.502
s46.833 15.5 77.5 15.5c13.333 0 26.5 -0.333008 39.5 -1s25.167 -1.33398 36.5 -2.00098c0 -15.333 -2.66699 -30.333 -8 -45s-12.666 -27.834 -21.999 -39.501s-21 -21 -35 -28s-29.333 -10.5 -46 -10.5c-21.333 0 -39 5 -53 15s-21 24 -21 42zM116.999 744.003
c5.33301 -48 23.168 -86.167 53.501 -114.5s75.5 -42.5 135.5 -42.5s105.167 14.167 135.5 42.5s48.166 66.5 53.499 114.5h-76c-6.66699 -28 -20.667 -47.167 -42 -57.5s-45 -15.5 -71 -15.5s-49.667 5.16699 -71 15.5s-35.333 29.5 -42 57.5h-76z" />
    <glyph glyph-name="adieresis" unicode="&#xe4;" 
d="M562 0c-4 20.667 -6.66699 41.167 -8 61.5s-2 40.833 -2 61.5v194c0 40 -6.66699 73.667 -20 101s-31.333 49.5 -54 66.5s-49 29.333 -79 37s-61.667 11.5 -95 11.5c-38.667 0 -75 -2.83301 -109 -8.5s-67 -15.167 -99 -28.5l3 -122c25.333 14 52 24 80 30s56.667 9 86 9
c16 0 31.167 -1.33301 45.5 -4s27 -7.5 38 -14.5s19.667 -16.167 26 -27.5s9.5 -26 9.5 -44c-11.333 2 -24.5 3.66699 -39.5 5s-29.833 2 -44.5 2c-24 0 -51.5 -1.83301 -82.5 -5.5s-60.333 -11.667 -88 -24s-51 -30.166 -70 -53.499s-28.5 -55 -28.5 -95
c0 -28 5.33301 -52.333 16 -73s25 -37.834 43 -51.501s38.667 -23.667 62 -30s48 -9.5 74 -9.5c37.333 0 69 7.5 95 22.5s49.333 38.833 70 71.5h2c0 -13.333 0.5 -26.833 1.5 -40.5s1.83301 -27.5 2.5 -41.5h165zM199 165c0 25.333 10.499 43.1689 31.499 53.502
s46.833 15.5 77.5 15.5c13.333 0 26.5 -0.333008 39.5 -1s25.167 -1.33398 36.5 -2.00098c0 -15.333 -2.66699 -30.333 -8 -45s-12.666 -27.834 -21.999 -39.501s-21 -21 -35 -28s-29.333 -10.5 -46 -10.5c-21.333 0 -39 5 -53 15s-21 24 -21 42zM347.999 600.003h144v144
h-144v-144zM119.999 600.003h144v144h-144v-144z" />
    <glyph glyph-name="lacute" unicode="&#xe5;" horiz-adv-x="334" 
d="M77 0h180v750h-180v-750zM90 785h126l129 144h-187z" />
    <glyph glyph-name="lacute" unicode="&#x13a;" horiz-adv-x="334" 
d="M77 0h180v750h-180v-750zM90 785h126l129 144h-187z" />
    <glyph glyph-name="cacute" unicode="&#xe6;" horiz-adv-x="500" 
d="M477 504c-20.667 10 -42.834 17.3311 -66.501 21.998s-49.167 7 -76.5 7c-43.333 0 -83.333 -6.16699 -120 -18.5s-68.667 -30.166 -96 -53.499s-48.666 -51.833 -63.999 -85.5s-23 -72.167 -23 -115.5s7.66699 -81.833 23 -115.5s36.666 -62 63.999 -85
s59.333 -40.667 96 -53s76.667 -18.5 120 -18.5c24 0 48.833 2 74.5 6s49.834 9.66699 72.501 17l-4 134c-15.333 -8 -32.666 -14.167 -51.999 -18.5s-39.333 -6.5 -60 -6.5c-19.333 0 -38 3.16699 -56 9.5s-33.833 15.5 -47.5 27.5s-24.5 26.5 -32.5 43.5
s-12 35.833 -12 56.5c0 22.667 3.5 42.834 10.5 60.501s16.667 32.667 29 45s27 21.833 44 28.5s35.167 10 54.5 10c21.333 0 40.666 -2.33301 57.999 -7s34.333 -12 51 -22zM243 599.998h126l129 144h-187z" />
    <glyph glyph-name="cacute" unicode="&#x107;" horiz-adv-x="500" 
d="M477 504c-20.667 10 -42.834 17.3311 -66.501 21.998s-49.167 7 -76.5 7c-43.333 0 -83.333 -6.16699 -120 -18.5s-68.667 -30.166 -96 -53.499s-48.666 -51.833 -63.999 -85.5s-23 -72.167 -23 -115.5s7.66699 -81.833 23 -115.5s36.666 -62 63.999 -85
s59.333 -40.667 96 -53s76.667 -18.5 120 -18.5c24 0 48.833 2 74.5 6s49.834 9.66699 72.501 17l-4 134c-15.333 -8 -32.666 -14.167 -51.999 -18.5s-39.333 -6.5 -60 -6.5c-19.333 0 -38 3.16699 -56 9.5s-33.833 15.5 -47.5 27.5s-24.5 26.5 -32.5 43.5
s-12 35.833 -12 56.5c0 22.667 3.5 42.834 10.5 60.501s16.667 32.667 29 45s27 21.833 44 28.5s35.167 10 54.5 10c21.333 0 40.666 -2.33301 57.999 -7s34.333 -12 51 -22zM243 599.998h126l129 144h-187z" />
    <glyph glyph-name="ccedilla" unicode="&#xe7;" horiz-adv-x="500" 
d="M219 -89l38.999 -24.0029c10 4 19.333 6 28 6c10 0 18.833 -2.33301 26.5 -7s11.5 -14 11.5 -28c0 -11.333 -4.5 -19.333 -13.5 -24s-21.5 -7 -37.5 -7c-14.667 0 -29.167 1.83301 -43.5 5.5s-28.833 8.83398 -43.5 15.501l-17 -46
c17.333 -7.33301 35.666 -13 54.999 -17s42.666 -6 69.999 -6c18 0 35 1.33301 51 4s30 6.83398 42 12.501s21.5 13.334 28.5 23.001s10.5 21.5 10.5 35.5c0 16 -2.33301 29.5 -7 40.5s-10.667 20 -18 27s-15.666 12 -24.999 15s-18.666 4.5 -27.999 4.5
c-11.333 0 -20.333 -0.5 -27 -1.5s-13.667 -2.16699 -21 -3.5l21 53c2 0 4 -0.166992 6 -0.5s4.33301 -0.5 7 -0.5c24 0 48.833 2 74.5 6s49.834 9.66699 72.501 17l-4 134c-15.333 -8 -32.666 -14.167 -51.999 -18.5s-39.333 -6.5 -60 -6.5c-19.333 0 -38 3.16699 -56 9.5
s-33.833 15.5 -47.5 27.5s-24.5 26.5 -32.5 43.5s-12 35.833 -12 56.5c0 22.667 3.5 42.834 10.5 60.501s16.667 32.667 29 45s27 21.833 44 28.5s35.167 10 54.5 10c21.333 0 40.666 -2.33301 57.999 -7s34.333 -12 51 -22l13 132c-20.667 10 -42.834 17.333 -66.501 22
s-49.167 7 -76.5 7c-43.333 0 -83.333 -6.16699 -120 -18.5s-68.667 -30.166 -96 -53.499s-48.666 -51.833 -63.999 -85.5s-23 -72.167 -23 -115.5c0 -36 5.5 -68.833 16.5 -98.5s26.5 -55.834 46.5 -78.501s44 -41.334 72 -56.001s58.667 -25 92 -31z" />
    <glyph glyph-name="ccaron" unicode="&#xe8;" horiz-adv-x="500" 
d="M477 504c-20.667 10 -42.834 17.3311 -66.501 21.998s-49.167 7 -76.5 7c-43.333 0 -83.333 -6.16699 -120 -18.5s-68.667 -30.166 -96 -53.499s-48.666 -51.833 -63.999 -85.5s-23 -72.167 -23 -115.5s7.66699 -81.833 23 -115.5s36.666 -62 63.999 -85
s59.333 -40.667 96 -53s76.667 -18.5 120 -18.5c24 0 48.833 2 74.5 6s49.834 9.66699 72.501 17l-4 134c-15.333 -8 -32.666 -14.167 -51.999 -18.5s-39.333 -6.5 -60 -6.5c-19.333 0 -38 3.16699 -56 9.5s-33.833 15.5 -47.5 27.5s-24.5 26.5 -32.5 43.5
s-12 35.833 -12 56.5c0 22.667 3.5 42.834 10.5 60.501s16.667 32.667 29 45s27 21.833 44 28.5s35.167 10 54.5 10c21.333 0 40.666 -2.33301 57.999 -7s34.333 -12 51 -22zM523 743.998h-111l-83 -78l-79 78h-111l109 -144h162z" />
    <glyph glyph-name="ccaron" unicode="&#x10d;" horiz-adv-x="500" 
d="M477 504c-20.667 10 -42.834 17.3311 -66.501 21.998s-49.167 7 -76.5 7c-43.333 0 -83.333 -6.16699 -120 -18.5s-68.667 -30.166 -96 -53.499s-48.666 -51.833 -63.999 -85.5s-23 -72.167 -23 -115.5s7.66699 -81.833 23 -115.5s36.666 -62 63.999 -85
s59.333 -40.667 96 -53s76.667 -18.5 120 -18.5c24 0 48.833 2 74.5 6s49.834 9.66699 72.501 17l-4 134c-15.333 -8 -32.666 -14.167 -51.999 -18.5s-39.333 -6.5 -60 -6.5c-19.333 0 -38 3.16699 -56 9.5s-33.833 15.5 -47.5 27.5s-24.5 26.5 -32.5 43.5
s-12 35.833 -12 56.5c0 22.667 3.5 42.834 10.5 60.501s16.667 32.667 29 45s27 21.833 44 28.5s35.167 10 54.5 10c21.333 0 40.666 -2.33301 57.999 -7s34.333 -12 51 -22zM523 743.998h-111l-83 -78l-79 78h-111l109 -144h162z" />
    <glyph glyph-name="eacute" unicode="&#xe9;" 
d="M573 208l0.000976562 33c0 38.667 -4.66699 75.667 -14 111s-24.333 66.333 -45 93s-47.834 48 -81.501 64s-74.5 24 -122.5 24c-40.667 0 -78 -6.16699 -112 -18.5s-63.333 -30 -88 -53s-44 -51.5 -58 -85.5s-21 -72.333 -21 -115c0 -43.333 7.66699 -81.833 23 -115.5
s36.666 -62.167 63.999 -85.5s59.333 -41.166 96 -53.499s76.667 -18.5 120 -18.5c34 0 67 2.66699 99 8s62.667 13.666 92 24.999v127c-27.333 -14.667 -54.5 -25 -81.5 -31s-52.833 -9 -77.5 -9c-44 0 -79.167 7.66699 -105.5 23s-42.166 41 -47.499 77h360zM211.001 310
c2 30 11 55.667 27 77s40.333 32 73 32c36 0 61.667 -10.667 77 -32s23 -47 23 -77h-200zM248.001 600h126l129 144h-187z" />
    <glyph glyph-name="eogonek" unicode="&#xea;" 
d="M211 310c2 30 11 55.667 27 77s40.333 32 73 32c36 0 61.667 -10.667 77 -32s23 -47 23 -77h-200zM573 208l0.000976562 32.9971c0 38.667 -4.66699 75.667 -14 111s-24.333 66.333 -45 93s-47.834 48 -81.501 64s-74.5 24 -122.5 24c-40.667 0 -78 -6.16699 -112 -18.5
s-63.333 -30 -88 -53s-44 -51.5 -58 -85.5s-21 -72.333 -21 -115c0 -42 7.33301 -79.5 22 -112.5s35 -61.167 61 -84.5s56.667 -41.333 92 -54s73.666 -19.667 114.999 -21c-12 -7.33301 -24 -15.166 -36 -23.499s-22.667 -17.5 -32 -27.5s-16.833 -20.833 -22.5 -32.5
s-8.5 -24.5 -8.5 -38.5c0 -28.667 8.5 -50.5 25.5 -65.5s40.833 -22.5 71.5 -22.5c17.333 0 33 1.33301 47 4s26.833 7 38.5 13s22.667 13.833 33 23.5s20.166 21.834 29.499 36.501l-38 17c-7.33301 -7.33301 -16.5 -13.833 -27.5 -19.5s-22.5 -8.5 -34.5 -8.5
c-11.333 0 -21.333 3.66699 -30 11s-13 17.333 -13 30c0 17.333 6 33.833 18 49.5s25.667 29.834 41 42.501c6.66699 6 12.834 10 18.501 12s14.167 3.66699 25.5 5c14.667 2 30.5 5 47.5 9s33.833 9.66699 50.5 17v127c-27.333 -14.667 -54.5 -25 -81.5 -31
s-52.833 -9 -77.5 -9c-44 0 -79.167 7.66699 -105.5 23s-42.166 41 -47.499 77h360z" />
    <glyph glyph-name="eogonek" unicode="&#x119;" 
d="M211 310c2 30 11 55.667 27 77s40.333 32 73 32c36 0 61.667 -10.667 77 -32s23 -47 23 -77h-200zM573 208l0.000976562 32.9971c0 38.667 -4.66699 75.667 -14 111s-24.333 66.333 -45 93s-47.834 48 -81.501 64s-74.5 24 -122.5 24c-40.667 0 -78 -6.16699 -112 -18.5
s-63.333 -30 -88 -53s-44 -51.5 -58 -85.5s-21 -72.333 -21 -115c0 -42 7.33301 -79.5 22 -112.5s35 -61.167 61 -84.5s56.667 -41.333 92 -54s73.666 -19.667 114.999 -21c-12 -7.33301 -24 -15.166 -36 -23.499s-22.667 -17.5 -32 -27.5s-16.833 -20.833 -22.5 -32.5
s-8.5 -24.5 -8.5 -38.5c0 -28.667 8.5 -50.5 25.5 -65.5s40.833 -22.5 71.5 -22.5c17.333 0 33 1.33301 47 4s26.833 7 38.5 13s22.667 13.833 33 23.5s20.166 21.834 29.499 36.501l-38 17c-7.33301 -7.33301 -16.5 -13.833 -27.5 -19.5s-22.5 -8.5 -34.5 -8.5
c-11.333 0 -21.333 3.66699 -30 11s-13 17.333 -13 30c0 17.333 6 33.833 18 49.5s25.667 29.834 41 42.501c6.66699 6 12.834 10 18.501 12s14.167 3.66699 25.5 5c14.667 2 30.5 5 47.5 9s33.833 9.66699 50.5 17v127c-27.333 -14.667 -54.5 -25 -81.5 -31
s-52.833 -9 -77.5 -9c-44 0 -79.167 7.66699 -105.5 23s-42.166 41 -47.499 77h360z" />
    <glyph glyph-name="edieresis" unicode="&#xeb;" 
d="M573 208l0.000976562 33c0 38.667 -4.66699 75.667 -14 111s-24.333 66.333 -45 93s-47.834 48 -81.501 64s-74.5 24 -122.5 24c-40.667 0 -78 -6.16699 -112 -18.5s-63.333 -30 -88 -53s-44 -51.5 -58 -85.5s-21 -72.333 -21 -115c0 -43.333 7.66699 -81.833 23 -115.5
s36.666 -62.167 63.999 -85.5s59.333 -41.166 96 -53.499s76.667 -18.5 120 -18.5c34 0 67 2.66699 99 8s62.667 13.666 92 24.999v127c-27.333 -14.667 -54.5 -25 -81.5 -31s-52.833 -9 -77.5 -9c-44 0 -79.167 7.66699 -105.5 23s-42.166 41 -47.499 77h360zM211.001 310
c2 30 11 55.667 27 77s40.333 32 73 32c36 0 61.667 -10.667 77 -32s23 -47 23 -77h-200zM368.001 600h144v144h-144v-144zM140.001 600h144v144h-144v-144z" />
    <glyph glyph-name="ecaron" unicode="&#xec;" 
d="M573 208l0.000976562 33c0 38.667 -4.66699 75.667 -14 111s-24.333 66.333 -45 93s-47.834 48 -81.501 64s-74.5 24 -122.5 24c-40.667 0 -78 -6.16699 -112 -18.5s-63.333 -30 -88 -53s-44 -51.5 -58 -85.5s-21 -72.333 -21 -115c0 -43.333 7.66699 -81.833 23 -115.5
s36.666 -62.167 63.999 -85.5s59.333 -41.166 96 -53.499s76.667 -18.5 120 -18.5c34 0 67 2.66699 99 8s62.667 13.666 92 24.999v127c-27.333 -14.667 -54.5 -25 -81.5 -31s-52.833 -9 -77.5 -9c-44 0 -79.167 7.66699 -105.5 23s-42.166 41 -47.499 77h360zM211.001 310
c2 30 11 55.667 27 77s40.333 32 73 32c36 0 61.667 -10.667 77 -32s23 -47 23 -77h-200zM518.001 744h-111l-83 -78l-79 78h-111l109 -144h162z" />
    <glyph glyph-name="ecaron" unicode="&#x11b;" 
d="M573 208l0.000976562 33c0 38.667 -4.66699 75.667 -14 111s-24.333 66.333 -45 93s-47.834 48 -81.501 64s-74.5 24 -122.5 24c-40.667 0 -78 -6.16699 -112 -18.5s-63.333 -30 -88 -53s-44 -51.5 -58 -85.5s-21 -72.333 -21 -115c0 -43.333 7.66699 -81.833 23 -115.5
s36.666 -62.167 63.999 -85.5s59.333 -41.166 96 -53.499s76.667 -18.5 120 -18.5c34 0 67 2.66699 99 8s62.667 13.666 92 24.999v127c-27.333 -14.667 -54.5 -25 -81.5 -31s-52.833 -9 -77.5 -9c-44 0 -79.167 7.66699 -105.5 23s-42.166 41 -47.499 77h360zM211.001 310
c2 30 11 55.667 27 77s40.333 32 73 32c36 0 61.667 -10.667 77 -32s23 -47 23 -77h-200zM518.001 744h-111l-83 -78l-79 78h-111l109 -144h162z" />
    <glyph glyph-name="iacute" unicode="&#xed;" horiz-adv-x="334" 
d="M77 0h180v521h-180v-521zM90 600h126l129 144h-187z" />
    <glyph glyph-name="icircumflex" unicode="&#xee;" horiz-adv-x="334" 
d="M77 0h180v521h-180v-521zM-26 600h126l69 78l65 -78h125l-109 144h-162z" />
    <glyph glyph-name="dcaron" unicode="&#xef;" horiz-adv-x="774" 
d="M616 750l-181.001 -0.00195312v-296h-2c-23.333 30 -50 50.667 -80 62s-63 17 -99 17s-67.833 -7.66699 -95.5 -23s-51 -35.5 -70 -60.5s-33.333 -53.167 -43 -84.5s-14.5 -63 -14.5 -95c0 -38.667 5.16699 -75 15.5 -109s25.5 -63.833 45.5 -89.5s44.833 -46 74.5 -61
s63.834 -22.5 102.501 -22.5c20.667 0 40.5 2.66699 59.5 8s36.5 12.833 52.5 22.5s29.667 20.834 41 33.501s20 26.334 26 41.001h2v-93h166v750zM216.999 265.998c0 17.333 2.33301 33.832 7 49.499s11.667 29.334 21 41.001s20.833 21 34.5 28s29.167 10.5 46.5 10.5
c33.333 0 60 -12.667 80 -38s30 -58 30 -98c0 -19.333 -3 -37 -9 -53s-14 -30 -24 -42s-21.667 -21.333 -35 -28s-27.333 -10 -42 -10c-34 0 -60.667 12.833 -80 38.5s-29 59.5 -29 101.5zM665.999 643.997l71.999 0.000976562c-2 -18.667 -10.667 -32.5 -26 -41.5
s-32.333 -13.5 -51 -13.5v-43c42.667 0 77.334 9.66699 104.001 29s40 50.666 40 93.999v81h-139v-106z" />
    <glyph glyph-name="dcaron" unicode="&#x10f;" horiz-adv-x="774" 
d="M616 750l-181.001 -0.00195312v-296h-2c-23.333 30 -50 50.667 -80 62s-63 17 -99 17s-67.833 -7.66699 -95.5 -23s-51 -35.5 -70 -60.5s-33.333 -53.167 -43 -84.5s-14.5 -63 -14.5 -95c0 -38.667 5.16699 -75 15.5 -109s25.5 -63.833 45.5 -89.5s44.833 -46 74.5 -61
s63.834 -22.5 102.501 -22.5c20.667 0 40.5 2.66699 59.5 8s36.5 12.833 52.5 22.5s29.667 20.834 41 33.501s20 26.334 26 41.001h2v-93h166v750zM216.999 265.998c0 17.333 2.33301 33.832 7 49.499s11.667 29.334 21 41.001s20.833 21 34.5 28s29.167 10.5 46.5 10.5
c33.333 0 60 -12.667 80 -38s30 -58 30 -98c0 -19.333 -3 -37 -9 -53s-14 -30 -24 -42s-21.667 -21.333 -35 -28s-27.333 -10 -42 -10c-34 0 -60.667 12.833 -80 38.5s-29 59.5 -29 101.5zM665.999 643.997l71.999 0.000976562c-2 -18.667 -10.667 -32.5 -26 -41.5
s-32.333 -13.5 -51 -13.5v-43c42.667 0 77.334 9.66699 104.001 29s40 50.666 40 93.999v81h-139v-106z" />
    <glyph glyph-name="dcroat" unicode="&#xf0;" horiz-adv-x="668" 
d="M217 266c0 17.333 2.33301 33.832 7 49.499s11.667 29.334 21 41.001s20.833 21 34.5 28s29.167 10.5 46.5 10.5c33.333 0 60 -12.667 80 -38s30 -58 30 -98c0 -19.333 -3 -37 -9 -53s-14 -30 -24 -42s-21.667 -21.333 -35 -28s-27.333 -10 -42 -10
c-34 0 -60.667 12.833 -80 38.5s-29 59.5 -29 101.5zM249 591.999l185.999 -0.00195312v-138h-2c-23.333 30 -50 50.667 -80 62s-63 17 -99 17s-67.833 -7.66699 -95.5 -23s-51 -35.5 -70 -60.5s-33.333 -53.167 -43 -84.5s-14.5 -63 -14.5 -95
c0 -38.667 5.16699 -75 15.5 -109s25.5 -63.833 45.5 -89.5s44.833 -46 74.5 -61s63.834 -22.5 102.501 -22.5c20.667 0 40.5 2.66699 59.5 8s36.5 12.833 52.5 22.5s29.667 20.834 41 33.501s20 26.334 26 41.001h2v-93h166v592h52v84h-52v74h-181v-74h-186v-84z" />
    <glyph glyph-name="dcroat" unicode="&#x111;" horiz-adv-x="668" 
d="M217 266c0 17.333 2.33301 33.832 7 49.499s11.667 29.334 21 41.001s20.833 21 34.5 28s29.167 10.5 46.5 10.5c33.333 0 60 -12.667 80 -38s30 -58 30 -98c0 -19.333 -3 -37 -9 -53s-14 -30 -24 -42s-21.667 -21.333 -35 -28s-27.333 -10 -42 -10
c-34 0 -60.667 12.833 -80 38.5s-29 59.5 -29 101.5zM249 591.999l185.999 -0.00195312v-138h-2c-23.333 30 -50 50.667 -80 62s-63 17 -99 17s-67.833 -7.66699 -95.5 -23s-51 -35.5 -70 -60.5s-33.333 -53.167 -43 -84.5s-14.5 -63 -14.5 -95
c0 -38.667 5.16699 -75 15.5 -109s25.5 -63.833 45.5 -89.5s44.833 -46 74.5 -61s63.834 -22.5 102.501 -22.5c20.667 0 40.5 2.66699 59.5 8s36.5 12.833 52.5 22.5s29.667 20.834 41 33.501s20 26.334 26 41.001h2v-93h166v592h52v84h-52v74h-181v-74h-186v-84z" />
    <glyph glyph-name="nacute" unicode="&#xf1;" horiz-adv-x="667" 
d="M56 0h179.999v220c0 56.667 9.33301 98 28 124s46.667 39 84 39c24.667 0 44.667 -9.66699 60 -29s23 -53.333 23 -102v-252h180v325c0 26.667 -3.66699 52.667 -11 78s-19 47.5 -35 66.5s-36.667 34.333 -62 46s-55.666 17.5 -90.999 17.5
c-41.333 0 -78.833 -8.5 -112.5 -25.5s-59.5 -44.5 -77.5 -82.5h-2v96h-164v-521zM265.999 600h126l129 144h-187z" />
    <glyph glyph-name="nacute" unicode="&#x144;" horiz-adv-x="667" 
d="M56 0h179.999v220c0 56.667 9.33301 98 28 124s46.667 39 84 39c24.667 0 44.667 -9.66699 60 -29s23 -53.333 23 -102v-252h180v325c0 26.667 -3.66699 52.667 -11 78s-19 47.5 -35 66.5s-36.667 34.333 -62 46s-55.666 17.5 -90.999 17.5
c-41.333 0 -78.833 -8.5 -112.5 -25.5s-59.5 -44.5 -77.5 -82.5h-2v96h-164v-521zM265.999 600h126l129 144h-187z" />
    <glyph glyph-name="ncaron" unicode="&#xf2;" horiz-adv-x="667" 
d="M56 0h179.999v220c0 56.667 9.33301 98 28 124s46.667 39 84 39c24.667 0 44.667 -9.66699 60 -29s23 -53.333 23 -102v-252h180v325c0 26.667 -3.66699 52.667 -11 78s-19 47.5 -35 66.5s-36.667 34.333 -62 46s-55.666 17.5 -90.999 17.5
c-41.333 0 -78.833 -8.5 -112.5 -25.5s-59.5 -44.5 -77.5 -82.5h-2v96h-164v-521zM525.999 744h-111l-83 -78l-79 78h-111l109 -144h162z" />
    <glyph glyph-name="ncaron" unicode="&#x148;" horiz-adv-x="667" 
d="M56 0h179.999v220c0 56.667 9.33301 98 28 124s46.667 39 84 39c24.667 0 44.667 -9.66699 60 -29s23 -53.333 23 -102v-252h180v325c0 26.667 -3.66699 52.667 -11 78s-19 47.5 -35 66.5s-36.667 34.333 -62 46s-55.666 17.5 -90.999 17.5
c-41.333 0 -78.833 -8.5 -112.5 -25.5s-59.5 -44.5 -77.5 -82.5h-2v96h-164v-521zM525.999 744h-111l-83 -78l-79 78h-111l109 -144h162z" />
    <glyph glyph-name="oacute" unicode="&#xf3;" horiz-adv-x="668" 
d="M334 -12c42.667 0 82.5 6.16699 119.5 18.5s69.167 30 96.5 53s48.666 51.333 63.999 85s23 72.167 23 115.5s-7.66699 81.833 -23 115.5s-36.666 62.167 -63.999 85.5s-59.5 41.166 -96.5 53.499s-76.833 18.5 -119.5 18.5c-43.333 0 -83.333 -6.16699 -120 -18.5
s-68.667 -30.166 -96 -53.499s-48.666 -51.833 -63.999 -85.5s-23 -72.167 -23 -115.5s7.66699 -81.833 23 -115.5s36.666 -62 63.999 -85s59.333 -40.667 96 -53s76.667 -18.5 120 -18.5zM334 114c-20.667 0 -38.334 4 -53.001 12s-26.834 18.667 -36.501 32
s-16.667 28.833 -21 46.5s-6.5 36.167 -6.5 55.5s2.16699 37.833 6.5 55.5s11.333 33.334 21 47.001s21.834 24.5 36.501 32.5s32.334 12 53.001 12s38.334 -4 53.001 -12s26.834 -18.833 36.501 -32.5s16.667 -29.334 21 -47.001s6.5 -36.167 6.5 -55.5
s-2.16699 -37.833 -6.5 -55.5s-11.333 -33.167 -21 -46.5s-21.834 -24 -36.501 -32s-32.334 -12 -53.001 -12zM267 600h126l129 144h-187z" />
    <glyph glyph-name="ocircumflex" unicode="&#xf4;" horiz-adv-x="668" 
d="M334 -12c42.667 0 82.5 6.16699 119.5 18.5s69.167 30 96.5 53s48.666 51.333 63.999 85s23 72.167 23 115.5s-7.66699 81.833 -23 115.5s-36.666 62.167 -63.999 85.5s-59.5 41.166 -96.5 53.499s-76.833 18.5 -119.5 18.5c-43.333 0 -83.333 -6.16699 -120 -18.5
s-68.667 -30.166 -96 -53.499s-48.666 -51.833 -63.999 -85.5s-23 -72.167 -23 -115.5s7.66699 -81.833 23 -115.5s36.666 -62 63.999 -85s59.333 -40.667 96 -53s76.667 -18.5 120 -18.5zM334 114c-20.667 0 -38.334 4 -53.001 12s-26.834 18.667 -36.501 32
s-16.667 28.833 -21 46.5s-6.5 36.167 -6.5 55.5s2.16699 37.833 6.5 55.5s11.333 33.334 21 47.001s21.834 24.5 36.501 32.5s32.334 12 53.001 12s38.334 -4 53.001 -12s26.834 -18.833 36.501 -32.5s16.667 -29.334 21 -47.001s6.5 -36.167 6.5 -55.5
s-2.16699 -37.833 -6.5 -55.5s-11.333 -33.167 -21 -46.5s-21.834 -24 -36.501 -32s-32.334 -12 -53.001 -12zM142 600h125l69 78l65 -78h125l-109 144h-162z" />
    <glyph glyph-name="ohungarumlaut" unicode="&#xf5;" horiz-adv-x="668" 
d="M334 -12c42.667 0 82.5 6.16699 119.5 18.5s69.167 30 96.5 53s48.666 51.333 63.999 85s23 72.167 23 115.5s-7.66699 81.833 -23 115.5s-36.666 62.167 -63.999 85.5s-59.5 41.166 -96.5 53.499s-76.833 18.5 -119.5 18.5c-43.333 0 -83.333 -6.16699 -120 -18.5
s-68.667 -30.166 -96 -53.499s-48.666 -51.833 -63.999 -85.5s-23 -72.167 -23 -115.5s7.66699 -81.833 23 -115.5s36.666 -62 63.999 -85s59.333 -40.667 96 -53s76.667 -18.5 120 -18.5zM334 114c-20.667 0 -38.334 4 -53.001 12s-26.834 18.667 -36.501 32
s-16.667 28.833 -21 46.5s-6.5 36.167 -6.5 55.5s2.16699 37.833 6.5 55.5s11.333 33.334 21 47.001s21.834 24.5 36.501 32.5s32.334 12 53.001 12s38.334 -4 53.001 -12s26.834 -18.833 36.501 -32.5s16.667 -29.334 21 -47.001s6.5 -36.167 6.5 -55.5
s-2.16699 -37.833 -6.5 -55.5s-11.333 -33.167 -21 -46.5s-21.834 -24 -36.501 -32s-32.334 -12 -53.001 -12zM143 600h126l129 144h-187zM391 600h126l129 144h-187z" />
    <glyph glyph-name="ohungarumlaut" unicode="&#x151;" horiz-adv-x="668" 
d="M334 -12c42.667 0 82.5 6.16699 119.5 18.5s69.167 30 96.5 53s48.666 51.333 63.999 85s23 72.167 23 115.5s-7.66699 81.833 -23 115.5s-36.666 62.167 -63.999 85.5s-59.5 41.166 -96.5 53.499s-76.833 18.5 -119.5 18.5c-43.333 0 -83.333 -6.16699 -120 -18.5
s-68.667 -30.166 -96 -53.499s-48.666 -51.833 -63.999 -85.5s-23 -72.167 -23 -115.5s7.66699 -81.833 23 -115.5s36.666 -62 63.999 -85s59.333 -40.667 96 -53s76.667 -18.5 120 -18.5zM334 114c-20.667 0 -38.334 4 -53.001 12s-26.834 18.667 -36.501 32
s-16.667 28.833 -21 46.5s-6.5 36.167 -6.5 55.5s2.16699 37.833 6.5 55.5s11.333 33.334 21 47.001s21.834 24.5 36.501 32.5s32.334 12 53.001 12s38.334 -4 53.001 -12s26.834 -18.833 36.501 -32.5s16.667 -29.334 21 -47.001s6.5 -36.167 6.5 -55.5
s-2.16699 -37.833 -6.5 -55.5s-11.333 -33.167 -21 -46.5s-21.834 -24 -36.501 -32s-32.334 -12 -53.001 -12zM143 600h126l129 144h-187zM391 600h126l129 144h-187z" />
    <glyph glyph-name="odieresis" unicode="&#xf6;" horiz-adv-x="668" 
d="M334 -12c42.667 0 82.5 6.16699 119.5 18.5s69.167 30 96.5 53s48.666 51.333 63.999 85s23 72.167 23 115.5s-7.66699 81.833 -23 115.5s-36.666 62.167 -63.999 85.5s-59.5 41.166 -96.5 53.499s-76.833 18.5 -119.5 18.5c-43.333 0 -83.333 -6.16699 -120 -18.5
s-68.667 -30.166 -96 -53.499s-48.666 -51.833 -63.999 -85.5s-23 -72.167 -23 -115.5s7.66699 -81.833 23 -115.5s36.666 -62 63.999 -85s59.333 -40.667 96 -53s76.667 -18.5 120 -18.5zM334 114c-20.667 0 -38.334 4 -53.001 12s-26.834 18.667 -36.501 32
s-16.667 28.833 -21 46.5s-6.5 36.167 -6.5 55.5s2.16699 37.833 6.5 55.5s11.333 33.334 21 47.001s21.834 24.5 36.501 32.5s32.334 12 53.001 12s38.334 -4 53.001 -12s26.834 -18.833 36.501 -32.5s16.667 -29.334 21 -47.001s6.5 -36.167 6.5 -55.5
s-2.16699 -37.833 -6.5 -55.5s-11.333 -33.167 -21 -46.5s-21.834 -24 -36.501 -32s-32.334 -12 -53.001 -12zM377 600h144v144h-144v-144zM149 600h144v144h-144v-144z" />
    <glyph glyph-name="divide" unicode="&#xf7;" horiz-adv-x="600" 
d="M47 190h506v126h-506v-126zM206 461c0 -12.667 2.5 -24.667 7.5 -36s11.667 -21.166 20 -29.499s18.166 -15 29.499 -20s23.333 -7.5 36 -7.5s24.667 2.5 36 7.5s21.166 11.667 29.499 20s15 18.166 20 29.499s7.5 23.333 7.5 36s-2.5 24.667 -7.5 36
s-11.667 21.166 -20 29.499s-18.166 15 -29.499 20s-23.333 7.5 -36 7.5s-24.667 -2.5 -36 -7.5s-21.166 -11.667 -29.499 -20s-15 -18.166 -20 -29.499s-7.5 -23.333 -7.5 -36zM206 45c0 -12.667 2.5 -24.667 7.5 -36s11.667 -21.166 20 -29.499s18.166 -15 29.499 -20
s23.333 -7.5 36 -7.5s24.667 2.5 36 7.5s21.166 11.667 29.499 20s15 18.166 20 29.499s7.5 23.333 7.5 36s-2.5 24.667 -7.5 36s-11.667 21.166 -20 29.499s-18.166 15 -29.499 20s-23.333 7.5 -36 7.5s-24.667 -2.5 -36 -7.5s-21.166 -11.667 -29.499 -20
s-15 -18.166 -20 -29.499s-7.5 -23.333 -7.5 -36z" />
    <glyph glyph-name="rcaron" unicode="&#xf8;" horiz-adv-x="444" 
d="M437 527c-9.33301 1.33301 -19.167 2.66504 -29.5 3.99805s-20.833 2 -31.5 2c-39.333 0 -71 -9.66699 -95 -29s-43.667 -45.666 -59 -78.999h-2v96h-164v-521h180v220c0 51.333 11.333 91.333 34 120s55 43 97 43c10.667 0 21 -0.166992 31 -0.5
s20 -2.16602 30 -5.49902zM444.999 743.999h-111l-83 -78l-79 78h-111l109 -144h162z" />
    <glyph glyph-name="rcaron" unicode="&#x159;" horiz-adv-x="444" 
d="M437 527c-9.33301 1.33301 -19.167 2.66504 -29.5 3.99805s-20.833 2 -31.5 2c-39.333 0 -71 -9.66699 -95 -29s-43.667 -45.666 -59 -78.999h-2v96h-164v-521h180v220c0 51.333 11.333 91.333 34 120s55 43 97 43c10.667 0 21 -0.166992 31 -0.5
s20 -2.16602 30 -5.49902zM444.999 743.999h-111l-83 -78l-79 78h-111l109 -144h162z" />
    <glyph glyph-name="uring" unicode="&#xf9;" horiz-adv-x="667" 
d="M611 521h-180v-220c0 -56.667 -9.33301 -98 -28 -124s-46.667 -39 -84 -39c-12 0 -23.167 2.16699 -33.5 6.5s-19.166 11.666 -26.499 21.999s-13 23.833 -17 40.5s-6 37.334 -6 62.001v252h-180v-325c0 -27.333 3.66699 -53.5 11 -78.5s19 -47 35 -66
s36.667 -34.333 62 -46s55.666 -17.5 90.999 -17.5c41.333 0 78.833 8.5 112.5 25.5s59.5 44.5 77.5 82.5h2v-96h164v521zM222 693c0 -15.333 3 -29.833 9 -43.5s14 -25.5 24 -35.5s21.833 -18 35.5 -24s28.167 -9 43.5 -9s29.833 3 43.5 9s25.5 14 35.5 24
s18 21.833 24 35.5s9 28.167 9 43.5s-3 29.833 -9 43.5s-14 25.5 -24 35.5s-21.833 18 -35.5 24s-28.167 9 -43.5 9s-29.833 -3 -43.5 -9s-25.5 -14 -35.5 -24s-18 -21.833 -24 -35.5s-9 -28.167 -9 -43.5zM286 693c0 13.333 4.66699 24.666 14 33.999s20.666 14 33.999 14
s24.666 -4.66699 33.999 -14s14 -20.666 14 -33.999s-4.66699 -24.666 -14 -33.999s-20.666 -14 -33.999 -14s-24.666 4.66699 -33.999 14s-14 20.666 -14 33.999z" />
    <glyph glyph-name="uring" unicode="&#x16f;" horiz-adv-x="667" 
d="M611 521h-180v-220c0 -56.667 -9.33301 -98 -28 -124s-46.667 -39 -84 -39c-12 0 -23.167 2.16699 -33.5 6.5s-19.166 11.666 -26.499 21.999s-13 23.833 -17 40.5s-6 37.334 -6 62.001v252h-180v-325c0 -27.333 3.66699 -53.5 11 -78.5s19 -47 35 -66
s36.667 -34.333 62 -46s55.666 -17.5 90.999 -17.5c41.333 0 78.833 8.5 112.5 25.5s59.5 44.5 77.5 82.5h2v-96h164v521zM222 693c0 -15.333 3 -29.833 9 -43.5s14 -25.5 24 -35.5s21.833 -18 35.5 -24s28.167 -9 43.5 -9s29.833 3 43.5 9s25.5 14 35.5 24
s18 21.833 24 35.5s9 28.167 9 43.5s-3 29.833 -9 43.5s-14 25.5 -24 35.5s-21.833 18 -35.5 24s-28.167 9 -43.5 9s-29.833 -3 -43.5 -9s-25.5 -14 -35.5 -24s-18 -21.833 -24 -35.5s-9 -28.167 -9 -43.5zM286 693c0 13.333 4.66699 24.666 14 33.999s20.666 14 33.999 14
s24.666 -4.66699 33.999 -14s14 -20.666 14 -33.999s-4.66699 -24.666 -14 -33.999s-20.666 -14 -33.999 -14s-24.666 4.66699 -33.999 14s-14 20.666 -14 33.999z" />
    <glyph glyph-name="uacute" unicode="&#xfa;" horiz-adv-x="667" 
d="M611 521h-180v-220c0 -56.667 -9.33301 -98 -28 -124s-46.667 -39 -84 -39c-12 0 -23.167 2.16699 -33.5 6.5s-19.166 11.666 -26.499 21.999s-13 23.833 -17 40.5s-6 37.334 -6 62.001v252h-180v-325c0 -27.333 3.66699 -53.5 11 -78.5s19 -47 35 -66
s36.667 -34.333 62 -46s55.666 -17.5 90.999 -17.5c41.333 0 78.833 8.5 112.5 25.5s59.5 44.5 77.5 82.5h2v-96h164v521zM266 600h126l129 144h-187z" />
    <glyph glyph-name="uhungarumlaut" unicode="&#xfb;" horiz-adv-x="667" 
d="M611 521h-180v-220c0 -56.667 -9.33301 -98 -28 -124s-46.667 -39 -84 -39c-12 0 -23.167 2.16699 -33.5 6.5s-19.166 11.666 -26.499 21.999s-13 23.833 -17 40.5s-6 37.334 -6 62.001v252h-180v-325c0 -27.333 3.66699 -53.5 11 -78.5s19 -47 35 -66
s36.667 -34.333 62 -46s55.666 -17.5 90.999 -17.5c41.333 0 78.833 8.5 112.5 25.5s59.5 44.5 77.5 82.5h2v-96h164v521zM142 600h126l129 144h-187zM390 600h126l129 144h-187z" />
    <glyph glyph-name="uhungarumlaut" unicode="&#x171;" horiz-adv-x="667" 
d="M611 521h-180v-220c0 -56.667 -9.33301 -98 -28 -124s-46.667 -39 -84 -39c-12 0 -23.167 2.16699 -33.5 6.5s-19.166 11.666 -26.499 21.999s-13 23.833 -17 40.5s-6 37.334 -6 62.001v252h-180v-325c0 -27.333 3.66699 -53.5 11 -78.5s19 -47 35 -66
s36.667 -34.333 62 -46s55.666 -17.5 90.999 -17.5c41.333 0 78.833 8.5 112.5 25.5s59.5 44.5 77.5 82.5h2v-96h164v521zM142 600h126l129 144h-187zM390 600h126l129 144h-187z" />
    <glyph glyph-name="udieresis" unicode="&#xfc;" horiz-adv-x="667" 
d="M611 521h-180v-220c0 -56.667 -9.33301 -98 -28 -124s-46.667 -39 -84 -39c-12 0 -23.167 2.16699 -33.5 6.5s-19.166 11.666 -26.499 21.999s-13 23.833 -17 40.5s-6 37.334 -6 62.001v252h-180v-325c0 -27.333 3.66699 -53.5 11 -78.5s19 -47 35 -66
s36.667 -34.333 62 -46s55.666 -17.5 90.999 -17.5c41.333 0 78.833 8.5 112.5 25.5s59.5 44.5 77.5 82.5h2v-96h164v521zM376 600h144v144h-144v-144zM148 600h144v144h-144v-144z" />
    <glyph glyph-name="yacute" unicode="&#xfd;" 
d="M45 -210c36.667 -8 74 -12.001 112 -12.001c41.333 0 75.5 7.33301 102.5 22s49.667 34 68 58s33.833 51.5 46.5 82.5l38 95.5l191 485h-180l-107 -340h-2l-112 340h-194l211 -533c-6.66699 -23.333 -18 -41.166 -34 -53.499s-35 -18.5 -57 -18.5
c-12.667 0 -24.667 0.833008 -36 2.5s-23 4.5 -35 8.5zM238 599.999h126l129 144h-187z" />
    <glyph glyph-name="tcommaaccent" unicode="&#xfe;" horiz-adv-x="444" 
d="M10 395l103 0.000976562v-212c0 -31.333 2.83301 -59 8.5 -83s16 -44.333 31 -61s35.5 -29.334 61.5 -38.001s59 -13 99 -13c22.667 0 42.834 1.16699 60.501 3.5s35.167 4.5 52.5 6.5l-6 117c-9.33301 -1.33301 -18.5 -2.83301 -27.5 -4.5s-18.167 -2.5 -27.5 -2.5
c-28.667 0 -47.834 7.83301 -57.501 23.5s-14.5 39.5 -14.5 71.5v192h126v126h-126v172l-177 -55v-117h-106v-126zM186 -154.999l71.999 0.000976562c-2 -18.667 -10.667 -32.5 -26 -41.5s-32.333 -13.5 -51 -13.5v-43c42.667 0 77.334 9.66699 104.001 29
s40 50.666 40 93.999v81h-139v-106z" />
    <glyph glyph-name="tcommaaccent" unicode="&#x163;" horiz-adv-x="444" 
d="M10 395l103 0.000976562v-212c0 -31.333 2.83301 -59 8.5 -83s16 -44.333 31 -61s35.5 -29.334 61.5 -38.001s59 -13 99 -13c22.667 0 42.834 1.16699 60.501 3.5s35.167 4.5 52.5 6.5l-6 117c-9.33301 -1.33301 -18.5 -2.83301 -27.5 -4.5s-18.167 -2.5 -27.5 -2.5
c-28.667 0 -47.834 7.83301 -57.501 23.5s-14.5 39.5 -14.5 71.5v192h126v126h-126v172l-177 -55v-117h-106v-126zM186 -154.999l71.999 0.000976562c-2 -18.667 -10.667 -32.5 -26 -41.5s-32.333 -13.5 -51 -13.5v-43c42.667 0 77.334 9.66699 104.001 29
s40 50.666 40 93.999v81h-139v-106z" />
    <glyph glyph-name="dotaccent" unicode="&#xff;" horiz-adv-x="333" 
d="M95 600h144v144h-144v-144z" />
    <glyph glyph-name="dotaccent" unicode="&#x2d9;" horiz-adv-x="333" 
d="M95 600h144v144h-144v-144z" />
    <glyph glyph-name="Amacron" unicode="&#x100;" horiz-adv-x="778" 
d="M8 0h189l55 149h262l52 -149h204l-269 698h-228zM470 281h-175l90 273h2zM199 779h375v84h-375v-84z" />
    <glyph glyph-name="amacron" unicode="&#x101;" 
d="M562 0c-4 20.667 -6.66699 41.167 -8 61.5s-2 40.833 -2 61.5v194c0 40 -6.66699 73.667 -20 101s-31.333 49.5 -54 66.5s-49 29.333 -79 37s-61.667 11.5 -95 11.5c-38.667 0 -75 -2.83301 -109 -8.5s-67 -15.167 -99 -28.5l3 -122c25.333 14 52 24 80 30s56.667 9 86 9
c16 0 31.167 -1.33301 45.5 -4s27 -7.5 38 -14.5s19.667 -16.167 26 -27.5s9.5 -26 9.5 -44c-11.333 2 -24.5 3.66699 -39.5 5s-29.833 2 -44.5 2c-24 0 -51.5 -1.83301 -82.5 -5.5s-60.333 -11.667 -88 -24s-51 -30.166 -70 -53.499s-28.5 -55 -28.5 -95
c0 -28 5.33301 -52.333 16 -73s25 -37.834 43 -51.501s38.667 -23.667 62 -30s48 -9.5 74 -9.5c37.333 0 69 7.5 95 22.5s49.333 38.833 70 71.5h2c0 -13.333 0.5 -26.833 1.5 -40.5s1.83301 -27.5 2.5 -41.5h165zM199 165c0 25.333 10.499 43.1689 31.499 53.502
s46.833 15.5 77.5 15.5c13.333 0 26.5 -0.333008 39.5 -1s25.167 -1.33398 36.5 -2.00098c0 -15.333 -2.66699 -30.333 -8 -45s-12.666 -27.834 -21.999 -39.501s-21 -21 -35 -28s-29.333 -10.5 -46 -10.5c-21.333 0 -39 5 -53 15s-21 24 -21 42zM124.999 638.003h375v84
h-375v-84z" />
    <glyph glyph-name="Emacron" unicode="&#x112;" 
d="M60 0h503v132h-317v158h289v132h-289v144h306v132h-492v-698zM121 779h375v84h-375v-84z" />
    <glyph glyph-name="emacron" unicode="&#x113;" 
d="M573 208l0.000976562 33c0 38.667 -4.66699 75.667 -14 111s-24.333 66.333 -45 93s-47.834 48 -81.501 64s-74.5 24 -122.5 24c-40.667 0 -78 -6.16699 -112 -18.5s-63.333 -30 -88 -53s-44 -51.5 -58 -85.5s-21 -72.333 -21 -115c0 -43.333 7.66699 -81.833 23 -115.5
s36.666 -62.167 63.999 -85.5s59.333 -41.166 96 -53.499s76.667 -18.5 120 -18.5c34 0 67 2.66699 99 8s62.667 13.666 92 24.999v127c-27.333 -14.667 -54.5 -25 -81.5 -31s-52.833 -9 -77.5 -9c-44 0 -79.167 7.66699 -105.5 23s-42.166 41 -47.499 77h360zM211.001 310
c2 30 11 55.667 27 77s40.333 32 73 32c36 0 61.667 -10.667 77 -32s23 -47 23 -77h-200zM143.001 638h375v84h-375v-84z" />
    <glyph glyph-name="Edotaccent" unicode="&#x116;" 
d="M60 0h503v132h-317v158h289v132h-289v144h306v132h-492v-698zM243 741h144v144h-144v-144z" />
    <glyph glyph-name="edotaccent" unicode="&#x117;" 
d="M573 208l0.000976562 33c0 38.667 -4.66699 75.667 -14 111s-24.333 66.333 -45 93s-47.834 48 -81.501 64s-74.5 24 -122.5 24c-40.667 0 -78 -6.16699 -112 -18.5s-63.333 -30 -88 -53s-44 -51.5 -58 -85.5s-21 -72.333 -21 -115c0 -43.333 7.66699 -81.833 23 -115.5
s36.666 -62.167 63.999 -85.5s59.333 -41.166 96 -53.499s76.667 -18.5 120 -18.5c34 0 67 2.66699 99 8s62.667 13.666 92 24.999v127c-27.333 -14.667 -54.5 -25 -81.5 -31s-52.833 -9 -77.5 -9c-44 0 -79.167 7.66699 -105.5 23s-42.166 41 -47.499 77h360zM211.001 310
c2 30 11 55.667 27 77s40.333 32 73 32c36 0 61.667 -10.667 77 -32s23 -47 23 -77h-200zM254.001 600h144v144h-144v-144z" />
    <glyph glyph-name="Gbreve" unicode="&#x11e;" horiz-adv-x="778" 
d="M710 408l-288.999 -0.00195312v-132h109v-138c-17.333 -8 -39.333 -12 -66 -12c-34 0 -65.333 5 -94 15s-53.167 24.5 -73.5 43.5s-36.333 42.167 -48 69.5s-17.5 58 -17.5 92c0 40.667 7.16699 75.334 21.5 104.001s34 52 59 70s54.167 31.167 87.5 39.5
s69 12.5 107 12.5c22 0 48.5 -3.16699 79.5 -9.5s61.167 -18.166 90.5 -35.499l15 152c-17.333 6.66699 -35.833 12 -55.5 16s-39.167 7.16699 -58.5 9.5s-37.5 3.83301 -54.5 4.5s-31.167 1 -42.5 1c-64 0 -123 -6.66699 -177 -20s-100.5 -34.5 -139.5 -63.5
s-69.5 -66.5 -91.5 -112.5s-33 -102 -33 -168s12.167 -121.833 36.5 -167.5s55.666 -82.5 93.999 -110.5s81.333 -48.333 129 -61s94.834 -19 141.501 -19c32 0 70.167 1.5 114.5 4.5s96.166 12.167 155.499 27.5v388zM248.001 884.998
c5.33301 -48 23.168 -86.167 53.501 -114.5s75.5 -42.5 135.5 -42.5s105.167 14.167 135.5 42.5s48.166 66.5 53.499 114.5h-76c-6.66699 -28 -20.667 -47.167 -42 -57.5s-45 -15.5 -71 -15.5s-49.667 5.16699 -71 15.5s-35.333 29.5 -42 57.5h-76z" />
    <glyph glyph-name="gbreve" unicode="&#x11f;" horiz-adv-x="668" 
d="M608 521h-163.004v-94h-2c-19.333 32 -44 57.667 -74 77s-64.333 29 -103 29c-40.667 0 -75.667 -6.83301 -105 -20.5s-53.666 -32.667 -72.999 -57s-33.666 -53 -42.999 -86s-14 -68.833 -14 -107.5s5.33301 -74 16 -106s26 -59.5 46 -82.5s44.333 -41 73 -54
s61 -19.5 97 -19.5s68.833 7.16699 98.5 21.5s55.167 36.833 76.5 67.5h2v-28c0 -51.333 -13.667 -89.333 -41 -114s-67 -37 -119 -37c-37.333 0 -69.166 3.83301 -95.499 11.5s-53.166 18.167 -80.499 31.5l-9 -142c21.333 -7.33301 49 -14.666 83 -21.999
s72.667 -11 116 -11c52.667 0 98.667 4.66699 138 14s72 25 98 47s45.5 51.167 58.5 87.5s19.5 81.166 19.5 134.499v460zM216.996 265c0 18 2.16406 34.833 6.49707 50.5s10.833 29.334 19.5 41.001s19.334 21 32.001 28s27.334 10.5 44.001 10.5
c20 0 37.333 -3.66699 52 -11s26.667 -16.833 36 -28.5s16.166 -24.834 20.499 -39.501s6.5 -29.334 6.5 -44.001c0 -20 -3 -38.167 -9 -54.5s-14.167 -30.5 -24.5 -42.5s-22.5 -21.167 -36.5 -27.5s-29 -9.5 -45 -9.5c-13.333 0 -26.166 2.83301 -38.499 8.5
s-23.166 13.834 -32.499 24.501s-16.833 24 -22.5 40s-8.5 34 -8.5 54zM145.993 744c5.33301 -48 23.168 -86.167 53.501 -114.5s75.5 -42.5 135.5 -42.5s105.167 14.167 135.5 42.5s48.166 66.5 53.499 114.5h-76c-6.66699 -28 -20.667 -47.167 -42 -57.5
s-45 -15.5 -71 -15.5s-49.667 5.16699 -71 15.5s-35.333 29.5 -42 57.5h-76z" />
    <glyph glyph-name="Gcommaaccent" unicode="&#x122;" horiz-adv-x="778" 
d="M710 408l-288.999 -0.00195312v-132h109v-138c-17.333 -8 -39.333 -12 -66 -12c-34 0 -65.333 5 -94 15s-53.167 24.5 -73.5 43.5s-36.333 42.167 -48 69.5s-17.5 58 -17.5 92c0 40.667 7.16699 75.334 21.5 104.001s34 52 59 70s54.167 31.167 87.5 39.5
s69 12.5 107 12.5c22 0 48.5 -3.16699 79.5 -9.5s61.167 -18.166 90.5 -35.499l15 152c-17.333 6.66699 -35.833 12 -55.5 16s-39.167 7.16699 -58.5 9.5s-37.5 3.83301 -54.5 4.5s-31.167 1 -42.5 1c-64 0 -123 -6.66699 -177 -20s-100.5 -34.5 -139.5 -63.5
s-69.5 -66.5 -91.5 -112.5s-33 -102 -33 -168s12.167 -121.833 36.5 -167.5s55.666 -82.5 93.999 -110.5s81.333 -48.333 129 -61s94.834 -19 141.501 -19c32 0 70.167 1.5 114.5 4.5s96.166 12.167 155.499 27.5v388zM358.001 -155.002l71.999 0.000976562
c-2 -18.667 -10.667 -32.5 -26 -41.5s-32.333 -13.5 -51 -13.5v-43c42.667 0 77.334 9.66699 104.001 29s40 50.666 40 93.999v81h-139v-106z" />
    <glyph glyph-name="gcommaaccent" unicode="&#x123;" horiz-adv-x="668" 
d="M608 521h-163.004v-94h-2c-19.333 32 -44 57.667 -74 77s-64.333 29 -103 29c-40.667 0 -75.667 -6.83301 -105 -20.5s-53.666 -32.667 -72.999 -57s-33.666 -53 -42.999 -86s-14 -68.833 -14 -107.5s5.33301 -74 16 -106s26 -59.5 46 -82.5s44.333 -41 73 -54
s61 -19.5 97 -19.5s68.833 7.16699 98.5 21.5s55.167 36.833 76.5 67.5h2v-28c0 -51.333 -13.667 -89.333 -41 -114s-67 -37 -119 -37c-37.333 0 -69.166 3.83301 -95.499 11.5s-53.166 18.167 -80.499 31.5l-9 -142c21.333 -7.33301 49 -14.666 83 -21.999
s72.667 -11 116 -11c52.667 0 98.667 4.66699 138 14s72 25 98 47s45.5 51.167 58.5 87.5s19.5 81.166 19.5 134.499v460zM216.996 265c0 18 2.16406 34.833 6.49707 50.5s10.833 29.334 19.5 41.001s19.334 21 32.001 28s27.334 10.5 44.001 10.5
c20 0 37.333 -3.66699 52 -11s26.667 -16.833 36 -28.5s16.166 -24.834 20.499 -39.501s6.5 -29.334 6.5 -44.001c0 -20 -3 -38.167 -9 -54.5s-14.167 -30.5 -24.5 -42.5s-22.5 -21.167 -36.5 -27.5s-29 -9.5 -45 -9.5c-13.333 0 -26.166 2.83301 -38.499 8.5
s-23.166 13.834 -32.499 24.501s-16.833 24 -22.5 40s-8.5 34 -8.5 54zM413.993 702l-71.999 -0.000976562c2 18.667 10.667 32.5 26 41.5s32.333 13.5 51 13.5v43c-42.667 0 -77.334 -9.66699 -104.001 -29s-40 -50.666 -40 -93.999v-81h139v106z" />
    <glyph glyph-name="Imacron" unicode="&#x12a;" horiz-adv-x="334" 
d="M74 0h186v698h-186v-698zM-21 779h375v84h-375v-84z" />
    <glyph glyph-name="imacron" unicode="&#x12b;" horiz-adv-x="334" 
d="M77 0h180v521h-180v-521zM-21 638h376v84h-376v-84z" />
    <glyph glyph-name="Iogonek" unicode="&#x12e;" horiz-adv-x="334" 
d="M74 0l46.001 -0.00195312c-13.333 -7.33301 -27 -15.5 -41 -24.5s-26.667 -19 -38 -30s-20.5 -23 -27.5 -36s-10.5 -27.167 -10.5 -42.5c0 -28.667 8.5 -50.5 25.5 -65.5s40.833 -22.5 71.5 -22.5c17.333 0 33 1.33301 47 4s26.833 7 38.5 13s22.667 13.833 33 23.5
s20.166 21.834 29.499 36.501l-38 17c-7.33301 -7.33301 -16.5 -13.833 -27.5 -19.5s-22.5 -8.5 -34.5 -8.5c-11.333 0 -21.333 3.66699 -30 11s-13 17.333 -13 30c0 10.667 2.5 21.334 7.5 32.001s11.667 20.667 20 30s17.5 18.333 27.5 27l30 25h70v698h-186v-698z" />
    <glyph glyph-name="iogonek" unicode="&#x12f;" horiz-adv-x="334" 
d="M257 738h-180v-132h180v132zM77 0l49.001 -0.00195312c-13.333 -7.33301 -27 -15.5 -41 -24.5s-26.667 -19 -38 -30s-20.5 -23 -27.5 -36s-10.5 -27.167 -10.5 -42.5c0 -28.667 8.5 -50.5 25.5 -65.5s40.833 -22.5 71.5 -22.5c17.333 0 33 1.33301 47 4s26.833 7 38.5 13
s22.667 13.833 33 23.5s20.166 21.834 29.499 36.501l-38 17c-7.33301 -7.33301 -16.5 -13.833 -27.5 -19.5s-22.5 -8.5 -34.5 -8.5c-11.333 0 -21.333 3.66699 -30 11s-13 17.333 -13 30c0 10.667 2.5 21.334 7.5 32.001s11.667 20.667 20 30s17.5 18.333 27.5 27l30 25h61
v521h-180v-521z" />
    <glyph glyph-name="Idotaccent" unicode="&#x130;" horiz-adv-x="334" 
d="M74 0h186v698h-186v-698zM95 741h144v144h-144v-144z" />
    <glyph glyph-name="dotlessi" unicode="&#x131;" horiz-adv-x="334" 
d="M77 0h180v521h-180v-521z" />
    <glyph glyph-name="Kcommaaccent" unicode="&#x136;" horiz-adv-x="722" 
d="M65 0h186v317h2l217 -317h237l-278 373l258 325h-224l-210 -285h-2v285h-186v-698zM295 -155l71.999 0.000976562c-2 -18.667 -10.667 -32.5 -26 -41.5s-32.333 -13.5 -51 -13.5v-43c42.667 0 77.334 9.66699 104.001 29s40 50.666 40 93.999v81h-139v-106z" />
    <glyph glyph-name="kcommaaccent" unicode="&#x137;" 
d="M56 0h180v258h2l144 -258h218l-196 282l181 239h-197l-150 -219h-2v448h-180v-750zM239 -155l71.999 0.000976562c-2 -18.667 -10.667 -32.5 -26 -41.5s-32.333 -13.5 -51 -13.5v-43c42.667 0 77.334 9.66699 104.001 29s40 50.666 40 93.999v81h-139v-106z" />
    <glyph glyph-name="Lcommaaccent" unicode="&#x13b;" horiz-adv-x="556" 
d="M65 0h474v138h-288v560h-186v-698zM232 -155l71.999 0.000976562c-2 -18.667 -10.667 -32.5 -26 -41.5s-32.333 -13.5 -51 -13.5v-43c42.667 0 77.334 9.66699 104.001 29s40 50.666 40 93.999v81h-139v-106z" />
    <glyph glyph-name="lcommaaccent" unicode="&#x13c;" horiz-adv-x="334" 
d="M77 0h180v750h-180v-750zM101 -155l71.999 0.000976562c-2 -18.667 -10.667 -32.5 -26 -41.5s-32.333 -13.5 -51 -13.5v-43c42.667 0 77.334 9.66699 104.001 29s40 50.666 40 93.999v81h-139v-106z" />
    <glyph glyph-name="Ncommaaccent" unicode="&#x145;" horiz-adv-x="778" 
d="M68 0h171l-6 477h2l244 -477h231v698h-170l3 -474h-2l-236 474h-237v-698zM323 -155l71.999 0.000976562c-2 -18.667 -10.667 -32.5 -26 -41.5s-32.333 -13.5 -51 -13.5v-43c42.667 0 77.334 9.66699 104.001 29s40 50.666 40 93.999v81h-139v-106z" />
    <glyph glyph-name="ncommaaccent" unicode="&#x146;" horiz-adv-x="667" 
d="M56 0h179.999v220c0 56.667 9.33301 98 28 124s46.667 39 84 39c24.667 0 44.667 -9.66699 60 -29s23 -53.333 23 -102v-252h180v325c0 26.667 -3.66699 52.667 -11 78s-19 47.5 -35 66.5s-36.667 34.333 -62 46s-55.666 17.5 -90.999 17.5
c-41.333 0 -78.833 -8.5 -112.5 -25.5s-59.5 -44.5 -77.5 -82.5h-2v96h-164v-521zM266.999 -155l71.999 0.000976562c-2 -18.667 -10.667 -32.5 -26 -41.5s-32.333 -13.5 -51 -13.5v-43c42.667 0 77.334 9.66699 104.001 29s40 50.666 40 93.999v81h-139v-106z" />
    <glyph glyph-name="Omacron" unicode="&#x14c;" horiz-adv-x="778" 
d="M39 349c0 -55.333 7.49902 -105.333 22.499 -150s37.333 -82.667 67 -114s66.167 -55.333 109.5 -72s93.666 -25 150.999 -25c56.667 0 106.834 8.33301 150.501 25s80.334 40.667 110.001 72s52 69.333 67 114s22.5 94.667 22.5 150c0 56 -7.5 106.333 -22.5 151
s-37.167 82.5 -66.5 113.5s-65.833 54.833 -109.5 71.5s-94.167 25 -151.5 25s-107.833 -8.33301 -151.5 -25s-80.167 -40.5 -109.5 -71.5s-51.5 -68.833 -66.5 -113.5s-22.5 -95 -22.5 -151zM230.999 349c0 30 3 58.5 9 85.5s15.333 50.667 28 71s29 36.5 49 48.5
s44 18 72 18s52 -6 72 -18s36.333 -28.167 49 -48.5s22 -44 28 -71s9 -55.5 9 -85.5c0 -28.667 -3 -56.5 -9 -83.5s-15.333 -50.833 -28 -71.5s-29 -37.167 -49 -49.5s-44 -18.5 -72 -18.5s-52 6.16699 -72 18.5s-36.333 28.833 -49 49.5s-22 44.5 -28 71.5
s-9 54.833 -9 83.5zM198.999 779h375v84h-375v-84z" />
    <glyph glyph-name="omacron" unicode="&#x14d;" horiz-adv-x="668" 
d="M334 -12c42.667 0 82.5 6.16699 119.5 18.5s69.167 30 96.5 53s48.666 51.333 63.999 85s23 72.167 23 115.5s-7.66699 81.833 -23 115.5s-36.666 62.167 -63.999 85.5s-59.5 41.166 -96.5 53.499s-76.833 18.5 -119.5 18.5c-43.333 0 -83.333 -6.16699 -120 -18.5
s-68.667 -30.166 -96 -53.499s-48.666 -51.833 -63.999 -85.5s-23 -72.167 -23 -115.5s7.66699 -81.833 23 -115.5s36.666 -62 63.999 -85s59.333 -40.667 96 -53s76.667 -18.5 120 -18.5zM334 114c-20.667 0 -38.334 4 -53.001 12s-26.834 18.667 -36.501 32
s-16.667 28.833 -21 46.5s-6.5 36.167 -6.5 55.5s2.16699 37.833 6.5 55.5s11.333 33.334 21 47.001s21.834 24.5 36.501 32.5s32.334 12 53.001 12s38.334 -4 53.001 -12s26.834 -18.833 36.501 -32.5s16.667 -29.334 21 -47.001s6.5 -36.167 6.5 -55.5
s-2.16699 -37.833 -6.5 -55.5s-11.333 -33.167 -21 -46.5s-21.834 -24 -36.501 -32s-32.334 -12 -53.001 -12zM147 638h375v84h-375v-84z" />
    <glyph glyph-name="OE" unicode="&#x152;" 
d="M51 18c31.333 -10 65.666 -17.501 102.999 -22.501s72.333 -7.5 105 -7.5c38.667 0 76.5 3.5 113.5 10.5s69.833 19.167 98.5 36.5s51.667 40.833 69 70.5s26 67.167 26 112.5c0 42 -8.16699 75.667 -24.5 101s-36.666 45.666 -60.999 60.999s-50.833 27 -79.5 35
l-79.5 23c-24.333 7.33301 -44.666 16 -60.999 26s-24.5 24.333 -24.5 43c0 15.333 4.33301 27.333 13 36s19.334 15.167 32.001 19.5s26.167 7 40.5 8s27.5 1.5 39.5 1.5c26.667 0 53.167 -2.5 79.5 -7.5s51.5 -13.167 75.5 -24.5l12 144
c-23.333 8 -50.666 14.333 -81.999 19s-64 7 -98 7c-35.333 0 -71 -3.33301 -107 -10s-68.5 -18 -97.5 -34s-52.833 -37.833 -71.5 -65.5s-28 -62.5 -28 -104.5c0 -42.667 8.16699 -76.667 24.5 -102s36.666 -45.5 60.999 -60.5s50.833 -26.667 79.5 -35
s55.167 -16.666 79.5 -24.999s44.666 -18.166 60.999 -29.499s24.5 -28 24.5 -50c0 -14 -3.16699 -25.5 -9.5 -34.5s-14.833 -16 -25.5 -21s-23 -8.33301 -37 -10s-28.333 -2.5 -43 -2.5c-38.667 0 -74.334 4.33301 -107.001 13s-61 19.667 -85 33zM244 740.999h126l129 144
h-187z" />
    <glyph glyph-name="oe" unicode="&#x153;" horiz-adv-x="500" 
d="M36 13c26.667 -8.66699 54.6631 -14.999 83.9961 -18.999s64.333 -6 105 -6c29.333 0 58.5 2.5 87.5 7.5s55 14 78 27s41.667 30.833 56 53.5s21.5 51.334 21.5 86.001c0 32.667 -6.66699 59 -20 79s-29.833 35.667 -49.5 47s-41.167 19.833 -64.5 25.5l-64.5 16
c-19.667 5 -36.167 10.833 -49.5 17.5s-20 16.667 -20 30c0 7.33301 2.5 13.333 7.5 18s11.5 8.33398 19.5 11.001s16.833 4.5 26.5 5.5s19.5 1.5 29.5 1.5c22.667 0 46.834 -3 72.501 -9s48.167 -14.667 67.5 -26l14 125c-29.333 11.333 -59.333 19.166 -90 23.499
s-61.667 6.5 -93 6.5c-26 0 -52.167 -3.16699 -78.5 -9.5s-50.166 -16.333 -71.499 -30s-38.666 -31.167 -51.999 -52.5s-20 -47 -20 -77c0 -31.333 6.33301 -56.333 19 -75s28.5 -33.5 47.5 -44.5s39.5 -19.333 61.5 -25l61.5 -16.5c19 -5.33301 34.833 -11.833 47.5 -19.5
s19 -18.834 19 -33.501c0 -18 -7.5 -29.5 -22.5 -34.5s-31.833 -7.5 -50.5 -7.5c-32.667 0 -63.667 3.66699 -93 11s-54.666 15.666 -75.999 24.999zM182.996 600.001h126l129 144h-187z" />
    <glyph glyph-name="Rcommaaccent" unicode="&#x156;" horiz-adv-x="667" 
d="M60 0l186.005 -0.00195312v276h39c17.333 0 32.166 -2.16699 44.499 -6.5s23.333 -12.166 33 -23.499s18.667 -26.666 27 -45.999s17.166 -44 26.499 -74l40 -126h194l-68 190c-8.66699 21.333 -15.834 40.5 -21.501 57.5s-11.834 32 -18.501 45s-14.5 23.833 -23.5 32.5
s-20.833 15 -35.5 19v2c45.333 10.667 79 31 101 61s33 68.333 33 115c0 30 -5.83301 56 -17.5 78s-27.834 40.333 -48.501 55s-44.667 25.5 -72 32.5s-56.333 10.5 -87 10.5h-332v-698zM246.005 565.998l49.001 -0.000976562c18 0 35.167 -1 51.5 -3
s30.666 -5.66699 42.999 -11s22.333 -13.166 30 -23.499s11.5 -23.5 11.5 -39.5c0 -20 -4.33301 -35.333 -13 -46s-19.5 -18.667 -32.5 -24s-27.667 -8.5 -44 -9.5s-31.833 -1.5 -46.5 -1.5h-49v158zM267.006 -155.003l71.999 0.000976562
c-2 -18.667 -10.667 -32.5 -26 -41.5s-32.333 -13.5 -51 -13.5v-43c42.667 0 77.334 9.66699 104.001 29s40 50.666 40 93.999v81h-139v-106z" />
    <glyph glyph-name="rcommaaccent" unicode="&#x157;" horiz-adv-x="444" 
d="M437 527c-9.33301 1.33301 -19.167 2.66504 -29.5 3.99805s-20.833 2 -31.5 2c-39.333 0 -71 -9.66699 -95 -29s-43.667 -45.666 -59 -78.999h-2v96h-164v-521h180v220c0 51.333 11.333 91.333 34 120s55 43 97 43c10.667 0 21 -0.166992 31 -0.5
s20 -2.16602 30 -5.49902zM77.999 -155.001l71.999 0.000976562c-2 -18.667 -10.667 -32.5 -26 -41.5s-32.333 -13.5 -51 -13.5v-43c42.667 0 77.334 9.66699 104.001 29s40 50.666 40 93.999v81h-139v-106z" />
    <glyph glyph-name="Umacron" unicode="&#x16a;" horiz-adv-x="722" 
d="M667 698h-186v-402c0 -23.333 -1.83301 -45.166 -5.5 -65.499s-10 -38.333 -19 -54s-21.167 -28 -36.5 -37s-35 -13.5 -59 -13.5s-43.667 4.5 -59 13.5s-27.5 21.333 -36.5 37s-15.333 33.667 -19 54s-5.5 42.166 -5.5 65.499v402h-186v-433
c0 -48 7.33301 -89.333 22 -124s35.5 -63.334 62.5 -86.001s59.333 -39.5 97 -50.5s79.167 -16.5 124.5 -16.5s86.833 5.5 124.5 16.5s70 27.833 97 50.5s47.833 51.334 62.5 86.001s22 76 22 124v433zM174 779h375v84h-375v-84z" />
    <glyph glyph-name="umacron" unicode="&#x16b;" horiz-adv-x="667" 
d="M611 521h-180v-220c0 -56.667 -9.33301 -98 -28 -124s-46.667 -39 -84 -39c-12 0 -23.167 2.16699 -33.5 6.5s-19.166 11.666 -26.499 21.999s-13 23.833 -17 40.5s-6 37.334 -6 62.001v252h-180v-325c0 -27.333 3.66699 -53.5 11 -78.5s19 -47 35 -66
s36.667 -34.333 62 -46s55.666 -17.5 90.999 -17.5c41.333 0 78.833 8.5 112.5 25.5s59.5 44.5 77.5 82.5h2v-96h164v521zM146 638h375v84h-375v-84z" />
    <glyph glyph-name="Uogonek" unicode="&#x172;" horiz-adv-x="722" 
d="M480 -127c-7.33301 -7.33301 -16.499 -13.832 -27.499 -19.499s-22.5 -8.5 -34.5 -8.5c-11.333 0 -21.333 3.66699 -30 11s-13 17.333 -13 30c0 14.667 4 28.334 12 41.001s16.333 23 25 31c12 12 26.667 22.667 44 32s38 18.333 62 27
c43.333 15.333 79 43.666 107 84.999s42 95.666 42 162.999v433h-186v-402c0 -23.333 -1.83301 -45.166 -5.5 -65.499s-10 -38.333 -19 -54s-21.167 -28 -36.5 -37s-35 -13.5 -59 -13.5s-43.667 4.5 -59 13.5s-27.5 21.333 -36.5 37s-15.333 33.667 -19 54
s-5.5 42.166 -5.5 65.499v402h-186v-433c0 -48 7.33301 -89.333 22 -124s35.5 -63.334 62.5 -86.001s59.333 -39.5 97 -50.5s79.167 -16.5 124.5 -16.5h10l-36 -23c-12 -8 -22.5 -17 -31.5 -27s-16.333 -20.833 -22 -32.5s-8.5 -24.5 -8.5 -38.5
c0 -28.667 8.5 -50.5 25.5 -65.5s40.833 -22.5 71.5 -22.5c17.333 0 33 1.33301 47 4s26.833 7 38.5 13s22.667 13.833 33 23.5s20.166 21.834 29.499 36.501z" />
    <glyph glyph-name="uogonek" unicode="&#x173;" horiz-adv-x="667" 
d="M236 521l-179.999 -0.00195312v-325c0 -27.333 3.66699 -53.5 11 -78.5s19 -47 35 -66s36.667 -34.333 62 -46s55.666 -17.5 90.999 -17.5c41.333 0 78.833 8.5 112.5 25.5s59.5 44.5 77.5 82.5h2v-96h17c-13.333 -7.33301 -27 -15.5 -41 -24.5s-26.667 -19 -38 -30
s-20.5 -23 -27.5 -36s-10.5 -27.167 -10.5 -42.5c0 -28.667 8.5 -50.5 25.5 -65.5s40.833 -22.5 71.5 -22.5c17.333 0 33 1.33301 47 4s26.833 7 38.5 13s22.667 13.833 33 23.5s20.166 21.834 29.499 36.501l-38 17c-7.33301 -7.33301 -16.5 -13.833 -27.5 -19.5
s-22.5 -8.5 -34.5 -8.5c-11.333 0 -21.333 3.66699 -30 11s-13 17.333 -13 30c0 10.667 2.5 21.334 7.5 32.001s11.667 20.667 20 30s17.5 18.333 27.5 27l30 25h77v521h-180v-220c0 -56.667 -9.33301 -98 -28 -124s-46.667 -39 -84 -39c-12 0 -23.167 2.16699 -33.5 6.5
s-19.166 11.666 -26.499 21.999s-13 23.833 -17 40.5s-6 37.334 -6 62.001v252z" />
    <glyph glyph-name="Ydieresis" unicode="&#x178;" horiz-adv-x="500" 
d="M26 0h448v132h-242l238 245v144h-439v-132h233l-238 -245v-144zM183 600h126l129 144h-187z" />
    <glyph glyph-name="florin" unicode="&#x192;" horiz-adv-x="612" 
d="M103 314h104.996l-77 -362c-3.33301 -13.333 -9.16602 -24.666 -17.499 -33.999s-22.166 -14 -41.499 -14c-9.33301 0 -18.833 2 -28.5 6s-17.167 8.66699 -22.5 14l-21 -120c19.333 -9.33301 39 -16 59 -20s38.333 -6 55 -6c22.667 0 44.334 2.33301 65.001 7
s39.667 14 57 28s32.833 34.167 46.5 60.5s25.167 61.166 34.5 104.499l72 336h124v108h-99l18 83c2 9.33301 4.33301 18.666 7 27.999s6.16699 17.833 10.5 25.5s10 13.834 17 18.501s15.833 7 26.5 7c12.667 0 24 -2.66699 34 -8s18 -11.333 24 -18l21 126
c-22 10.667 -43.333 17.667 -64 21s-41.667 5 -63 5c-30 0 -55.833 -4.33301 -77.5 -13s-40 -21 -55 -37s-27.167 -35 -36.5 -57s-16.666 -46.333 -21.999 -73l-23 -108h-128v-108z" />
    <glyph glyph-name="circumflex" unicode="&#x2c6;" horiz-adv-x="333" 
d="M-26 600h125l69 78l65 -78h125l-109 144h-162z" />
    <glyph glyph-name="macron" unicode="&#x2c9;" horiz-adv-x="333" 
d="M-21 638h375v84h-375v-84z" />
    <glyph glyph-name="ring" unicode="&#x2da;" horiz-adv-x="333" 
d="M55 693c0 -15.333 3 -29.833 9 -43.5s14 -25.5 24 -35.5s21.833 -18 35.5 -24s28.167 -9 43.5 -9s29.833 3 43.5 9s25.5 14 35.5 24s18 21.833 24 35.5s9 28.167 9 43.5s-3 29.833 -9 43.5s-14 25.5 -24 35.5s-21.833 18 -35.5 24s-28.167 9 -43.5 9s-29.833 -3 -43.5 -9
s-25.5 -14 -35.5 -24s-18 -21.833 -24 -35.5s-9 -28.167 -9 -43.5zM119 693c0 13.333 4.66699 24.666 14 33.999s20.666 14 33.999 14s24.666 -4.66699 33.999 -14s14 -20.666 14 -33.999s-4.66699 -24.666 -14 -33.999s-20.666 -14 -33.999 -14s-24.666 4.66699 -33.999 14
s-14 20.666 -14 33.999z" />
    <glyph glyph-name="tilde" unicode="&#x2dc;" horiz-adv-x="333" 
d="M291 744c-4.66699 -26 -21.333 -39.001 -50 -39.001c-9.33301 0 -19.333 1.83301 -30 5.5l-35 12.5c-12.667 4.66699 -25.5 8.83398 -38.5 12.501s-26.167 5.5 -39.5 5.5c-20 0 -37.5 -4 -52.5 -12s-27.667 -18.667 -38 -32s-18.5 -28.5 -24.5 -45.5
s-10 -34.167 -12 -51.5h72c3.33301 12.667 8.5 22.334 15.5 29.001s18.167 10 33.5 10c8 0 17.5 -1.83301 28.5 -5.5s22.833 -7.83398 35.5 -12.501s25.5 -8.83398 38.5 -12.501s26.167 -5.5 39.5 -5.5c20.667 0 38.5 3.83301 53.5 11.5s27.833 17.834 38.5 30.501
s19 27.5 25 44.5s10 35.167 12 54.5h-72z" />
    <glyph glyph-name="Delta" unicode="&#x394;" horiz-adv-x="693" 
d="M403 712h-129l-265 -712h675zM338 571l174 -457h-336z" />
    <glyph glyph-name="partialdiff" unicode="&#x2202;" horiz-adv-x="564" 
d="M132 577l20.4961 15.498c7.66699 5.66699 16.5 11 26.5 16s21.167 9.33301 33.5 13s25.833 5.5 40.5 5.5c8 0 18.167 -1.16699 30.5 -3.5s24.833 -7.66602 37.5 -15.999s24.834 -20.5 36.501 -36.5s20.834 -38 27.501 -66c7.33301 -27.333 11.333 -50.5 12 -69.5
s1 -34.833 1 -47.5c-27.333 21.333 -52.5 35.166 -75.5 41.499s-44.167 9.5 -63.5 9.5c-31.333 0 -60.333 -5.5 -87 -16.5s-49.667 -26.167 -69 -45.5s-34.5 -42.666 -45.5 -69.999s-16.5 -57.333 -16.5 -90c0 -27.333 4.33301 -54.666 13 -81.999s22 -52 40 -74
s41.167 -39.833 69.5 -53.5s62.166 -20.5 101.499 -20.5c42 0 77.333 7.16699 106 21.5s52.5 32.833 71.5 55.5s33.833 48.167 44.5 76.5s18.5 56.333 23.5 84s8 53.5 9 77.5s1.5 43 1.5 57c0 74 -9 134.5 -27 181.5s-40.667 83.833 -68 110.5s-57 45 -89 55s-62 15 -90 15
c-21.333 0 -40.666 -2 -57.999 -6s-33.166 -9.33301 -47.499 -16s-27.666 -14.167 -39.999 -22.5s-23.833 -16.833 -34.5 -25.5zM395.996 289.998c0.666992 -26 -1.16895 -51.6699 -5.50195 -77.0029s-11.666 -48 -21.999 -68s-23.833 -36.167 -40.5 -48.5
s-36.667 -18.5 -60 -18.5c-14 0 -27.667 2.66699 -41 8s-25 13.333 -35 24s-18 24.334 -24 41.001s-9 36.667 -9 60c0 18 2.33301 35.333 7 52s12 31.334 22 44.001s22.333 22.834 37 30.501s32 11.5 52 11.5c16.667 0 31.667 -2.33301 45 -7s24.833 -10.167 34.5 -16.5
s17.834 -12.833 24.501 -19.5s11.667 -12 15 -16z" />
    <glyph glyph-name="summation" unicode="&#x2211;" horiz-adv-x="660" 
d="M623 786h-585v-99l287 -395l-299 -406v-100h609v114h-450l287 393l-270 378h421v115z" />
    <glyph glyph-name="minus" unicode="&#x2212;" horiz-adv-x="600" 
d="M47 190h506v126h-506v-126z" />
    <glyph glyph-name="fraction" unicode="&#x2215;" horiz-adv-x="167" 
d="M-164 -22h109l387 742h-109z" />
    <glyph glyph-name="radical" unicode="&#x221a;" horiz-adv-x="553" 
d="M564 786h-127l-165 -809l-123 264l-160 -73l45 -97l52 25l150 -310h114z" />
    <glyph glyph-name="notequal" unicode="&#x2260;" horiz-adv-x="600" 
d="M208 209h-161v-118h102l-52 -103l103 -52l79 155h274v118h-215l55 110h160v118h-100l52 102l-104 53l-78 -155h-276v-118h216z" />
    <glyph glyph-name="lessequal" unicode="&#x2264;" horiz-adv-x="600" 
d="M47 278l506 -169v123l-343 106l343 106v123l-506 -171v-118zM47 79v-119h506v119h-506z" />
    <glyph glyph-name="greaterequal" unicode="&#x2265;" horiz-adv-x="600" 
d="M553 278v118l-506 171v-123l343 -106l-343 -106v-123zM553 79h-506v-119h506v119z" />
    <glyph glyph-name="lozenge" unicode="&#x25ca;" horiz-adv-x="593" 
d="M350 747h-109l-180 -391l180 -391h109l182 391zM411 356l-115 -274l-115 274l115 273z" />
    <glyph glyph-name=".361" unicode="&#xe000;" horiz-adv-x="1000" 
d="M971 698l-325.999 0.000976562c-22.667 0 -45.5 0.333008 -68.5 1l-69.5 2c-46 2 -92.333 3 -139 3c-57.333 0 -107.833 -8.33301 -151.5 -25s-80.167 -40.334 -109.5 -71.001s-51.5 -68 -66.5 -112s-22.5 -93 -22.5 -147s7.5 -102.833 22.5 -146.5s37.333 -81 67 -112
s66.167 -54.833 109.5 -71.5s93.666 -25 150.999 -25c17.333 0 34.166 0.333008 50.499 1l49.5 2c32.667 2 65.334 3 98.001 3h416v132h-298v158h268v132h-271v144h290v132zM492.001 136.001c-13.333 0 -29.168 -0.666016 -47.501 -1.99902s-37.833 -2 -58.5 -2
c-30.667 0 -57 6.16699 -79 18.5s-40.167 28.666 -54.5 48.999s-25 43.5 -32 69.5s-10.5 52.667 -10.5 80c0 28.667 2.16699 56.167 6.5 82.5s12.333 49.5 24 69.5s27.834 35.833 48.501 47.5s47 17.5 79 17.5c21.333 0 42.5 -0.666992 63.5 -2s41.167 -2 60.5 -2v-426z" />
    <glyph glyph-name=".362" unicode="&#xe001;" horiz-adv-x="1000" 
d="M27 260c0 -44.667 7.16309 -83.998 21.4961 -117.998s33.833 -62.333 58.5 -85s53.834 -39.834 87.501 -51.501s70.167 -17.5 109.5 -17.5c19.333 0 38.833 1 58.5 3s38.834 6 57.501 12s36.334 14.5 53.001 25.5s31.667 25.5 45 43.5
c12.667 -16.667 26.834 -30.334 42.501 -41.001s32.667 -19.167 51 -25.5s37.833 -10.833 58.5 -13.5s42 -4 64 -4c34 0 67 2.66699 99 8s62.667 13.666 92 24.999v127c-27.333 -14.667 -54.5 -25 -81.5 -31s-52.833 -9 -77.5 -9c-44 0 -79.167 7.66699 -105.5 23
s-42.166 41 -47.499 77h360v33c0 38.667 -4.66699 75.667 -14 111s-24.333 66.333 -45 93s-47.834 48 -81.501 64s-74.5 24 -122.5 24c-15.333 0 -31.5 -1.16699 -48.5 -3.5s-34 -6.5 -51 -12.5s-33.5 -14.167 -49.5 -24.5s-31 -23.166 -45 -38.499
c-25.333 31.333 -55 52.333 -89 63s-73 16 -117 16c-38 0 -74.167 -5.66699 -108.5 -17s-64.333 -28.333 -90 -51s-46.167 -51 -61.5 -85s-23 -74 -23 -120zM212.996 260.002c0 18.667 2.16699 37.167 6.5 55.5s11 34.833 20 49.5s20.333 26.334 34 35.001
s29.834 13 48.501 13s34.834 -4.33301 48.501 -13s25 -20.334 34 -35.001s15.667 -31.167 20 -49.5s6.5 -36.833 6.5 -55.5s-2.16699 -37.167 -6.5 -55.5s-11 -34.666 -20 -48.999s-20.333 -25.833 -34 -34.5s-29.834 -13 -48.501 -13s-34.834 4.33301 -48.501 13
s-25 20.167 -34 34.5s-15.667 30.666 -20 48.999s-6.5 36.833 -6.5 55.5zM610.996 310.002c2 30 11 55.667 27 77s40.333 32 73 32c36 0 61.667 -10.667 77 -32s23 -47 23 -77h-200z" />
    <glyph glyph-name=".363" unicode="&#xe002;" horiz-adv-x="722" 
d="M269 0h186v263l256 435h-214l-135 -280l-137 280h-214l258 -435v-263zM404 741h144v144h-144v-144zM176 741h144v144h-144v-144z" />
    <glyph glyph-name=".E003h" unicode="&#xe003;" horiz-adv-x="600" 
d="M47 305h380v-197h126v323h-506v-126z" />
    <glyph glyph-name="commaaccent" unicode="&#xf004;" horiz-adv-x="333" 
d="M100 -155l71.999 0.000976562c-2 -18.667 -10.667 -32.5 -26 -41.5s-32.333 -13.5 -51 -13.5v-43c42.667 0 77.334 9.66699 104.001 29s40 50.666 40 93.999v81h-139v-106z" />
    <glyph glyph-name="commaaccent" unicode="&#xf6c3;" horiz-adv-x="333" 
d="M100 -155l71.999 0.000976562c-2 -18.667 -10.667 -32.5 -26 -41.5s-32.333 -13.5 -51 -13.5v-43c42.667 0 77.334 9.66699 104.001 29s40 50.666 40 93.999v81h-139v-106z" />
    <glyph glyph-name="fi" unicode="&#xfb01;" horiz-adv-x="778" 
d="M119 0h179.998v395h128v126h-128v32c0 25.333 4.83301 45.5 14.5 60.5s26.167 22.5 49.5 22.5c13.333 0 24.333 -0.666992 33 -2s16.667 -3.33301 24 -6l11 124c-11.333 2 -24.666 4.16699 -39.999 6.5s-32.666 3.5 -51.999 3.5c-36 0 -67.5 -3.66699 -94.5 -11
s-49.667 -19.166 -68 -35.499s-32 -37.833 -41 -64.5s-13.5 -59.334 -13.5 -98.001v-32h-109v-126h106v-395zM520.998 0h180v521h-180v-521zM700.998 738h-180v-132h180v132z" />
    <glyph glyph-name="fl" unicode="&#xfb02;" horiz-adv-x="778" 
d="M119 0h179.998v395h128v126h-128v32c0 25.333 4.83301 45.5 14.5 60.5s26.167 22.5 49.5 22.5c13.333 0 24.333 -0.666992 33 -2s16.667 -3.33301 24 -6l11 124c-11.333 2 -24.666 4.16699 -39.999 6.5s-32.666 3.5 -51.999 3.5c-36 0 -67.5 -3.66699 -94.5 -11
s-49.667 -19.166 -68 -35.499s-32 -37.833 -41 -64.5s-13.5 -59.334 -13.5 -98.001v-32h-109v-126h106v-395zM520.998 0h180v750h-180v-750z" />
    <glyph glyph-name="logicalnot" horiz-adv-x="600" 
d="M47 305h380v-197h126v323h-506v-126z" />
    <glyph glyph-name="ordfeminine" horiz-adv-x="397" 
d="M63 615c17.333 9.33301 35.168 15.832 53.501 19.499s37.166 5.5 56.499 5.5c21.333 0 39.5 -3.66699 54.5 -11s22.5 -22.333 22.5 -45l-28 2.5c-11.333 1 -25.666 1.5 -42.999 1.5c-11.333 0 -26 -1.16699 -44 -3.5s-35.5 -7.16602 -52.5 -14.499
s-31.5 -18.166 -43.5 -32.499s-18 -33.5 -18 -57.5c0 -17.333 3.5 -32.333 10.5 -45s16.167 -23 27.5 -31s24.666 -14 39.999 -18s31.333 -6 48 -6c46.667 0 81 18.333 103 55h2l6 -47h118c-2.66699 19.333 -4.66699 39.666 -6 60.999v144c0 26 -5 46.667 -15 62
s-23 27 -39 35s-34.333 13.333 -55 16s-41.667 4 -63 4c-50 0 -95 -7.33301 -135 -22v-73zM250.002 523.999c0 -20 -6.16797 -37.332 -18.501 -51.999s-28.166 -22 -47.499 -22c-13.333 0 -23.833 3.16699 -31.5 9.5s-11.5 15.833 -11.5 28.5c0 13.333 6 22.666 18 27.999
s28 8 48 8h43z" />
    <glyph glyph-name="ugrave" horiz-adv-x="667" 
d="M611 521h-180v-220c0 -56.667 -9.33301 -98 -28 -124s-46.667 -39 -84 -39c-12 0 -23.167 2.16699 -33.5 6.5s-19.166 11.666 -26.499 21.999s-13 23.833 -17 40.5s-6 37.334 -6 62.001v252h-180v-325c0 -27.333 3.66699 -53.5 11 -78.5s19 -47 35 -66
s36.667 -34.333 62 -46s55.666 -17.5 90.999 -17.5c41.333 0 78.833 8.5 112.5 25.5s59.5 44.5 77.5 82.5h2v-96h164v521zM413 600l-68 144h-187l129 -144h126z" />
    <glyph glyph-name="atilde" 
d="M562 0c-4 20.667 -6.66699 41.167 -8 61.5s-2 40.833 -2 61.5v194c0 40 -6.66699 73.667 -20 101s-31.333 49.5 -54 66.5s-49 29.333 -79 37s-61.667 11.5 -95 11.5c-38.667 0 -75 -2.83301 -109 -8.5s-67 -15.167 -99 -28.5l3 -122c25.333 14 52 24 80 30s56.667 9 86 9
c16 0 31.167 -1.33301 45.5 -4s27 -7.5 38 -14.5s19.667 -16.167 26 -27.5s9.5 -26 9.5 -44c-11.333 2 -24.5 3.66699 -39.5 5s-29.833 2 -44.5 2c-24 0 -51.5 -1.83301 -82.5 -5.5s-60.333 -11.667 -88 -24s-51 -30.166 -70 -53.499s-28.5 -55 -28.5 -95
c0 -28 5.33301 -52.333 16 -73s25 -37.834 43 -51.501s38.667 -23.667 62 -30s48 -9.5 74 -9.5c37.333 0 69 7.5 95 22.5s49.333 38.833 70 71.5h2c0 -13.333 0.5 -26.833 1.5 -40.5s1.83301 -27.5 2.5 -41.5h165zM199 165c0 25.333 10.499 43.1689 31.499 53.502
s46.833 15.5 77.5 15.5c13.333 0 26.5 -0.333008 39.5 -1s25.167 -1.33398 36.5 -2.00098c0 -15.333 -2.66699 -30.333 -8 -45s-12.666 -27.834 -21.999 -39.501s-21 -21 -35 -28s-29.333 -10.5 -46 -10.5c-21.333 0 -39 5 -53 15s-21 24 -21 42zM429.999 744.003
c-4.66699 -26 -21.333 -39.001 -50 -39.001c-9.33301 0 -19.333 1.83301 -30 5.5l-35 12.5c-12.667 4.66699 -25.5 8.83398 -38.5 12.501s-26.167 5.5 -39.5 5.5c-20 0 -37.5 -4 -52.5 -12s-27.667 -18.667 -38 -32s-18.5 -28.5 -24.5 -45.5s-10 -34.167 -12 -51.5h72
c3.33301 12.667 8.5 22.334 15.5 29.001s18.167 10 33.5 10c8 0 17.5 -1.83301 28.5 -5.5s22.833 -7.83398 35.5 -12.501s25.5 -8.83398 38.5 -12.501s26.167 -5.5 39.5 -5.5c20.667 0 38.5 3.83301 53.5 11.5s27.833 17.834 38.5 30.501s19 27.5 25 44.5s10 35.167 12 54.5
h-72z" />
    <glyph glyph-name="igrave" horiz-adv-x="334" 
d="M77 0h180v521h-180v-521zM257 600l-68 144h-188l130 -144h126z" />
    <glyph glyph-name="Idieresis" horiz-adv-x="334" 
d="M74 0h186v698h-186v-698zM209 741h144v144h-144v-144zM-19 741h144v144h-144v-144z" />
    <glyph glyph-name="ydieresis" 
d="M45 -210c36.667 -8 74 -12.001 112 -12.001c41.333 0 75.5 7.33301 102.5 22s49.667 34 68 58s33.833 51.5 46.5 82.5l38 95.5l191 485h-180l-107 -340h-2l-112 340h-194l211 -533c-6.66699 -23.333 -18 -41.166 -34 -53.499s-35 -18.5 -57 -18.5
c-12.667 0 -24.667 0.833008 -36 2.5s-23 4.5 -35 8.5zM354 599.999h144v144h-144v-144zM126 599.999h144v144h-144v-144z" />
    <glyph glyph-name="sterling" horiz-adv-x="612" 
d="M53 0l503.002 0.00195312v132h-225v190h152v90h-152v33c0 20 2.16699 37.833 6.5 53.5s12 29 23 40s25.667 19.333 44 25s41.166 8.5 68.499 8.5c15.333 0 29.666 -0.833008 42.999 -2.5s26.666 -4.83398 39.999 -9.50098l8 132
c-22 5.33301 -44.167 9.66602 -66.5 12.999s-45.166 5 -68.499 5c-88 0 -157 -19.833 -207 -59.5s-75 -101.5 -75 -185.5v-53h-86v-90h84v-190h-92v-132z" />
    <glyph glyph-name="ae" horiz-adv-x="944" 
d="M869 148c-27.333 -14.667 -54.501 -25 -81.501 -31s-52.833 -9 -77.5 -9c-44 0 -79.167 7.66699 -105.5 23s-42.166 41 -47.499 77h360v33c0 38.667 -4.66699 75.667 -14 111s-24.333 66.333 -45 93s-47.834 48 -81.501 64s-74.5 24 -122.5 24
c-38.667 0 -73.167 -6 -103.5 -18s-57.166 -27.333 -80.499 -46c-19.333 22.667 -44.5 38.667 -75.5 48s-64.167 14.666 -99.5 15.999c-38.667 0 -75 -2.83301 -109 -8.5s-67 -14.834 -99 -27.501l3 -123c25.333 14 52 24 80 30s56.667 9 86 9c16 0 31.167 -1.33301 45.5 -4
s27 -7.33398 38 -14.001s19.667 -15.667 26 -27s9.5 -25.666 9.5 -42.999c-11.333 1.33301 -24.5 2.5 -39.5 3.5s-29.833 1.5 -44.5 1.5c-24 0 -51.5 -1.83301 -82.5 -5.5s-60.333 -11.667 -88 -24s-51 -30.166 -70 -53.499s-28.5 -54.666 -28.5 -93.999
c0 -28.667 5.33301 -53.334 16 -74.001s25 -37.834 43 -51.501s38.667 -23.667 62 -30s48 -9.5 74 -9.5c23.333 0 45.833 1.83301 67.5 5.5s42 9.83398 61 18.501s36.5 20.5 52.5 35.5s30.333 34.167 43 57.5c14 -25.333 30 -45.666 48 -60.999s37.333 -27.166 58 -35.499
s42.167 -13.833 64.5 -16.5s44.5 -4 66.5 -4c34 0 67 2.66699 99 8s62.667 13.666 92 24.999v127zM189.999 166c0 25.333 10.832 43 32.499 53s49.5 15 83.5 15h69c0 -15.333 -2.66699 -30.5 -8 -45.5s-12.666 -28.5 -21.999 -40.5s-21 -21.667 -35 -29s-29.333 -11 -46 -11
c-21.333 0 -39 5 -53 15s-21 24.333 -21 43zM554.998 310c2 30 11 55.667 27 77s40.333 32 73 32c36 0 61.667 -10.667 77 -32s23 -47 23 -77h-200z" />
    <glyph glyph-name="Aring" horiz-adv-x="778" 
d="M8 0h189l55 149h262l52 -149h204l-269 698h-228zM470 281h-175l90 273h2zM275 827c0 -15.333 3 -29.833 9 -43.5s14 -25.5 24 -35.5s21.833 -18 35.5 -24s28.167 -9 43.5 -9s29.833 3 43.5 9s25.5 14 35.5 24s18 21.833 24 35.5s9 28.167 9 43.5s-3 29.833 -9 43.5
s-14 25.5 -24 35.5s-21.833 18 -35.5 24s-28.167 9 -43.5 9s-29.833 -3 -43.5 -9s-25.5 -14 -35.5 -24s-18 -21.833 -24 -35.5s-9 -28.167 -9 -43.5zM339 827c0 13.333 4.66699 24.666 14 33.999s20.666 14 33.999 14s24.666 -4.66699 33.999 -14s14 -20.666 14 -33.999
s-4.66699 -24.666 -14 -33.999s-20.666 -14 -33.999 -14s-24.666 4.66699 -33.999 14s-14 20.666 -14 33.999z" />
    <glyph glyph-name="ecircumflex" 
d="M573 208l0.000976562 33c0 38.667 -4.66699 75.667 -14 111s-24.333 66.333 -45 93s-47.834 48 -81.501 64s-74.5 24 -122.5 24c-40.667 0 -78 -6.16699 -112 -18.5s-63.333 -30 -88 -53s-44 -51.5 -58 -85.5s-21 -72.333 -21 -115c0 -43.333 7.66699 -81.833 23 -115.5
s36.666 -62.167 63.999 -85.5s59.333 -41.166 96 -53.499s76.667 -18.5 120 -18.5c34 0 67 2.66699 99 8s62.667 13.666 92 24.999v127c-27.333 -14.667 -54.5 -25 -81.5 -31s-52.833 -9 -77.5 -9c-44 0 -79.167 7.66699 -105.5 23s-42.166 41 -47.499 77h360zM211.001 310
c2 30 11 55.667 27 77s40.333 32 73 32c36 0 61.667 -10.667 77 -32s23 -47 23 -77h-200zM133.001 600h125l69 78l65 -78h125l-109 144h-162z" />
    <glyph glyph-name="ucircumflex" horiz-adv-x="667" 
d="M611 521h-180v-220c0 -56.667 -9.33301 -98 -28 -124s-46.667 -39 -84 -39c-12 0 -23.167 2.16699 -33.5 6.5s-19.166 11.666 -26.499 21.999s-13 23.833 -17 40.5s-6 37.334 -6 62.001v252h-180v-325c0 -27.333 3.66699 -53.5 11 -78.5s19 -47 35 -66
s36.667 -34.333 62 -46s55.666 -17.5 90.999 -17.5c41.333 0 78.833 8.5 112.5 25.5s59.5 44.5 77.5 82.5h2v-96h164v521zM141 600h125l69 78l65 -78h125l-109 144h-162z" />
    <glyph glyph-name="Ecircumflex" 
d="M60 0h503v132h-317v158h289v132h-289v144h306v132h-492v-698zM121 741h125l69 78l65 -78h125l-109 144h-162z" />
    <glyph glyph-name="aring" 
d="M562 0c-4 20.667 -6.66699 41.167 -8 61.5s-2 40.833 -2 61.5v194c0 40 -6.66699 73.667 -20 101s-31.333 49.5 -54 66.5s-49 29.333 -79 37s-61.667 11.5 -95 11.5c-38.667 0 -75 -2.83301 -109 -8.5s-67 -15.167 -99 -28.5l3 -122c25.333 14 52 24 80 30s56.667 9 86 9
c16 0 31.167 -1.33301 45.5 -4s27 -7.5 38 -14.5s19.667 -16.167 26 -27.5s9.5 -26 9.5 -44c-11.333 2 -24.5 3.66699 -39.5 5s-29.833 2 -44.5 2c-24 0 -51.5 -1.83301 -82.5 -5.5s-60.333 -11.667 -88 -24s-51 -30.166 -70 -53.499s-28.5 -55 -28.5 -95
c0 -28 5.33301 -52.333 16 -73s25 -37.834 43 -51.501s38.667 -23.667 62 -30s48 -9.5 74 -9.5c37.333 0 69 7.5 95 22.5s49.333 38.833 70 71.5h2c0 -13.333 0.5 -26.833 1.5 -40.5s1.83301 -27.5 2.5 -41.5h165zM199 165c0 25.333 10.499 43.1689 31.499 53.502
s46.833 15.5 77.5 15.5c13.333 0 26.5 -0.333008 39.5 -1s25.167 -1.33398 36.5 -2.00098c0 -15.333 -2.66699 -30.333 -8 -45s-12.666 -27.834 -21.999 -39.501s-21 -21 -35 -28s-29.333 -10.5 -46 -10.5c-21.333 0 -39 5 -53 15s-21 24 -21 42zM193.999 693.003
c0 -15.333 3 -29.833 9 -43.5s14 -25.5 24 -35.5s21.833 -18 35.5 -24s28.167 -9 43.5 -9s29.833 3 43.5 9s25.5 14 35.5 24s18 21.833 24 35.5s9 28.167 9 43.5s-3 29.833 -9 43.5s-14 25.5 -24 35.5s-21.833 18 -35.5 24s-28.167 9 -43.5 9s-29.833 -3 -43.5 -9
s-25.5 -14 -35.5 -24s-18 -21.833 -24 -35.5s-9 -28.167 -9 -43.5zM257.999 693.003c0 13.333 4.66699 24.666 14 33.999s20.666 14 33.999 14s24.666 -4.66699 33.999 -14s14 -20.666 14 -33.999s-4.66699 -24.666 -14 -33.999s-20.666 -14 -33.999 -14
s-24.666 4.66699 -33.999 14s-14 20.666 -14 33.999z" />
    <glyph glyph-name="agrave" 
d="M562 0c-4 20.667 -6.66699 41.167 -8 61.5s-2 40.833 -2 61.5v194c0 40 -6.66699 73.667 -20 101s-31.333 49.5 -54 66.5s-49 29.333 -79 37s-61.667 11.5 -95 11.5c-38.667 0 -75 -2.83301 -109 -8.5s-67 -15.167 -99 -28.5l3 -122c25.333 14 52 24 80 30s56.667 9 86 9
c16 0 31.167 -1.33301 45.5 -4s27 -7.5 38 -14.5s19.667 -16.167 26 -27.5s9.5 -26 9.5 -44c-11.333 2 -24.5 3.66699 -39.5 5s-29.833 2 -44.5 2c-24 0 -51.5 -1.83301 -82.5 -5.5s-60.333 -11.667 -88 -24s-51 -30.166 -70 -53.499s-28.5 -55 -28.5 -95
c0 -28 5.33301 -52.333 16 -73s25 -37.834 43 -51.501s38.667 -23.667 62 -30s48 -9.5 74 -9.5c37.333 0 69 7.5 95 22.5s49.333 38.833 70 71.5h2c0 -13.333 0.5 -26.833 1.5 -40.5s1.83301 -27.5 2.5 -41.5h165zM199 165c0 25.333 10.499 43.1689 31.499 53.502
s46.833 15.5 77.5 15.5c13.333 0 26.5 -0.333008 39.5 -1s25.167 -1.33398 36.5 -2.00098c0 -15.333 -2.66699 -30.333 -8 -45s-12.666 -27.834 -21.999 -39.501s-21 -21 -35 -28s-29.333 -10.5 -46 -10.5c-21.333 0 -39 5 -53 15s-21 24 -21 42zM384.999 600.003l-68 144
h-187l129 -144h126z" />
    <glyph glyph-name="Ugrave" horiz-adv-x="722" 
d="M667 698h-186v-402c0 -23.333 -1.83301 -45.166 -5.5 -65.499s-10 -38.333 -19 -54s-21.167 -28 -36.5 -37s-35 -13.5 -59 -13.5s-43.667 4.5 -59 13.5s-27.5 21.333 -36.5 37s-15.333 33.667 -19 54s-5.5 42.166 -5.5 65.499v402h-186v-433
c0 -48 7.33301 -89.333 22 -124s35.5 -63.334 62.5 -86.001s59.333 -39.5 97 -50.5s79.167 -16.5 124.5 -16.5s86.833 5.5 124.5 16.5s70 27.833 97 50.5s47.833 51.334 62.5 86.001s22 76 22 124v433zM441 741l-68 144h-187l129 -144h126z" />
    <glyph glyph-name="questiondown" horiz-adv-x="556" 
d="M487 -20c-48.667 -24.667 -100.998 -37.002 -156.998 -37.002c-12 0 -24.5 1.33301 -37.5 4s-24.833 7 -35.5 13s-19.5 13.5 -26.5 22.5s-10.5 19.833 -10.5 32.5c0 22 6.66699 42.5 20 61.5s28.166 38.5 44.499 58.5s31.166 41.833 44.499 65.5s20 51.5 20 83.5h-146
c-2 -22 -7.33301 -41.667 -16 -59s-19 -33.666 -31 -48.999s-24.833 -29.833 -38.5 -43.5s-26.167 -28.167 -37.5 -43.5s-20.833 -31.833 -28.5 -49.5s-11.5 -37.834 -11.5 -60.501c0 -31.333 7.33301 -57.666 22 -78.999s33.667 -38.666 57 -51.999
s49.333 -22.833 78 -28.5s56.667 -8.5 84 -8.5c36 0 71.5 2.16699 106.5 6.5s69.5 11.833 103.5 22.5zM360.002 520.998h-168v-162h168v162z" />
    <glyph glyph-name="cent" horiz-adv-x="612" 
d="M314 150c-16 11.333 -29.167 26.1689 -39.5 44.502s-15.5 39.166 -15.5 62.499c0 44 12.333 78.667 37 104s55.667 38.666 93 39.999zM226 -139.997l59.9961 -0.00195312l40 131c16 -2 32.667 -3 50 -3c24 0 48.833 2 74.5 6s49.834 9.66699 72.501 17l-4 134
c-15.333 -8 -32.666 -14.167 -51.999 -18.5s-39.333 -6.5 -60 -6.5c-13.333 0 -27 2 -41 6l81 271c10.667 -2.66699 20.834 -6.16699 30.501 -10.5s19.167 -9.16602 28.5 -14.499l13 132c-5.33301 2.66699 -10.833 5.16699 -16.5 7.5s-11.834 4.5 -18.501 6.5l39 129h-59
l-36 -117c-17.333 2 -34.666 3 -51.999 3c-43.333 0 -83.333 -6.16699 -120 -18.5s-68.667 -30.166 -96 -53.499s-48.666 -51.833 -63.999 -85.5s-23 -72.167 -23 -115.5c0 -66.667 18 -122 54 -166s83.333 -74.333 142 -91z" />
    <glyph glyph-name="oslash" horiz-adv-x="668" 
d="M445 314c4 -17.333 6.00195 -35.333 6.00195 -54c0 -19.333 -2.16699 -37.833 -6.5 -55.5s-11.333 -33.167 -21 -46.5s-21.834 -24 -36.501 -32s-32.334 -12 -53.001 -12c-26 0 -47.333 6.33301 -64 19zM223.002 205c-4 16.667 -6.00195 34.999 -6.00195 54.999
c0 19.333 2.16699 37.833 6.5 55.5s11.333 33.334 21 47.001s21.834 24.5 36.501 32.5s32.334 12 53.001 12c25.333 0 47 -6.33301 65 -19zM32 6.99902l60.999 -57.998l75 78c48 -26 103.333 -39 166 -39c42.667 0 82.5 6.16699 119.5 18.5s69.167 30 96.5 53
s48.666 51.333 63.999 85s23 72.167 23 115.5c0 38 -6 72.167 -18 102.5s-28.667 57.166 -50 80.499l68 71l-61 58l-75 -78c-23.333 13.333 -49.166 23.166 -77.499 29.499s-58.166 9.5 -89.499 9.5c-43.333 0 -83.333 -6.16699 -120 -18.5s-68.667 -30.166 -96 -53.499
s-48.666 -51.833 -63.999 -85.5s-23 -72.167 -23 -115.5c0 -38 6.16699 -72.333 18.5 -103s29.166 -57.334 50.499 -80.001z" />
    <glyph glyph-name="Ograve" horiz-adv-x="778" 
d="M39 349c0 -55.333 7.49902 -105.333 22.499 -150s37.333 -82.667 67 -114s66.167 -55.333 109.5 -72s93.666 -25 150.999 -25c56.667 0 106.834 8.33301 150.501 25s80.334 40.667 110.001 72s52 69.333 67 114s22.5 94.667 22.5 150c0 56 -7.5 106.333 -22.5 151
s-37.167 82.5 -66.5 113.5s-65.833 54.833 -109.5 71.5s-94.167 25 -151.5 25s-107.833 -8.33301 -151.5 -25s-80.167 -40.5 -109.5 -71.5s-51.5 -68.833 -66.5 -113.5s-22.5 -95 -22.5 -151zM230.999 349c0 30 3 58.5 9 85.5s15.333 50.667 28 71s29 36.5 49 48.5
s44 18 72 18s52 -6 72 -18s36.333 -28.167 49 -48.5s22 -44 28 -71s9 -55.5 9 -85.5c0 -28.667 -3 -56.5 -9 -83.5s-15.333 -50.833 -28 -71.5s-29 -37.167 -49 -49.5s-44 -18.5 -72 -18.5s-52 6.16699 -72 18.5s-36.333 28.833 -49 49.5s-22 44.5 -28 71.5
s-9 54.833 -9 83.5zM465.999 741l-68 144h-187l129 -144h126z" />
    <glyph glyph-name="Otilde" horiz-adv-x="778" 
d="M39 349c0 -55.333 7.49902 -105.333 22.499 -150s37.333 -82.667 67 -114s66.167 -55.333 109.5 -72s93.666 -25 150.999 -25c56.667 0 106.834 8.33301 150.501 25s80.334 40.667 110.001 72s52 69.333 67 114s22.5 94.667 22.5 150c0 56 -7.5 106.333 -22.5 151
s-37.167 82.5 -66.5 113.5s-65.833 54.833 -109.5 71.5s-94.167 25 -151.5 25s-107.833 -8.33301 -151.5 -25s-80.167 -40.5 -109.5 -71.5s-51.5 -68.833 -66.5 -113.5s-22.5 -95 -22.5 -151zM230.999 349c0 30 3 58.5 9 85.5s15.333 50.667 28 71s29 36.5 49 48.5
s44 18 72 18s52 -6 72 -18s36.333 -28.167 49 -48.5s22 -44 28 -71s9 -55.5 9 -85.5c0 -28.667 -3 -56.5 -9 -83.5s-15.333 -50.833 -28 -71.5s-29 -37.167 -49 -49.5s-44 -18.5 -72 -18.5s-52 6.16699 -72 18.5s-36.333 28.833 -49 49.5s-22 44.5 -28 71.5
s-9 54.833 -9 83.5zM510.999 885c-4.66699 -26 -21.333 -39.002 -50 -39.002c-9.33301 0 -19.5 1.83301 -30.5 5.5s-22.667 7.83398 -35 12.501s-25 8.83398 -38 12.501s-26.167 5.5 -39.5 5.5c-20 0 -37.5 -4 -52.5 -12s-27.667 -18.667 -38 -32s-18.5 -28.5 -24.5 -45.5
s-10 -34.167 -12 -51.5h72c3.33301 12.667 8.5 22.334 15.5 29.001s18.167 10 33.5 10c8 0 17.5 -1.83301 28.5 -5.5s22.833 -7.83398 35.5 -12.501s25.5 -8.83398 38.5 -12.501s26.167 -5.5 39.5 -5.5c20.667 0 38.5 3.83301 53.5 11.5s27.833 17.834 38.5 30.501
s19 27.5 25 44.5s10 35.167 12 54.5h-72z" />
    <glyph glyph-name="ntilde" horiz-adv-x="667" 
d="M56 0h179.999v220c0 56.667 9.33301 98 28 124s46.667 39 84 39c24.667 0 44.667 -9.66699 60 -29s23 -53.333 23 -102v-252h180v325c0 26.667 -3.66699 52.667 -11 78s-19 47.5 -35 66.5s-36.667 34.333 -62 46s-55.666 17.5 -90.999 17.5
c-41.333 0 -78.833 -8.5 -112.5 -25.5s-59.5 -44.5 -77.5 -82.5h-2v96h-164v-521zM457.999 744c-4.66699 -26 -21.333 -39.001 -50 -39.001c-9.33301 0 -19.333 1.83301 -30 5.5l-35 12.5c-12.667 4.66699 -25.5 8.83398 -38.5 12.501s-26.167 5.5 -39.5 5.5
c-20 0 -37.5 -4 -52.5 -12s-27.667 -18.667 -38 -32s-18.5 -28.5 -24.5 -45.5s-10 -34.167 -12 -51.5h72c3.33301 12.667 8.5 22.334 15.5 29.001s18.167 10 33.5 10c8 0 17.5 -1.83301 28.5 -5.5s22.833 -7.83398 35.5 -12.501s25.5 -8.83398 38.5 -12.501
s26.167 -5.5 39.5 -5.5c20.667 0 38.5 3.83301 53.5 11.5s27.833 17.834 38.5 30.501s19 27.5 25 44.5s10 35.167 12 54.5h-72z" />
    <glyph glyph-name="AE" horiz-adv-x="1000" 
d="M-4 0h195l73 149h213v-149h484v132h-298v158h268v132h-268v144h286v132h-588zM477 281h-148l139 285h9v-285z" />
    <glyph glyph-name="Ucircumflex" horiz-adv-x="722" 
d="M667 698h-186v-402c0 -23.333 -1.83301 -45.166 -5.5 -65.499s-10 -38.333 -19 -54s-21.167 -28 -36.5 -37s-35 -13.5 -59 -13.5s-43.667 4.5 -59 13.5s-27.5 21.333 -36.5 37s-15.333 33.667 -19 54s-5.5 42.166 -5.5 65.499v402h-186v-433
c0 -48 7.33301 -89.333 22 -124s35.5 -63.334 62.5 -86.001s59.333 -39.5 97 -50.5s79.167 -16.5 124.5 -16.5s86.833 5.5 124.5 16.5s70 27.833 97 50.5s47.833 51.334 62.5 86.001s22 76 22 124v433zM165 741h125l69 78l65 -78h125l-109 144h-162z" />
    <glyph glyph-name="ordmasculine" horiz-adv-x="434" 
d="M17 545c0 -26 5 -49.167 15 -69.5s24 -37.666 42 -51.999s39.167 -25.166 63.5 -32.499s50.833 -11 79.5 -11s55.167 3.66699 79.5 11s45.5 18.166 63.5 32.499s32 31.666 42 51.999s15 43.5 15 69.5s-5 49.167 -15 69.5s-24 37.666 -42 51.999
s-39.167 25.166 -63.5 32.499s-50.833 11 -79.5 11s-55.167 -3.66699 -79.5 -11s-45.5 -18.166 -63.5 -32.499s-32 -31.666 -42 -51.999s-15 -43.5 -15 -69.5zM143 545c0 20 5.83301 38.5 17.5 55.5s30.5 25.5 56.5 25.5s44.833 -8.5 56.5 -25.5s17.5 -35.5 17.5 -55.5
c0 -20.667 -5.83301 -39.334 -17.5 -56.001s-30.5 -25 -56.5 -25s-44.833 8.33301 -56.5 25s-17.5 35.334 -17.5 56.001z" />
    <glyph glyph-name="Egrave" 
d="M60 0h503v132h-317v158h289v132h-289v144h306v132h-492v-698zM416 741l-68 144h-187l129 -144h126z" />
    <glyph glyph-name="ograve" horiz-adv-x="668" 
d="M334 -12c42.667 0 82.5 6.16699 119.5 18.5s69.167 30 96.5 53s48.666 51.333 63.999 85s23 72.167 23 115.5s-7.66699 81.833 -23 115.5s-36.666 62.167 -63.999 85.5s-59.5 41.166 -96.5 53.499s-76.833 18.5 -119.5 18.5c-43.333 0 -83.333 -6.16699 -120 -18.5
s-68.667 -30.166 -96 -53.499s-48.666 -51.833 -63.999 -85.5s-23 -72.167 -23 -115.5s7.66699 -81.833 23 -115.5s36.666 -62 63.999 -85s59.333 -40.667 96 -53s76.667 -18.5 120 -18.5zM334 114c-20.667 0 -38.334 4 -53.001 12s-26.834 18.667 -36.501 32
s-16.667 28.833 -21 46.5s-6.5 36.167 -6.5 55.5s2.16699 37.833 6.5 55.5s11.333 33.334 21 47.001s21.834 24.5 36.501 32.5s32.334 12 53.001 12s38.334 -4 53.001 -12s26.834 -18.833 36.501 -32.5s16.667 -29.334 21 -47.001s6.5 -36.167 6.5 -55.5
s-2.16699 -37.833 -6.5 -55.5s-11.333 -33.167 -21 -46.5s-21.834 -24 -36.501 -32s-32.334 -12 -53.001 -12zM414 600l-68 144h-187l129 -144h126z" />
    <glyph glyph-name="egrave" 
d="M573 208l0.000976562 33c0 38.667 -4.66699 75.667 -14 111s-24.333 66.333 -45 93s-47.834 48 -81.501 64s-74.5 24 -122.5 24c-40.667 0 -78 -6.16699 -112 -18.5s-63.333 -30 -88 -53s-44 -51.5 -58 -85.5s-21 -72.333 -21 -115c0 -43.333 7.66699 -81.833 23 -115.5
s36.666 -62.167 63.999 -85.5s59.333 -41.166 96 -53.499s76.667 -18.5 120 -18.5c34 0 67 2.66699 99 8s62.667 13.666 92 24.999v127c-27.333 -14.667 -54.5 -25 -81.5 -31s-52.833 -9 -77.5 -9c-44 0 -79.167 7.66699 -105.5 23s-42.166 41 -47.499 77h360zM211.001 310
c2 30 11 55.667 27 77s40.333 32 73 32c36 0 61.667 -10.667 77 -32s23 -47 23 -77h-200zM415.001 600l-68 144h-187l129 -144h126z" />
    <glyph glyph-name="Igrave" horiz-adv-x="334" 
d="M74 0h186v698h-186v-698zM256 741l-68 144h-187l129 -144h126z" />
    <glyph glyph-name="Ntilde" horiz-adv-x="778" 
d="M68 0h171l-6 477h2l244 -477h231v698h-170l3 -474h-2l-236 474h-237v-698zM525 885c-4.66699 -26 -21.333 -39.002 -50 -39.002c-9.33301 0 -19.5 1.83301 -30.5 5.5s-22.667 7.83398 -35 12.501s-25 8.83398 -38 12.501s-26.167 5.5 -39.5 5.5c-20 0 -37.5 -4 -52.5 -12
s-27.667 -18.667 -38 -32s-18.5 -28.5 -24.5 -45.5s-10 -34.167 -12 -51.5h72c3.33301 12.667 8.5 22.334 15.5 29.001s18.167 10 33.5 10c8 0 17.5 -1.83301 28.5 -5.5s22.833 -7.83398 35.5 -12.501s25.5 -8.83398 38.5 -12.501s26.167 -5.5 39.5 -5.5
c20.667 0 38.5 3.83301 53.5 11.5s27.833 17.834 38.5 30.501s19 27.5 25 44.5s10 35.167 12 54.5h-72z" />
    <glyph glyph-name="Oslash" horiz-adv-x="778" 
d="M242 260c-4 13.333 -6.83301 27.668 -8.5 43.001s-2.5 30.666 -2.5 45.999c0 30 3 58.5 9 85.5s15.333 50.667 28 71s29 36.5 49 48.5s44 18 72 18c22 0 41.5 -3.83301 58.5 -11.5s31.833 -18.167 44.5 -31.5zM535 447.002c8 -29.333 12 -62 12 -98
c0 -28.667 -3 -56.5 -9 -83.5s-15.333 -50.833 -28 -71.5s-29 -37.167 -49 -49.5s-44 -18.5 -72 -18.5c-24 0 -44.833 4.33301 -62.5 13s-32.5 20.667 -44.5 36zM15 17.002l63.999 -60l88 95c56.667 -42.667 130.667 -64 222 -64c56.667 0 106.834 8.33301 150.501 25
s80.334 40.667 110.001 72s52 69.333 67 114s22.5 94.667 22.5 150c0 99.333 -23.333 180 -70 242l84 91l-64 60l-84 -91c-28 19.333 -59.833 34 -95.5 44s-75.834 15 -120.501 15c-57.333 0 -107.833 -8.33301 -151.5 -25s-80.167 -40.5 -109.5 -71.5
s-51.5 -68.833 -66.5 -113.5s-22.5 -95 -22.5 -151c0 -96.667 22.333 -175 67 -235z" />
    <glyph glyph-name="idieresis" horiz-adv-x="334" 
d="M77 0h180v521h-180v-521zM210 600h144v144h-144v-144zM-19 600h145v144h-145v-144z" />
    <glyph glyph-name="yen" horiz-adv-x="612" 
d="M216 0h180v136h148v84h-148v43l10 19h138v84h-97l165 332h-188l-118 -282l-120 282h-186l165 -332h-97v-84h139l9 -19v-43h-148v-84h148v-136z" />
    <glyph glyph-name="Atilde" horiz-adv-x="778" 
d="M8 0h189l55 149h262l52 -149h204l-269 698h-228zM470 281h-175l90 273h2zM511 885c-4.66699 -26 -21.333 -39.002 -50 -39.002c-9.33301 0 -19.5 1.83301 -30.5 5.5s-22.667 7.83398 -35 12.501s-25 8.83398 -38 12.501s-26.167 5.5 -39.5 5.5c-20 0 -37.5 -4 -52.5 -12
s-27.667 -18.667 -38 -32s-18.5 -28.5 -24.5 -45.5s-10 -34.167 -12 -51.5h72c3.33301 12.667 8.5 22.334 15.5 29.001s18.167 10 33.5 10c8 0 17.5 -1.83301 28.5 -5.5s22.833 -7.83398 35.5 -12.501s25.5 -8.83398 38.5 -12.501s26.167 -5.5 39.5 -5.5
c20.667 0 38.5 3.83301 53.5 11.5s27.833 17.834 38.5 30.501s19 27.5 25 44.5s10 35.167 12 54.5h-72z" />
    <glyph glyph-name="exclamdown" horiz-adv-x="444" 
d="M129 -177h186l-26 461h-134zM306 521h-168v-162h168v162z" />
    <glyph glyph-name="Agrave" horiz-adv-x="778" 
d="M8 0h189l55 149h262l52 -149h204l-269 698h-228zM470 281h-175l90 273h2zM466 741l-68 144h-187l129 -144h126z" />
    <glyph glyph-name="otilde" horiz-adv-x="668" 
d="M334 -12c42.667 0 82.5 6.16699 119.5 18.5s69.167 30 96.5 53s48.666 51.333 63.999 85s23 72.167 23 115.5s-7.66699 81.833 -23 115.5s-36.666 62.167 -63.999 85.5s-59.5 41.166 -96.5 53.499s-76.833 18.5 -119.5 18.5c-43.333 0 -83.333 -6.16699 -120 -18.5
s-68.667 -30.166 -96 -53.499s-48.666 -51.833 -63.999 -85.5s-23 -72.167 -23 -115.5s7.66699 -81.833 23 -115.5s36.666 -62 63.999 -85s59.333 -40.667 96 -53s76.667 -18.5 120 -18.5zM334 114c-20.667 0 -38.334 4 -53.001 12s-26.834 18.667 -36.501 32
s-16.667 28.833 -21 46.5s-6.5 36.167 -6.5 55.5s2.16699 37.833 6.5 55.5s11.333 33.334 21 47.001s21.834 24.5 36.501 32.5s32.334 12 53.001 12s38.334 -4 53.001 -12s26.834 -18.833 36.501 -32.5s16.667 -29.334 21 -47.001s6.5 -36.167 6.5 -55.5
s-2.16699 -37.833 -6.5 -55.5s-11.333 -33.167 -21 -46.5s-21.834 -24 -36.501 -32s-32.334 -12 -53.001 -12zM459 744c-4.66699 -26 -21.333 -39.001 -50 -39.001c-9.33301 0 -19.333 1.83301 -30 5.5l-35 12.5c-12.667 4.66699 -25.5 8.83398 -38.5 12.501
s-26.167 5.5 -39.5 5.5c-20 0 -37.5 -4 -52.5 -12s-27.667 -18.667 -38 -32s-18.5 -28.5 -24.5 -45.5s-10 -34.167 -12 -51.5h72c3.33301 12.667 8.5 22.334 15.5 29.001s18.167 10 33.5 10c8 0 17.5 -1.83301 28.5 -5.5s22.833 -7.83398 35.5 -12.501
s25.5 -8.83398 38.5 -12.501s26.167 -5.5 39.5 -5.5c20.667 0 38.5 3.83301 53.5 11.5s27.833 17.834 38.5 30.501s19 27.5 25 44.5s10 35.167 12 54.5h-72z" />
    <glyph glyph-name="Scommaaccent" 
d="M51 18c31.333 -10 65.666 -17.501 102.999 -22.501s72.333 -7.5 105 -7.5c38.667 0 76.5 3.5 113.5 10.5s69.833 19.167 98.5 36.5s51.667 40.833 69 70.5s26 67.167 26 112.5c0 42 -8.16699 75.667 -24.5 101s-36.666 45.666 -60.999 60.999s-50.833 27 -79.5 35
l-79.5 23c-24.333 7.33301 -44.666 16 -60.999 26s-24.5 24.333 -24.5 43c0 15.333 4.33301 27.333 13 36s19.334 15.167 32.001 19.5s26.167 7 40.5 8s27.5 1.5 39.5 1.5c26.667 0 53.167 -2.5 79.5 -7.5s51.5 -13.167 75.5 -24.5l12 144
c-23.333 8 -50.666 14.333 -81.999 19s-64 7 -98 7c-35.333 0 -71 -3.33301 -107 -10s-68.5 -18 -97.5 -34s-52.833 -37.833 -71.5 -65.5s-28 -62.5 -28 -104.5c0 -42.667 8.16699 -76.667 24.5 -102s36.666 -45.5 60.999 -60.5s50.833 -26.667 79.5 -35
s55.167 -16.666 79.5 -24.999s44.666 -18.166 60.999 -29.499s24.5 -28 24.5 -50c0 -14 -3.16699 -25.5 -9.5 -34.5s-14.833 -16 -25.5 -21s-23 -8.33301 -37 -10s-28.333 -2.5 -43 -2.5c-38.667 0 -74.334 4.33301 -107.001 13s-61 19.667 -85 33zM239 -155.001
l71.999 0.000976562c-2 -18.667 -10.667 -32.5 -26 -41.5s-32.333 -13.5 -51 -13.5v-43c42.667 0 77.334 9.66699 104.001 29s40 50.666 40 93.999v81h-139v-106z" />
    </font>
</defs>
</svg>
